<?xml version="1.0" encoding="utf-8"?>
<!-- Generator: Adobe Illustrator 23.0.1, SVG Export Plug-In . SVG Version: 6.00 Build 0)  -->
<svg version="1.1" id="Calque_1" xmlns="http://www.w3.org/2000/svg" xmlns:xlink="http://www.w3.org/1999/xlink" x="0px" y="0px"
	 viewBox="0 0 5442.5 3274.7" style="enable-background:new 0 0 5442.5 3274.7;" xml:space="preserve">
<style type="text/css">
	.st0{fill:#0D0C0D;}
</style>
<g>
	<g>
		<g>
			<g>
				<path d="M856.1,2231.4l56.1,56.1l-233.6,233.6l-72.1,16.7l16.1-72.9L856.1,2231.4 M856.1,2208.3l-248.4,248.4l-22.8,102.8
					l101.9-23.7l248.4-248.4L856.1,2208.3L856.1,2208.3z"/>
			</g>
			
				<rect x="586.3" y="2351.6" transform="matrix(0.7071 -0.7071 0.7071 0.7071 -1445.9742 1228.5553)" width="347.5" height="16.3"/>
			
				<rect x="610.9" y="2376.1" transform="matrix(0.7071 -0.7071 0.7071 0.7071 -1456.1404 1253.1549)" width="347.5" height="16.3"/>
			<rect x="644" y="2435.4" transform="matrix(0.7071 -0.7071 0.7071 0.7071 -1569.3259 1190.2761)" width="16.3" height="108.1"/>
			<polygon points="588.2,2556.4 599.6,2519.7 624.9,2545 			"/>
		</g>
		<rect x="517" y="2607.5" width="462.7" height="65.4"/>
	</g>
	<g>
		<rect x="1301.3" y="2603.4" width="462.7" height="65.4"/>
		<path d="M1532.4,2560.9l-5.4-4.8c-1.3-1.1-32.2-28.6-63.5-69.5c-42.5-55.5-64.1-106.6-64.1-151.9c0-32,13.6-64.5,37.4-89.4
			c25.4-26.6,59.4-41.2,95.6-41.2s70.2,14.6,95.6,41.2c23.8,24.8,37.4,57.4,37.4,89.4c0,45.3-21.6,96.4-64.1,151.9
			c-31.3,40.9-62.2,68.3-63.5,69.5L1532.4,2560.9z M1532.4,2220.5c-31.7,0-61.5,12.9-83.8,36.2c-20.9,21.8-32.8,50.3-32.8,78.1
			c0,87.7,93,181.7,116.7,204.1c23.7-22.5,116.7-116.5,116.7-204.1c0-27.8-12-56.3-32.8-78.1
			C1593.9,2233.3,1564.1,2220.5,1532.4,2220.5z"/>
		<path d="M1532.1,2413.7c-42.6,0-77.2-34.6-77.2-77.2c0-42.6,34.6-77.2,77.2-77.2s77.2,34.6,77.2,77.2
			C1609.3,2379,1574.7,2413.7,1532.1,2413.7z M1532.1,2275.6c-33.6,0-60.9,27.3-60.9,60.9c0,33.6,27.3,60.9,60.9,60.9
			s60.9-27.3,60.9-60.9S1565.7,2275.6,1532.1,2275.6z"/>
	</g>
	<g>
		<rect x="2073.8" y="2602.9" width="462.7" height="65.4"/>
		<path d="M2511.2,2334.4c0-73.3-69.8-132.9-155.7-132.9c-85.8,0-155.7,59.6-155.7,132.9c0,10.7,1.5,21.1,4.3,31.1l17.7,1.5
			c-3.6-10.4-5.6-21.3-5.6-32.7c0-64.3,62.5-116.6,139.4-116.6S2495,2270,2495,2334.3c0,23.7-8.5,46.5-24.5,66l-2.7,3.2l15.1,57.4
			l-62.1-23.5l-3,1.2c-19.4,8.2-40.3,12.3-62.2,12.3c-18.2,0-35.7-3-51.7-8.3l0.6,17.4c16,4.7,33.1,7.3,50.9,7.3
			c22.9,0,44.9-4.1,65.5-12.3l85.8,32.4l-21.2-80C2502.4,2385.7,2511.2,2360.6,2511.2,2334.4z"/>
		<g>
			<path d="M2200.4,2358.7c-61.7,0-111.9,43-111.9,95.8c0,18.6,6.2,36.4,17.8,51.9l-15.7,59.6l63.8-24.2c14.4,5.7,29.9,8.5,46,8.5
				c61.7,0,111.9-43,111.9-95.8S2262.1,2358.7,2200.4,2358.7z M2240.1,2368.4l-39.3-3.2L2240.1,2368.4z M2200.6,2534
				c-15,0-29.4-2.8-42.8-8.4l-3-1.3l-40.2,15.2l9.7-37l-2.7-3.2c-10.9-13.2-16.7-28.7-16.7-44.8c0-43.8,42.8-79.5,95.5-79.5
				c52.7,0,95.7,35.7,95.7,79.5S2253.3,2534,2200.6,2534z M2305,2472.6l-1.3-36.3L2305,2472.6z"/>
		</g>
		<rect x="2858.2" y="2601.8" width="462.7" height="65.4"/>
		<path d="M3270.4,2513.5c-23.5,0-46.9-5-69.7-9.8c-38.8-8.3-75.4-16.1-106.9,1.6l-1.9,1h-4.7l-1.9-1c-31.5-17.6-68.2-9.8-106.9-1.6
			c-26,5.5-52.8,11.3-79.6,9.5l-7.7-0.5v-7.7c0-2.2,0.4-216.2,0.4-283.9v-8.9l8.8,0.7c23.2,1.9,47.6-1.6,71.2-5
			c40.9-5.9,83.1-12,117.8,11.5c34.7-23.5,76.9-17.4,117.8-11.5c23.6,3.4,48,6.9,71.2,5l8.8-0.7v8.9c0,67.8,0.4,281.8,0.4,283.9v7.7
			l-7.7,0.5C3277,2513.4,3273.7,2513.5,3270.4,2513.5z M3138.4,2478.3c21.7,0,43.9,4.7,65.7,9.4c22.3,4.8,45.3,9.7,67.4,9.5
			c-0.1-37.7-0.4-200.4-0.4-267.4c-22.2,0.7-44.4-2.5-66.1-5.6c-41.2-5.9-80.2-11.6-110.3,11.8l-2.2,1.7h-6.1l-2.2-1.7
			c-30.1-23.3-69-17.7-110.3-11.8c-21.6,3.1-43.9,6.3-66.1,5.6c0,67-0.4,229.7-0.4,267.4c0.4,0,0.7,0,1.1,0
			c21.8,0,44.4-4.8,66.3-9.5c38.7-8.2,78.6-16.7,114.5,1.3C3105.3,2481.1,3121.7,2478.3,3138.4,2478.3z"/>
		<rect x="3081.7" y="2229.4" width="16.3" height="268.7"/>
		<path d="M2905.4,2545.4c-4.4,0-8.8-0.1-13.4-0.4l1-16.3c39.8,2.4,72.1-7.1,100.6-15.5c26.6-7.8,49.5-14.6,70-8.1
			c7.1,2.2,11.6,4.2,15.3,5.9c4.8,2.1,6.8,3,11,3l-0.1,16.3c-7.5,0-11.9-2-17.4-4.4c-3.3-1.5-7.5-3.3-13.7-5.3
			c-15.7-5-35.5,0.8-60.4,8.2C2972.9,2536.3,2942.1,2545.4,2905.4,2545.4z"/>
		<path d="M3274.3,2545.4c-36.7,0-67.5-9.1-92.8-16.5c-25-7.4-44.7-13.2-60.4-8.2c-6.2,2-10.4,3.8-13.7,5.3
			c-5.6,2.4-9.9,4.4-17.4,4.4l-0.1-16.3c4.1,0,6.1-0.9,11-3c3.7-1.6,8.3-3.6,15.3-5.9c20.5-6.5,43.4,0.3,70,8.1
			c28.5,8.4,60.8,17.9,100.6,15.5l1,16.3C3283.1,2545.3,3278.7,2545.4,3274.3,2545.4z"/>
	</g>
	<rect x="4462.9" y="2601" width="462.7" height="65.4"/>
	<g>
		<rect x="3677.1" y="2603.7" width="462.7" height="65.4"/>
		<path d="M3913.5,2466.2c-43.1,0-78.1-35-78.1-78.1v-107.4c0-43.1,35-78.1,78.1-78.1s78.1,35,78.1,78.1v107.4
			C3991.6,2431.2,3956.6,2466.2,3913.5,2466.2z M3913.5,2218.9c-34.1,0-61.8,27.7-61.8,61.8v107.4c0,34.1,27.7,61.8,61.8,61.8l0,0
			c34.1,0,61.8-27.7,61.8-61.8v-107.4C3975.3,2246.6,3947.6,2218.9,3913.5,2218.9z"/>
		<path d="M3913.5,2503.7c-64.3,0-116.5-52.3-116.5-116.5h16.3c0,55.3,45,100.2,100.2,100.2c55.3,0,100.2-45,100.2-100.2h16.3
			C4030.1,2451.4,3977.8,2503.7,3913.5,2503.7z"/>
		<rect x="3905.4" y="2495" width="16.3" height="73.9"/>
		<rect x="3912.8" y="2272.8" width="70.2" height="16.3"/>
		<rect x="3913.3" y="2316.8" width="70.2" height="16.3"/>
		<rect x="3912.4" y="2360.8" width="70.2" height="16.3"/>
	</g>
	<g>
		<path d="M4532.3,2417.5H4516c0-58.2,15.5-107.9,44.8-143.5c30.9-37.7,75.7-57.6,129.4-57.6v16.3c-48.7,0-89,17.8-116.8,51.6
			C4546.5,2317.1,4532.3,2363.1,4532.3,2417.5z"/>
		<path d="M4864.4,2417.5H4848c0-54.4-14.2-100.4-41.1-133.2c-27.7-33.8-68.1-51.6-116.8-51.6v-16.3c53.7,0,98.5,19.9,129.4,57.6
			C4848.9,2309.7,4864.4,2359.3,4864.4,2417.5z"/>
		<path d="M4573.5,2546.2h-15.9c-17.9,0-32.5-14.6-32.5-32.5v-93.4c0-17.9,14.6-32.5,32.5-32.5h15.9c17.9,0,32.5,14.6,32.5,32.5
			v93.4C4606,2531.6,4591.4,2546.2,4573.5,2546.2z M4557.6,2404.2c-8.9,0-16.2,7.2-16.2,16.2v93.4c0,8.9,7.2,16.2,16.2,16.2h15.9
			c8.9,0,16.2-7.2,16.2-16.2v-93.4c0-8.9-7.2-16.2-16.2-16.2H4557.6z"/>
		<path d="M4533.3,2526.2c-37,0-56.4-29.1-56.4-57.9c0-15,5-29,14-39.5c10.4-12,25-18.4,42.4-18.4v16.3c-12.5,0-22.8,4.4-30,12.7
			c-6.5,7.5-10.1,17.8-10.1,28.8c0,20,12.5,41.5,40.1,41.5V2526.2z"/>
		<path d="M4830.8,2546.2h-15.9c-17.9,0-32.5-14.6-32.5-32.5v-93.4c0-17.9,14.6-32.5,32.5-32.5h15.9c17.9,0,32.5,14.6,32.5,32.5
			v93.4C4863.3,2531.6,4848.7,2546.2,4830.8,2546.2z M4814.9,2404.2c-8.9,0-16.2,7.2-16.2,16.2v93.4c0,8.9,7.2,16.2,16.2,16.2h15.9
			c8.9,0,16.2-7.2,16.2-16.2v-93.4c0-8.9-7.2-16.2-16.2-16.2H4814.9z"/>
		<path d="M4855.1,2526.2v-16.3c12.5,0,22.8-4.4,30-12.7c6.5-7.5,10.1-17.8,10.1-28.8c0-20-12.5-41.5-40.1-41.5v-16.3
			c37,0,56.4,29.1,56.4,57.9c0,15-5,29-14,39.5C4887.1,2519.9,4872.5,2526.2,4855.1,2526.2z"/>
	</g>
</g>
<g>
	<g>
		<rect x="489.8" y="1810.8" class="st0" width="1274.3" height="89.2"/>
	</g>
	<g>
		<path class="st0" d="M592.9,1743c-44.3,0-71.9-12.1-99.1-39.3l15.9-15.9c26.8,26.7,48.5,35.1,84.5,35.1
			c46.8,0,76.5-22.6,76.5-61.4c0-17.6-5.4-32.2-16.3-41.8c-10.9-9.2-18.8-12.1-43.1-15.9l-34.7-5.4c-22.6-3.4-40.6-10.9-53.1-21.8
			c-15.9-13.4-23.4-31.8-23.4-54.8c0-49.7,35.5-81.5,92.4-81.5c36.8,0,60.2,10,85.7,32.2l-14.6,14.6c-18.4-16.3-36.8-27.6-72.3-27.6
			c-43,0-69,23.8-69,61.4c0,17.1,5,30.1,15.5,38.9c10.4,8.8,27.6,15.9,44.3,18.4l32.2,5c28,4.2,40.5,9.2,53.1,19.6
			c16.3,13.4,25.9,33.9,25.9,57.7C693.2,1710.9,654.8,1743,592.9,1743z"/>
		<path class="st0" d="M820.7,1462.9v277.6h-22.6v-277.6h-88.6v-20.1h200.3v20.1H820.7z"/>
		<path class="st0" d="M1045.1,1743c-59.8,0-102-41-102-99.1v-201.1h22.6v198.1c0,49.3,31.8,81.9,79.4,81.9
			c47.6,0,79.4-32.6,79.4-81.9v-198.1h22.6v201.1C1147.1,1702.1,1104.9,1743,1045.1,1743z"/>
		<path class="st0" d="M1388.3,1713.4c-17.6,17.6-43.5,27.2-74.4,27.2H1214V1443h99.9c30.9,0,56.8,9.6,74.4,27.2
			c30.1,30.1,28.9,77.3,28.9,117.5C1417.2,1627.7,1418.4,1683.2,1388.3,1713.4z M1372.4,1485.9c-17.1-17.5-40.1-23-63.9-23h-71.9
			v257.5h71.9c23.8,0,46.8-5.4,63.9-23c23.8-24.3,22.2-76.9,22.2-109.9C1394.6,1554.5,1396.2,1510.2,1372.4,1485.9z"/>
		<path class="st0" d="M1476.5,1740.5v-297.6h22.6v297.6H1476.5z"/>
		<path class="st0" d="M1734.8,1712.5c-19.6,19.6-46.4,30.5-74.4,30.5s-54.8-10.9-74.4-30.5c-27.2-27.2-27.6-53.5-27.6-120.8
			s0.4-93.6,27.6-120.8c19.6-19.6,46.4-30.5,74.4-30.5s54.8,10.9,74.4,30.5c27.2,27.2,27.6,53.5,27.6,120.8
			S1762,1685.3,1734.8,1712.5z M1716.8,1483.4c-15.1-15-35.1-23-56.5-23c-21.3,0-41.4,8-56.4,23c-21.3,21.3-23,44.3-23,108.3
			s1.7,87,23,108.3c15.1,15.1,35.1,23,56.4,23s41.4-7.9,56.5-23c21.3-21.3,23-44.3,23-108.3
			C1739.8,1527.8,1738.1,1504.7,1716.8,1483.4z"/>
	</g>
	<path class="st0" d="M600.5,983.9c-61.7,0-110.7-41.8-110.7-105.7V680.4h58.7V876c0,34.6,20.3,55.4,52,55.4s52.4-20.7,52.4-55.4
		V680.4h58.3v197.8C711.2,942.1,662.2,983.9,600.5,983.9z"/>
	<path class="st0" d="M929.6,981.4L810.4,796.7v184.7h-58.7V680.5h52.4l119.2,184.2V680.5H982v300.9H929.6z"/>
	<path class="st0" d="M1034.8,981.4V680.5H1233v52.4h-139.4v70.6h118.7v52.4h-118.7V929H1233v52.4H1034.8z"/>
	<path class="st0" d="M1504.8,680.5v300.9H1446V797.2l-119.1,184.2h-52.4V680.5h58.7v184.7l119.2-184.7H1504.8z"/>
	<path class="st0" d="M1565.7,866.7v-51.1h130.1v51.1H1565.7z"/>
	<path class="st0" d="M682.4,1332.7c-19.9,19.9-48.2,28.7-79.4,28.7H494.4v-300.9H603c31.3,0,59.6,8.9,79.4,28.7
		c33.8,33.8,30.4,75.2,30.4,120.4C712.9,1255,716.2,1299,682.4,1332.7z M641.5,1131.6c-10.1-12.3-23.7-18.6-43.9-18.6h-44.4v196.1
		h44.4c20.3,0,33.8-6.4,43.9-18.6c11-13.5,12.7-35.1,12.7-80.7C654.1,1164.2,652.4,1145.2,641.5,1131.6z"/>
	<path class="st0" d="M751.7,1361.5v-300.9h58.7v248.5h136.5v52.4H751.7z"/>
	<path class="st0" d="M973.5,1361.5v-300.9h58.7v300.9H973.5z"/>
	<path class="st0" d="M1181.8,1364c-33,0-60-11.8-81.1-33c-30.4-30.4-29.6-68-29.6-120s-0.9-89.6,29.6-120
		c21.1-21.1,48.2-33,81.1-33c38.4,0,62.1,13.5,83.7,34.6l-38.9,38.9c-13.1-13.1-23.7-21.2-44.8-21.2c-16.1,0-28.7,5.9-37.2,15.6
		c-11.4,12.7-14.8,27-14.8,84.9s3.4,72.3,14.8,84.9c8.5,9.7,21.1,15.6,37.2,15.6c21.1,0,31.7-8,44.8-21.1l38.9,38.9
		C1243.9,1350.5,1220.2,1364,1181.8,1364z"/>
	<path class="st0" d="M1458.1,1361.5v-125.9h-101.9v125.9h-58.7v-300.9h58.7v123h101.9v-123h58.7v300.9H1458.1z"/>
	<path class="st0" d="M1565.8,1361.5v-300.9H1764v52.4h-139.5v70.6h118.8v52.4h-118.8v73.1H1764v52.4H1565.8z"/>
</g>
</svg>
