<svg id="Calque_1" data-name="Calque 1" xmlns="http://www.w3.org/2000/svg" viewBox="0 0 500 500"><defs><style>.cls-1{fill:#1fc2be;}.cls-2,.cls-3,.cls-6,.cls-7{fill:none;stroke-miterlimit:10;}.cls-2,.cls-3{stroke:#fff;stroke-width:3px;}.cls-3{stroke-dasharray:12.1 12.1;}.cls-4{fill:#232f8f;}.cls-5{fill:#ea4f3d;}.cls-6,.cls-7{stroke:#e9e9e9;}.cls-6{stroke-width:7.8px;}.cls-7{stroke-width:6.58px;}.cls-8{font-size:49.28px;fill:#fff;font-family:MontserratAlternates-Bold, Montserrat Alternates;font-weight:700;}</style></defs><title>picto-snippets</title><circle class="cls-1" cx="250" cy="250" r="218"/><line class="cls-2" x1="129.5" y1="117" x2="129.5" y2="123"/><line class="cls-3" x1="129.5" y1="135.1" x2="129.5" y2="370.95"/><line class="cls-2" x1="129.5" y1="377" x2="129.5" y2="383"/><line class="cls-2" x1="209.5" y1="117" x2="209.5" y2="123"/><line class="cls-3" x1="209.5" y1="135.1" x2="209.5" y2="370.95"/><line class="cls-2" x1="209.5" y1="377" x2="209.5" y2="383"/><line class="cls-2" x1="289.5" y1="117" x2="289.5" y2="123"/><line class="cls-3" x1="289.5" y1="135.1" x2="289.5" y2="370.95"/><line class="cls-2" x1="289.5" y1="377" x2="289.5" y2="383"/><line class="cls-2" x1="369.5" y1="117" x2="369.5" y2="123"/><line class="cls-3" x1="369.5" y1="135.1" x2="369.5" y2="370.95"/><line class="cls-2" x1="369.5" y1="377" x2="369.5" y2="383"/><line class="cls-2" x1="117" y1="200.5" x2="123" y2="200.5"/><line class="cls-3" x1="135.1" y1="200.5" x2="370.95" y2="200.5"/><line class="cls-2" x1="377" y1="200.5" x2="383" y2="200.5"/><line class="cls-2" x1="117" y1="297.5" x2="123" y2="297.5"/><line class="cls-3" x1="135.1" y1="297.5" x2="370.95" y2="297.5"/><line class="cls-2" x1="377" y1="297.5" x2="383" y2="297.5"/><rect class="cls-4" x="131.66" y="201.91" width="156" height="94.17"/><rect class="cls-5" x="291.5" y="119.08" width="76" height="79.85"/><line class="cls-6" x1="131.5" y1="313.38" x2="287.5" y2="313.38"/><line class="cls-7" x1="131.99" y1="330.28" x2="243.14" y2="330.28"/><text class="cls-8" transform="translate(167.69 265.16)">css</text></svg>