<svg id="Calque_1" data-name="Calque 1" xmlns="http://www.w3.org/2000/svg" viewBox="0 0 500 500"><defs><style>.cls-1,.cls-6,.cls-7,.cls-8{fill:#1fc2be;}.cls-2,.cls-9{fill:#e9e9e9;}.cls-2,.cls-3,.cls-4{stroke:#232f8f;}.cls-2,.cls-4{stroke-linecap:round;stroke-linejoin:round;}.cls-2{stroke-width:21.24px;}.cls-3,.cls-4{fill:none;}.cls-3,.cls-6,.cls-7,.cls-8{stroke-miterlimit:10;}.cls-3{stroke-width:24.24px;}.cls-4{stroke-width:14.92px;}.cls-5{fill:#fff;}.cls-6{stroke:#0b1248;stroke-width:6.53px;}.cls-7,.cls-8{stroke:#ea4f3d;}.cls-7{stroke-width:4.85px;}.cls-8{stroke-width:3.51px;}</style></defs><title>picto-snippets</title><circle class="cls-1" cx="250" cy="250" r="218"/><rect class="cls-2" x="130.2" y="172" width="239.61" height="148.69" rx="7.87" ry="7.87"/><line class="cls-3" x1="250" y1="322.57" x2="250" y2="358"/><line class="cls-4" x1="200.59" y1="358" x2="298.48" y2="358"/><rect class="cls-5" x="177.28" y="182.72" width="146.38" height="126.8"/><line class="cls-6" x1="189.4" y1="207.43" x2="252.8" y2="207.43"/><line class="cls-7" x1="189.4" y1="227.47" x2="265.85" y2="227.47"/><line class="cls-7" x1="189.4" y1="238.66" x2="265.85" y2="238.66"/><line class="cls-7" x1="189.4" y1="249.85" x2="265.85" y2="249.85"/><line class="cls-7" x1="189.4" y1="261.04" x2="265.85" y2="261.04"/><line class="cls-8" x1="271.44" y1="280.15" x2="311.53" y2="280.15"/><line class="cls-8" x1="271.44" y1="288.08" x2="311.53" y2="288.08"/><line class="cls-8" x1="271.44" y1="296.47" x2="311.53" y2="296.47"/><line class="cls-8" x1="271.44" y1="304.86" x2="311.53" y2="304.86"/><rect class="cls-9" x="271.91" y="224.21" width="40.09" height="40.09"/><rect class="cls-9" x="189.4" y="278.75" width="76.45" height="30.77"/></svg>