<svg id="Calque_1" data-name="Calque 1" xmlns="http://www.w3.org/2000/svg" viewBox="0 0 500 500"><defs><style>.cls-1{fill:#1fc2be;}.cls-2,.cls-3{fill:#232f8f;}.cls-2{opacity:0.4;}.cls-4{fill:none;stroke:#fff;stroke-miterlimit:10;stroke-width:6px;}.cls-5{fill:#fff;}</style></defs><title>picto-snippets</title><circle class="cls-1" cx="250" cy="250" r="218"/><rect class="cls-2" x="208.17" y="174.45" width="157.55" height="157.55" transform="translate(263.1 -128.73) rotate(45)"/><rect class="cls-3" x="160.17" y="174.45" width="157.55" height="157.55"/><path class="cls-4" d="M348.86,326.51c4.54,27.94-6.92,46.47-39.83,37.22"/><polygon class="cls-5" points="341.13 340.2 349.16 328.26 361.1 336.3 359.44 327.82 347.5 319.79 339.47 331.72 341.13 340.2"/><polygon class="cls-5" points="323.51 357.62 310.73 364.24 317.36 377.01 309.13 374.4 302.51 361.63 315.28 355.01 323.51 357.62"/><path class="cls-4" d="M132.46,183.41c-4.54-27.93,6.92-46.47,39.82-37.22"/><polygon class="cls-5" points="140.19 169.72 132.16 181.66 120.22 173.62 121.88 182.1 133.81 190.13 141.84 178.2 140.19 169.72"/><polygon class="cls-5" points="157.81 152.3 170.58 145.69 163.96 132.91 172.19 135.52 178.81 148.29 166.04 154.91 157.81 152.3"/></svg>