<?xml version="1.0" standalone="no"?>
<!DOCTYPE svg PUBLIC "-//W3C//DTD SVG 20010904//EN"
 "http://www.w3.org/TR/2001/REC-SVG-20010904/DTD/svg10.dtd">
<svg version="1.0" xmlns="http://www.w3.org/2000/svg"
 width="538.000000pt" height="538.000000pt" viewBox="0 0 538.000000 538.000000"
 preserveAspectRatio="xMidYMid meet">
<metadata>
Created by potrace 1.11, written by Peter Selinger 2001-2013
</metadata>
<g transform="translate(0.000000,538.000000) scale(0.100000,-0.100000)"
fill="#000000" stroke="none">
<path d="M1521 4279 c-45 -14 -105 -55 -119 -82 -7 -12 -14 -40 -17 -62 -3
-22 -7 -53 -9 -70 -2 -16 -7 -61 -10 -100 -4 -38 -9 -86 -11 -105 -2 -19 -7
-62 -10 -95 -3 -33 -8 -71 -10 -85 -16 -106 -18 -117 -30 -250 -3 -36 -8 -85
-10 -110 -17 -169 -26 -618 -13 -677 30 -151 137 -355 227 -434 71 -64 132
-89 211 -86 108 5 165 47 239 179 57 100 68 185 40 286 -16 56 -40 72 -111 72
-52 0 -86 15 -89 38 0 4 -2 16 -5 27 -13 64 -17 230 -19 750 -1 319 -5 596 -9
615 -12 64 -56 140 -95 166 -43 28 -102 37 -150 23z"/>
<path d="M831 4044 c-89 -23 -187 -82 -258 -153 -110 -112 -235 -291 -300
-431 -47 -101 -76 -168 -95 -220 -11 -30 -22 -62 -25 -70 -3 -8 -7 -19 -9 -25
-2 -5 -17 -55 -34 -110 -25 -83 -59 -228 -95 -415 -11 -57 -14 -440 -4 -505
36 -231 103 -372 239 -505 155 -152 325 -219 476 -188 91 18 207 83 284 160
79 78 175 218 242 353 51 100 55 115 64 208 8 86 -7 133 -45 142 -62 13 -128
-40 -201 -160 -52 -86 -169 -245 -224 -304 -37 -40 -94 -67 -159 -76 -86 -12
-109 18 -149 197 -20 89 -23 131 -23 303 0 179 6 301 19 360 16 76 34 136 99
335 78 238 140 379 211 483 75 109 176 229 263 312 74 70 85 85 90 122 5 35 1
48 -23 81 -30 40 -71 77 -114 101 -33 19 -163 22 -229 5z"/>
<path d="M2851 3839 c-81 -17 -85 -77 -17 -224 66 -141 74 -178 81 -370 4 -93
8 -217 11 -275 2 -58 6 -222 9 -365 7 -368 13 -464 30 -515 31 -92 136 -200
194 -200 40 0 89 35 106 76 8 20 13 39 11 41 -2 3 0 18 5 35 24 84 38 259 44
528 6 281 8 296 35 357 21 48 196 300 244 351 65 70 220 165 289 178 83 14
147 66 147 118 0 64 -91 140 -182 152 -112 15 -349 -115 -501 -275 -37 -39
-72 -69 -77 -66 -5 3 -16 30 -24 60 -43 146 -205 374 -278 390 -46 11 -91 12
-127 4z"/>
<path d="M4206 3404 c-127 -25 -434 -139 -473 -176 -29 -27 -30 -75 -4 -126
32 -62 62 -83 128 -89 50 -5 77 1 195 40 75 24 140 42 146 38 21 -13 30 -295
14 -401 -7 -40 -10 -45 -32 -43 -110 10 -224 9 -277 -2 -122 -26 -242 -114
-345 -253 -24 -31 -50 -65 -59 -74 -29 -34 -92 -171 -105 -231 -11 -55 -12
-187 -1 -232 50 -207 153 -328 314 -369 114 -29 253 36 467 218 61 53 81 65
87 53 8 -13 26 -83 35 -137 8 -47 63 -146 104 -187 57 -58 139 -97 189 -89 49
8 121 48 170 95 36 35 352 503 453 671 51 86 128 243 154 316 24 68 13 136
-27 177 -40 39 -78 32 -139 -27 -25 -24 -59 -51 -76 -60 -49 -24 -101 -92
-156 -204 -28 -57 -93 -172 -145 -255 -113 -181 -124 -192 -144 -139 -20 51
-88 330 -93 384 -3 29 -8 67 -11 83 -19 107 -22 128 -30 199 -4 32 -9 70 -11
84 -6 30 -11 83 -19 202 -3 47 -8 99 -10 115 -3 17 -7 55 -10 85 -16 169 -22
191 -78 272 -47 70 -97 85 -211 62z m10 -1015 c29 -32 30 -140 1 -199 -25 -51
-179 -210 -228 -235 -18 -10 -58 -20 -91 -22 l-58 -6 -15 36 c-20 49 -19 96 6
170 35 105 93 176 184 224 103 54 171 65 201 32z"/>
<path d="M2230 3285 c-90 -22 -278 -96 -284 -112 -10 -24 28 -95 68 -130 46
-41 80 -45 179 -24 72 16 139 16 166 1 19 -10 21 -18 17 -63 -6 -57 -14 -181
-21 -297 -7 -114 -15 -249 -20 -310 -3 -30 -7 -102 -10 -160 -3 -57 -8 -106
-10 -109 -4 -3 -84 8 -170 25 -211 41 -443 -65 -571 -262 -113 -175 -105 -427
18 -555 88 -91 267 -188 358 -193 53 -4 170 31 234 68 25 15 70 52 98 83 81
87 101 104 112 100 6 -2 23 -27 38 -56 56 -111 145 -157 283 -147 83 6 109 19
164 82 47 53 77 105 100 170 11 33 29 84 40 114 10 30 22 87 25 125 11 128
-28 200 -93 172 -33 -14 -89 -65 -97 -89 -5 -18 -42 -43 -50 -35 -8 8 -14 168
-13 352 1 94 1 244 2 335 0 150 -11 452 -18 491 -2 9 -6 40 -10 70 -7 56 -46
182 -72 234 -36 72 -120 119 -199 113 -16 -1 -35 1 -42 6 -22 13 -166 14 -222
1z m-21 -1446 c53 -18 81 -39 81 -61 0 -44 -116 -236 -170 -281 -27 -23 -86
-47 -116 -47 -40 0 -86 86 -90 169 -8 181 120 277 295 220z"/>
</g>
</svg>
