<?xml version="1.0" encoding="utf-8"?>
<!-- Generator: Adobe Illustrator 23.0.1, SVG Export Plug-In . SVG Version: 6.00 Build 0)  -->
<svg version="1.1" id="Calque_1" xmlns="http://www.w3.org/2000/svg" xmlns:xlink="http://www.w3.org/1999/xlink" x="0px" y="0px"
	 viewBox="0 0 1453.4 1080" style="enable-background:new 0 0 1453.4 1080;" xml:space="preserve">
<style type="text/css">
	.st0{fill:#FFFFFF;}
</style>
<title>pictos</title>
<g>
	<path class="st0" d="M192,396.1c-2.2,0-4-1.8-4-4v-89.6c0-2.2,1.8-4,4-4s4,1.8,4,4v89.6C196,394.3,194.2,396.1,192,396.1z"/>
	<path class="st0" d="M192,351.4c-2.2,0-4-1.8-4-4s1.8-4,4-4c21.6,0,29.8-15.5,32.8-24.8c10.1-31.4-9.1-66.6-32.8-84.8
		c-13.9,9.8-40.6,33.6-38.7,69.9c0.9,17.5,8.3,29.2,14.8,32.7c1.9,1,2.7,3.5,1.6,5.4c-1,1.9-3.5,2.7-5.4,1.6
		c-10.5-5.6-18.2-21.4-19.1-39.4c-0.6-13.8,2.4-27.5,8.8-39.7c7.6-15,19.7-28,35.8-38.8c1.4-0.9,3.2-0.9,4.6,0.1
		c16.3,11.5,28.8,27.7,35.7,46.5c6.2,17,7,34.4,2.3,48.9C226.2,340.3,211.4,351.4,192,351.4z"/>
	<path class="st0" d="M419.5,332.2c-6.4,0-12.7-1.6-18.2-4.6c-15.4-8.4-23.4-27-20.3-47.4c0.3-2.2,2.4-3.7,4.6-3.4
		c2.2,0.3,3.7,2.4,3.4,4.6c-2.6,17,3.8,32.4,16.2,39.2c8.4,4.5,18.5,4.8,28.4,0.7c10.3-4.2,19.2-12.4,25-23.2
		c12-21.9,7.4-47.6-10.1-57.1c-5.4-2.9-11.5-4.1-17.5-3.5c-2.2,0.2-4.2-1.4-4.4-3.6s1.4-4.2,3.6-4.4c7.6-0.8,15.3,0.8,22.1,4.4
		c21.4,11.7,27.4,42.2,13.3,68c-6.7,12.4-17,21.9-29,26.8C431.2,331,425.4,332.2,419.5,332.2z"/>
	<path class="st0" d="M369.7,395.8c-4.4,0-8.5-2.2-10.8-6c-3.1-5-2.8-11.8,1-18.7l0.1-0.1l23.9-41c1.8-5.4,2.2-11.2,1.1-18.8
		c-0.3-2.2,1.2-4.2,3.4-4.5c2.2-0.3,4.2,1.2,4.5,3.4c1.2,9,0.7,16.3-1.6,22.9c-0.1,0.2-0.2,0.5-0.3,0.7L366.9,375
		c-2.3,4.2-2.7,8.1-1.2,10.6c0.9,1.4,2.5,2.3,4.2,2.2c3-0.1,6.1-2.6,8.3-6.8c3-5.6,8.1-14.9,13.1-23.8c3.6-6.5,7-12.6,9.5-17.1
		c3.4-6.2,9.9-10.2,18.7-14.3c2-0.9,4.4-0.1,5.3,1.9s0.1,4.4-1.9,5.3c-8.7,4.1-13,7.2-15.1,10.9c-2.5,4.5-5.9,10.6-9.5,17.1
		c-5,8.9-10.1,18.1-13,23.7c-3.6,6.8-9.1,10.8-15.1,11L369.7,395.8z"/>
	<path class="st0" d="M396.1,268.5c-12,0-21.7-9.7-21.7-21.7c0-12,9.7-21.7,21.7-21.7c12,0,21.7,9.7,21.7,21.7c0,0,0,0,0,0
		C417.8,258.8,408.1,268.5,396.1,268.5z M396.1,233.2c-7.5,0-13.7,6.1-13.7,13.7s6.1,13.7,13.7,13.7c7.5,0,13.7-6.1,13.7-13.7
		C409.8,239.3,403.7,233.2,396.1,233.2z"/>
	<path class="st0" d="M1033.7,355.7H928.5c-2.2,0-4-1.8-4-4v-82.9c0-2.2,1.8-4,4-4h122.3c2.2,0,4,1.8,4,4v57.5c0,2.2-1.8,4-4,4
		s-4-1.8-4-4v-53.5H932.5v74.9h101.2c2.2,0,4,1.8,4,4S1035.9,355.6,1033.7,355.7L1033.7,355.7z"/>
	<path class="st0" d="M1014,379.4c-2.2,0-4-1.8-4-4s1.8-4,4-4c3.5,0,5.9-1.2,9-2.8l0.5-0.3c2-1,4.4-0.2,5.4,1.8c1,2,0.2,4.4-1.8,5.4
		l0,0l-0.5,0.3C1023.2,377.5,1019.3,379.4,1014,379.4z"/>
	<path class="st0" d="M962.3,330.2c-2.2,0-4-1.8-4-4v-25.4h-7v21.1c0,2.2-1.8,4-4,4h-18.8c-2.2,0-4-1.8-4-4s1.8-4,4-4h14.8v-21.1
		c0-2.2,1.8-4,4-4h15c2.2,0,4,1.8,4,4v24.4l22-4.9l18.1-10.5c0.6-0.3,1.3-0.5,2-0.5l18.2,0.1c2.2,0,4,1.8,4,4s-1.8,4-4,4l0,0
		l-17.2-0.1l-17.7,10.2c-0.4,0.2-0.7,0.4-1.1,0.4l-27.5,6.1C962.8,330.2,962.6,330.2,962.3,330.2z"/>
	<path class="st0" d="M986,300.8c-5.6,0-10.1-4.5-10.1-10.1s4.5-10.1,10.1-10.1c5.6,0,10.1,4.5,10.1,10.1
		C996.1,296.3,991.6,300.8,986,300.8z M986,288.6c-1.2,0-2.1,0.9-2.1,2.1s0.9,2.1,2.1,2.1c1.2,0,2.1-0.9,2.1-2.1
		C988.1,289.5,987.1,288.6,986,288.6z"/>
	<path class="st0" d="M1013.2,379.4c-5.6,0-10.2-2.1-14.2-4c-3.6-1.7-6.8-3.1-10.3-3.1c-5,0-8.2,1.6-11.6,3.4s-7.2,3.7-12.6,3.7
		c-5.6,0-10.1-2-14.1-3.9c-3.7-1.6-6.8-3-10.4-3c-2.1,0-5.3,1.4-8.4,2.7c-6.7,2.8-15.1,6.4-21.7,0.4s-4.1-13.1-2.2-18.4
		c0.9-2.1,1.4-4.3,1.6-6.6c0-1.7-1-3.7-2-5.8c-1.5-3-3.1-6.4-3.1-10.5c0-5.4,2-9.2,3.7-12.6s3.4-6.5,3.4-11.5
		c0-3.6-1.5-6.7-3.1-10.4c-1.9-4-4-8.6-4-14.2c0-4.4,1.9-7.6,3.4-10.1c1.2-2.1,2-3.5,2-5.2c-0.2-2.2-0.8-4.4-1.6-6.5
		c-1.8-5.3-4.4-12.5,2.2-18.4s14.9-2.4,21.7,0.4c3.1,1.3,6.3,2.7,8.4,2.7c3.6,0,6.7-1.4,10.4-3.1c4-1.8,8.6-3.9,14.1-3.9
		c5.4,0,9.2,2,12.6,3.7s6.5,3.4,11.6,3.4c3.6,0,6.7-1.4,10.3-3.1c4-1.9,8.6-4,14.2-4c5.4,0,9.2,1.9,12.6,3.6s6.5,3.3,11.6,3.3
		c2.1,0,5.4-1.4,8.6-2.8c6.9-2.9,15.4-6.6,22-0.6s4,13.1,2.2,18.4c-0.9,2.1-1.4,4.3-1.7,6.6c0,1.7,0.8,3,2,5.2
		c1.5,2.5,3.3,5.7,3.3,10.1c0,5.6-2.1,10.2-4,14.2c-1.7,3.6-3.1,6.8-3.1,10.4c0,5,1.6,8.2,3.4,11.5s3.7,7.2,3.7,12.6
		c0,4.1-1.7,7.5-3.1,10.5c-1.1,2.1-2,4.2-2,5.8c0.2,2.3,0.7,4.5,1.5,6.7c1.7,5.5,4.1,12.9-2.4,18.9s-15.1,2.3-22-0.6
		c-3.2-1.4-6.5-2.8-8.6-2.8c-5,0-8.2,1.6-11.6,3.3C1022.4,377.5,1018.5,379.4,1013.2,379.4z M988.6,364.3c5.3,0,9.8,2,13.7,3.9
		c3.6,1.7,7,3.2,10.8,3.2c3.5,0,5.9-1.2,9-2.8c3.9-1.9,8.2-4.1,15.2-4.1c3.7,0,7.6,1.6,11.7,3.4c6.5,2.8,10.9,4.4,13.5,2
		s2-4.8,0.2-10.5c-1.1-2.9-1.7-6-1.9-9.1c0-3.5,1.4-6.5,2.8-9.4c1.2-2.4,2.3-4.7,2.3-7c0-3.5-1.2-5.9-2.8-9c-2-3.9-4.3-8.3-4.3-15.2
		c0-5.3,2.1-9.8,3.9-13.7c1.7-3.6,3.2-7,3.2-10.8c0-2.2-1-3.9-2.2-6.1c-1.4-2.5-3.1-5.3-3.1-9.2c0.2-3.2,0.9-6.3,2.1-9.2
		c1.9-5.4,2.4-7.6,0-9.8c-2.6-2.3-7-0.7-13.5,2c-4.1,1.8-8,3.4-11.7,3.4c-6.9,0-11.3-2.2-15.2-4.1c-3.1-1.6-5.5-2.8-9-2.8
		c-3.8,0-7.2,1.6-10.8,3.2c-3.9,1.8-8.4,3.9-13.7,3.9c-7,0-11.3-2.3-15.2-4.3c-3.1-1.6-5.5-2.8-9-2.8c-3.8,0-7.3,1.5-10.9,3.1
		c-3.9,1.8-8.4,3.8-13.7,3.8c-3.7,0-7.5-1.6-11.5-3.3c-6.3-2.6-10.6-4.2-13.2-1.9c-2.4,2.2-1.9,4.5,0,9.9c1,2.9,2.1,5.9,2.1,9.1
		c0,3.9-1.7,6.7-3.1,9.2c-1.2,2.1-2.2,3.8-2.2,6c0,3.8,1.6,7.2,3.2,10.8c1.8,3.9,3.9,8.4,3.9,13.7c0,7-2.3,11.4-4.3,15.2
		c-1.6,3.1-2.8,5.5-2.8,9c0,2.3,1.1,4.6,2.3,7c1.4,2.9,2.8,5.9,2.8,9.4c-0.2,3.2-0.9,6.3-2.1,9.2c-1.9,5.4-2.4,7.6,0,9.8
		c2.6,2.4,6.9,0.8,13.2-1.9c4-1.7,7.8-3.3,11.5-3.3c5.3,0,9.8,2,13.7,3.8c3.6,1.6,7,3.1,10.9,3.1c3.5,0,5.9-1.2,9-2.8
		C977.3,366.6,981.7,364.3,988.6,364.3z"/>
	<path class="st0" d="M1248.1,364.2c-2.2,0-4-1.8-4-4v-98.8c0-2.2,1.8-4,4-4s4,1.8,4,4v98.8C1252.1,362.4,1250.3,364.2,1248.1,364.2
		z"/>
	<path class="st0" d="M1202.1,280c-7.5,0-13.6-6.1-13.6-13.6c0-7.5,6.1-13.6,13.6-13.6c7.5,0,13.6,6.1,13.6,13.6c0,0,0,0,0,0
		C1215.7,273.9,1209.6,280,1202.1,280z M1202.1,260.8c-3.1,0-5.6,2.5-5.6,5.6c0,3.1,2.5,5.6,5.6,5.6c3.1,0,5.6-2.5,5.6-5.6
		c0,0,0,0,0,0C1207.7,263.3,1205.2,260.9,1202.1,260.8L1202.1,260.8z"/>
	<path class="st0" d="M1230.7,303.6c-1.2,0-2.2-0.5-3-1.4c-5.9-6.7-15.1-10.5-25.4-10.6h-0.2c-10.3,0-19.6,3.9-25.7,10.6
		c-1.5,1.7-4,1.8-5.7,0.3c-1.7-1.5-1.8-4-0.3-5.7c7.6-8.5,19.1-13.3,31.6-13.3h0.3c12.6,0.1,24,4.9,31.4,13.3
		c1.5,1.7,1.3,4.2-0.4,5.6C1232.6,303.3,1231.7,303.6,1230.7,303.6L1230.7,303.6z"/>
	<path class="st0" d="M1218.5,340.6h-36.2c-1.2,0-2.4-0.6-3.2-1.5c-0.8-1-1-2.2-0.7-3.4l11.8-48c0.5-2.1,2.7-3.5,4.8-2.9
		c2.1,0.5,3.5,2.7,2.9,4.8l0,0l-10.6,43.1h31.1c2.2,0,4,1.8,4,4S1220.7,340.6,1218.5,340.6L1218.5,340.6z"/>
	<path class="st0" d="M1219.2,327.2c-1.8,0-3.3-1.2-3.8-2.9l-9.9-34.7c-0.6-2.1,0.5-4.3,2.6-5s4.3,0.5,5,2.6c0,0.1,0,0.1,0,0.2
		l9.9,34.7c0.6,2.1-0.6,4.3-2.7,4.9c0,0,0,0,0,0C1220,327.2,1219.6,327.2,1219.2,327.2z"/>
	<path class="st0" d="M1193.9,368.1c-2.2,0-4-1.8-4-4v-27c0-2.2,1.8-4,4-4s4,1.8,4,4v27C1197.9,366.3,1196.1,368.1,1193.9,368.1z"/>
	<path class="st0" d="M1210.3,368.1c-2.2,0-4-1.8-4-4v-27c0-2.2,1.8-4,4-4s4,1.8,4,4v27C1214.3,366.3,1212.5,368.1,1210.3,368.1z"/>
	<path class="st0" d="M1290.5,280.6c-7.5,0-13.6-6.1-13.6-13.6c0-7.5,6.1-13.6,13.6-13.6c7.5,0,13.6,6.1,13.6,13.6c0,0,0,0,0,0
		C1304,274.5,1297.9,280.6,1290.5,280.6z M1290.5,261.4c-3.1,0-5.6,2.5-5.6,5.6s2.5,5.6,5.6,5.6c3.1,0,5.6-2.5,5.6-5.6c0,0,0,0,0,0
		C1296,263.9,1293.5,261.4,1290.5,261.4z"/>
	<path class="st0" d="M1298.7,333.4h-16.4c-1.9,0-3.6-1.4-3.9-3.3l-6.3-37.3c-0.3-2.2,1.3-4.2,3.5-4.5c2.1-0.3,4,1.1,4.4,3.1
		l5.8,33.9h13c2.2,0,4,1.8,4,4S1300.8,333.4,1298.7,333.4L1298.7,333.4z"/>
	<path class="st0" d="M1301,320.6c-0.2,0-0.4,0-0.7-0.1c-2.2-0.4-3.6-2.4-3.3-4.6c0,0,0,0,0,0l4-23.6c0.4-2.2,2.4-3.6,4.6-3.3
		c2.2,0.4,3.6,2.4,3.3,4.6l0,0l-4,23.6C1304.6,319.2,1303,320.6,1301,320.6z"/>
	<path class="st0" d="M1282.3,367.9c-2.2,0-4-1.8-4-4v-34.5c0-2.2,1.8-4,4-4s4,1.8,4,4v34.5C1286.3,366.1,1284.5,367.9,1282.3,367.9
		z"/>
	<path class="st0" d="M1298.7,367.9c-2.2,0-4-1.8-4-4v-34.5c0-2.2,1.8-4,4-4s4,1.8,4,4v34.5C1302.7,366.1,1300.9,367.9,1298.7,367.9
		z"/>
	<path class="st0" d="M1320,303.8c-1.1,0-2.2-0.5-3-1.4c-5.8-6.7-15.1-10.6-25.4-10.6h-0.2c-10.3,0-19.6,3.9-25.7,10.6
		c-1.5,1.7-4,1.8-5.7,0.3c-1.7-1.5-1.8-4-0.3-5.7c7.6-8.5,19.1-13.3,31.6-13.3h0.3c12.6,0.1,24,4.9,31.3,13.4
		c1.5,1.7,1.3,4.2-0.4,5.6C1321.9,303.4,1321,303.8,1320,303.8L1320,303.8z"/>
	<path class="st0" d="M190.1,516c-8.6,0-15.5-7-15.5-15.5c0-8.6,7-15.5,15.5-15.5s15.5,7,15.5,15.5c0,0,0,0,0,0
		C205.6,509,198.7,516,190.1,516z M190.1,492.9c-4.2,0-7.5,3.4-7.5,7.5s3.4,7.5,7.5,7.5c4.2,0,7.5-3.4,7.6-7.5c0,0,0,0,0,0
		C197.6,496.3,194.2,493,190.1,492.9L190.1,492.9z"/>
	<path class="st0" d="M161.7,612.2c-2.2,0-4-1.8-4-4c0-0.8,0.2-1.5,0.7-2.2l10.1-15.5l4-21.8c0.4-2.2,2.5-3.6,4.7-3.2
		c2.2,0.4,3.6,2.5,3.2,4.7l0,0l-4.2,22.6c-0.1,0.5-0.3,1-0.6,1.5L165,610.4C164.3,611.5,163.1,612.2,161.7,612.2z"/>
	<path class="st0" d="M220,553.8L220,553.8c-9.3-0.2-21.2-5.8-25.6-17.7c-0.8-2.1,0.3-4.4,2.4-5.1c2.1-0.8,4.4,0.3,5.1,2.4
		c3.3,9,12.7,12.4,18.2,12.5c2.2,0,4,1.8,4,4C224,552,222.2,553.8,220,553.8z"/>
	<path class="st0" d="M211.1,612.1c-2,0-3.8-1.5-4-3.5l-2.6-20.6l-14.1-14.4h-14.1c-2.2,0-4-1.8-4-4c0-0.1,0-0.3,0-0.4l4-39.2
		c-9,3.6-12.4,13.2-11.9,19.9c0.2,2.2-1.5,4.1-3.7,4.3s-4.1-1.5-4.3-3.7c-0.9-11,6-27.6,23.9-29.7c1.3-0.1,2.6,0.3,3.5,1.3
		c0.8,0.8,1.1,2,1,3.1l-4.1,40.5h11.4c1.1,0,2.1,0.4,2.9,1.2l16.2,16.6c0.6,0.6,1,1.4,1.1,2.3l2.7,21.9c0.3,2.2-1.3,4.2-3.5,4.5
		c0,0,0,0,0,0C211.4,612.1,211.3,612.1,211.1,612.1z"/>
	<path class="st0" d="M467.6,604.7c-19.4,0-35.2-15.8-35.1-35.3c0-19.4,15.8-35.2,35.3-35.1c19.4,0,35.2,15.8,35.1,35.3
		c0,2.9-0.4,5.9-1.1,8.7c-0.6,2.1-2.7,3.4-4.9,2.9s-3.4-2.7-2.9-4.9c3.8-14.5-4.9-29.4-19.5-33.2c-14.5-3.8-29.4,4.9-33.2,19.5
		c-3.8,14.5,4.9,29.4,19.5,33.2c6.3,1.6,12.9,1,18.7-1.8c2-1,4.4-0.1,5.4,1.8c1,2,0.1,4.4-1.9,5.4
		C478.2,603.5,472.9,604.8,467.6,604.7z"/>
	<path class="st0" d="M362.5,604.7c-19.5,0-35.2-15.8-35.2-35.2c0-19.5,15.8-35.2,35.2-35.2c19.5,0,35.2,15.8,35.2,35.2c0,0,0,0,0,0
		C397.7,589,382,604.7,362.5,604.7z M362.5,542.3c-15,0-27.2,12.2-27.2,27.2c0,15,12.2,27.2,27.2,27.2c15,0,27.2-12.2,27.2-27.2l0,0
		C389.8,554.5,377.6,542.3,362.5,542.3z"/>
	<path class="st0" d="M362.5,573.5c-0.6,0-1.3-0.2-1.9-0.5c-2-1-2.7-3.4-1.7-5.4c0,0,0,0,0,0l38.1-73.1c0.7-1.3,2.1-2.2,3.5-2.1
		h18.1c2.2,0,4,1.8,4,4s-1.8,4-4,4H403l-36.9,71C365.4,572.7,364,573.5,362.5,573.5z"/>
	<path class="st0" d="M368.4,572.6c-1.7,3.2-5.7,4.5-8.9,2.8c-3.2-1.7-4.5-5.7-2.8-8.9s5.7-4.5,8.9-2.8c0,0,0,0,0,0
		C368.8,565.3,370.1,569.3,368.4,572.6C368.4,572.6,368.4,572.6,368.4,572.6z"/>
	<path class="st0" d="M467.6,573.5h-49.2c-1.4,0-2.6-0.7-3.4-1.8l-31-47.7c-1.2-1.9-0.7-4.3,1.2-5.5c1.9-1.2,4.3-0.7,5.5,1.2
		l29.8,45.8h47.1c2.2,0,4,1.8,4,4S469.8,573.5,467.6,573.5L467.6,573.5z"/>
	<path class="st0" d="M467.6,562.9c3.7,0,6.6,3,6.6,6.6s-3,6.6-6.6,6.6s-6.6-3-6.6-6.6l0,0C460.9,565.9,463.9,562.9,467.6,562.9z"/>
	<path class="st0" d="M415.8,569.7c-0.4,0-0.8-0.1-1.2-0.2c-2.1-0.7-3.2-2.9-2.6-5l13.3-40.8c0.7-2.1,2.9-3.2,5-2.6s3.2,2.9,2.6,5
		l0,0L419.6,567C419.1,568.6,417.6,569.7,415.8,569.7z"/>
	<path class="st0" d="M418.7,528.8c-2.2,0.1-4.1-1.6-4.2-3.8c-0.1-2.2,1.6-4.1,3.8-4.2l23.3-2c2.2-0.2,4.1,1.5,4.3,3.7
		c0.2,2.2-1.5,4.2-3.7,4.3l-23.3,2H418.7z"/>
	<path class="st0" d="M755.2,545.4c-0.4,0-0.8-0.1-1.2-0.2l-16-5c-2.1-0.6-3.3-2.8-2.7-5c0.6-2.1,2.8-3.3,5-2.7c0,0,0.1,0,0.1,0
		l12.4,3.8l4.8-12.8l-22.2-12.8c-0.8-0.4-1.4-1.2-1.7-2l-4.1-10.7l-22.7,37.3c-0.7,1.2-2,1.9-3.4,1.9h-62.8c-1.1,0-2.2-0.5-3-1.3
		l-15.9-17.4c-1.5-1.6-1.4-4.2,0.2-5.7c1.6-1.5,4.2-1.4,5.7,0.2l14.8,16.1h58.8L727,487c1.1-1.9,3.6-2.5,5.5-1.3
		c0.8,0.5,1.3,1.2,1.7,2l6.5,17l23.8,13.8c1.7,1,2.4,3,1.8,4.9l-7.3,19.5C758.4,544.3,756.9,545.4,755.2,545.4z"/>
	<path class="st0" d="M718.3,612.1h-16c-2.2,0-4-1.8-4-4l-0.1-29.7h-31.3l-9.8,13v16.7c0,2.2-1.8,4-4,4h-16.6c-2.2,0-4-1.8-4-4
		v-21.7c0-0.6,0.2-1.3,0.5-1.9l6.7-12.8v-23.2c0-2.2,1.8-4,4-4s4,1.8,4,4v24.2c0,0.6-0.2,1.3-0.5,1.9l-6.7,12.8v16.7h8.6v-14
		c0-0.9,0.3-1.7,0.8-2.4l11.8-15.6c0.8-1,1.9-1.6,3.2-1.6h37.3c2.2,0,4,1.8,4,4l0.1,29.7h8v-31.4c0-0.6,0.1-1.2,0.4-1.8l10.4-21.3
		c1-2,3.4-2.8,5.3-1.8c2,1,2.8,3.4,1.8,5.3l0,0l-10,20.5v34.4C722.3,610.3,720.5,612.1,718.3,612.1z"/>
	<path class="st0" d="M693.6,352.7c-2.2,0-4-1.8-4-4v-86.6c-14.2-7.2-31.5-4.5-46.9-2.2c-7.3,1.1-14.3,2.2-20.3,2.1v80.3
		c6.5-0.2,13.5-0.9,20.2-1.6c6-0.6,12.3-1.2,18.3-1.5c2.2-0.1,4.1,1.6,4.2,3.8c0.1,2.2-1.6,4.1-3.8,4.2c-5.8,0.3-11.9,0.9-17.9,1.5
		c-8.4,0.9-17,1.7-25,1.7c-2.2,0-4-1.8-4-4v-88.7c0-2.2,1.7-4,4-4c0.2,0,0.4,0,0.6,0c5.8,0.9,13.9-0.4,22.5-1.7
		c16.6-2.6,37.2-5.8,54.2,4.2c1.2,0.7,2,2,2,3.5v89C697.7,350.9,695.9,352.7,693.6,352.7C693.7,352.7,693.6,352.7,693.6,352.7z"/>
	<path class="st0" d="M693.6,352.7c-0.7,0-1.3-0.2-1.9-0.5c-1.3-0.7-2.1-2-2.1-3.5v-89c0-1.4,0.8-2.7,2-3.5c17-10,37.6-6.8,54.2-4.2
		c8.6,1.3,16.7,2.6,22.5,1.7c2.2-0.3,4.2,1.2,4.5,3.4c0,0.2,0,0.4,0,0.6v88.7c0,2.2-1.8,4-4,4c-8,0-16.7-0.9-25-1.7
		c-18.2-1.8-37-3.7-48.1,3.4C695.2,352.6,694.4,352.8,693.6,352.7z M719.5,339c8.1,0,16.7,0.9,25.2,1.7c6.8,0.7,13.7,1.4,20.2,1.6
		v-80.3c-6.1,0.1-13-1-20.3-2.1c-15.4-2.4-32.7-5.1-46.9,2.2v80.2C704.1,339.8,711.5,339,719.5,339z"/>
	<path class="st0" d="M692.3,371.5c-4.1,0.1-8.2-1-11.8-3c-2.9-1.6-5.1-4.2-6.2-7.4c-6.5,0-17.8,1.3-27.8,2.4
		c-11.4,1.2-22.2,2.4-28.2,2.3c-2.2-0.1-4-1.9-3.9-4.1s1.9-4,4.1-3.9c5.5,0.1,16.5-1.1,27.2-2.2c13.4-1.5,26.1-2.9,32.5-2.3
		c2.1,0.2,3.6,1.9,3.6,4c0,0.6,0,2.6,2.8,4.3c4.2,2.4,11.2,2.5,15.4,0.1c3-1.7,3-3.9,3-4.5c0-2,1.4-3.7,3.4-4
		c10.2-1.6,29.5,0,45,1.3c7.6,0.6,14.1,1.2,17.6,1.2c2.2,0,4,1.8,4,4s-1.8,4-4,4c-3.8,0-10.5-0.6-18.3-1.2
		c-12.9-1.1-30.2-2.5-40.2-1.7c-1.1,3.4-3.4,6.2-6.5,7.9C700.3,370.5,696.4,371.5,692.3,371.5z"/>
	<path class="st0" d="M964,611.4c-0.6,0-1.2-0.1-1.8-0.4c-11.4-5.9-20.6-15.4-26.2-27c-0.6,0.1-1.2,0.1-1.8,0.1
		c-9.9-0.2-17.8-8.5-17.6-18.4c0.2-8.5,6.3-15.7,14.6-17.3c4.3-24,23-42.8,46.9-47.3c2.1-0.3,4.1,1.2,4.4,3.3c0.3,2-1,3.8-3,4.3
		c-21.8,4-38.5,21.7-41.1,43.8c-0.2,2-2,3.5-4,3.4h-0.3c-5.6,0-10.2,4.6-10.2,10.2c0,5.6,4.6,10.2,10.2,10.2c1,0,2-0.2,2.9-0.4
		c1.9-0.6,4,0.4,4.7,2.2c4.6,11.2,13,20.4,23.8,26c1.9,1,2.7,3.3,1.7,5.2C966.8,610.6,965.4,611.4,964,611.4L964,611.4z"/>
	<path class="st0" d="M1012.9,612c-2.1,0-3.9-1.7-3.9-3.9c0-1.5,0.9-2.9,2.2-3.5c11.3-5.5,20.2-14.9,24.9-26.5
		c0.8-1.9,2.8-2.8,4.7-2.2c5.4,1.6,11.1-1.4,12.7-6.8c1.6-5.4-1.4-11.1-6.8-12.7c-0.9-0.3-1.9-0.4-2.9-0.4h-0.3
		c-2,0.1-3.8-1.4-4-3.4c-2.3-18.4-14.4-34.1-31.6-41c-2-0.8-3-3.1-2.2-5.1c0.8-2,3.1-3,5-2.2l0,0c18.8,7.5,32.4,24.2,35.9,44.1
		c9.8,1.9,16.2,11.3,14.3,21c-1.6,8.3-8.8,14.4-17.3,14.6c-0.6,0-1.2,0-1.8-0.1c-5.7,12.1-15.4,21.8-27.5,27.7
		C1014.1,611.9,1013.5,612,1012.9,612z"/>
	<circle class="st0" cx="972.5" cy="552" r="5.7"/>
	<circle class="st0" cx="1005.6" cy="552" r="5.7"/>
	<path class="st0" d="M989,612c-14.4,0-26.1-9.4-26.1-20.9s11.7-20.9,26.1-20.9s26.2,9.4,26.2,20.9S1003.5,612,989,612z M989,578
		c-10.1,0-18.4,5.9-18.4,13.1s8.2,13.1,18.4,13.1s18.4-5.9,18.4-13.1S999.2,578,989,578z"/>
	<path class="st0" d="M989,623.1c-9.9,0-17.9-8-17.9-17.9c0-9.9,8-17.9,17.9-17.9c9.9,0,17.9,8,17.9,17.9
		C1006.9,615,998.9,623,989,623.1z M989,595c-5.6,0-10.2,4.6-10.2,10.2c0,5.6,4.6,10.2,10.2,10.2c5.6,0,10.2-4.6,10.2-10.2
		C999.2,599.5,994.6,595,989,595L989,595z"/>
	<path class="st0" d="M983.4,521.4c-2.1,0-3.9-1.8-3.9-3.9c0-1.7,1.1-3.1,2.6-3.6c8.9-3,14.3-16.2,12.9-25.1c-0.8-4.6-3-6.9-6.7-6.9
		c-2.9-0.1-5.3,2.1-5.5,5c0,0.1,0,0.3,0,0.4c-0.1,1,0.3,2,0.9,2.8c0.7,0.7,1.8,1.1,2.8,1c2.1,0,3.9,1.7,3.9,3.9s-1.7,3.9-3.9,3.9
		c-3.3,0.1-6.4-1.2-8.6-3.7c-1.9-2.2-2.9-5-2.9-7.9c-0.1-7.1,5.6-13,12.7-13.1c0.2,0,0.4,0,0.6,0c7.6,0,13,5,14.4,13.5
		c1,6-0.2,13.3-3.2,19.5c-3.4,7.1-8.7,12.1-14.8,14.2C984.2,521.4,983.8,521.4,983.4,521.4z"/>
	<path class="st0" d="M1243.4,511.7c-9.1,0-16.5-7.4-16.5-16.5s7.4-16.5,16.5-16.5c9.1,0,16.5,7.4,16.5,16.5
		C1259.9,504.3,1252.5,511.7,1243.4,511.7z M1243.4,486.4c-4.8,0-8.7,3.9-8.7,8.7s3.9,8.7,8.7,8.7c4.8,0,8.7-3.9,8.7-8.7
		c0,0,0,0,0,0C1252.1,490.4,1248.2,486.4,1243.4,486.4z"/>
	<path class="st0" d="M1281.5,541.4c-9.7,0-21.9-5.1-27.3-16.8c-1.1-1.8-0.5-4.2,1.3-5.3c1.8-1.1,4.2-0.5,5.3,1.3
		c0.1,0.2,0.3,0.5,0.3,0.7c4.1,8.7,13.9,12.7,21.5,12.3c2.1-0.2,4,1.4,4.3,3.5c0.2,2.1-1.4,4-3.5,4.3c-0.1,0-0.2,0-0.3,0
		C1282.6,541.3,1282,541.4,1281.5,541.4z"/>
	<path class="st0" d="M1293,601.2c-1.3,0-2.5-0.6-3.2-1.7l-15.8-23.5h-27c-2,0-3.6-1.5-3.9-3.4l-6.1-49.1c-0.3-2.1,1.2-4.1,3.4-4.4
		s4.1,1.2,4.4,3.4l5.6,45.7h25.6c1.3,0,2.5,0.6,3.2,1.7l17,25.3c1.2,1.8,0.7,4.2-1.1,5.4C1294.5,600.9,1293.8,601.1,1293,601.2
		L1293,601.2z"/>
	<path class="st0" d="M1238.6,618.5c-23.2,0-42-18.9-42-42.2c0-16.7,9.9-31.8,25.3-38.5c2-0.9,4.3,0,5.1,2s0,4.3-2,5.1
		c-17.4,7.6-25.3,27.8-17.8,45.2c7.6,17.4,27.8,25.3,45.2,17.8c5.2-2.3,9.7-5.8,13.2-10.2c1.4-1.6,3.8-1.8,5.5-0.4
		c1.5,1.3,1.8,3.6,0.6,5.3c-7.1,9-17.6,14.7-29,15.8C1241.4,618.4,1240,618.5,1238.6,618.5z"/>
	<path class="st0" d="M190.2,839.3c-33.6,0-60.8-27.2-60.8-60.8c0-33.6,27.2-60.8,60.8-60.8s60.8,27.2,60.8,60.8l0,0
		c0,3.7-0.3,7.3-1,10.9c-0.4,2.1-2.4,3.5-4.5,3.1c-2.1-0.4-3.5-2.4-3.1-4.5l0,0c5.3-28.8-13.8-56.4-42.6-61.7s-56.4,13.8-61.7,42.6
		c-5.3,28.8,13.8,56.4,42.6,61.7c7.7,1.4,15.7,1.1,23.2-0.9c2.1-0.5,4.2,0.9,4.6,3c0.4,2-0.7,3.9-2.6,4.5
		C200.8,838.6,195.5,839.3,190.2,839.3z"/>
	<path class="st0" d="M175.4,797.4c-1,0-2-0.4-2.7-1.1c-1.5-1.5-1.6-4-0.1-5.5c0,0,0,0,0,0l13.7-13.9v-35.5c0.1-2.1,1.9-3.8,4.1-3.7
		c2,0.1,3.6,1.7,3.7,3.7v37.1c0,1-0.4,2-1.1,2.7l-14.8,15.1C177.5,797,176.5,797.4,175.4,797.4z"/>
	<path class="st0" d="M746.7,742.3c-0.7,0-1.4-0.2-2-0.6l-51-31.3l-51,31.3c-1.8,1.1-4.2,0.5-5.3-1.3c-1.1-1.8-0.5-4.2,1.3-5.3l0,0
		l53.1-32.5c1.2-0.8,2.8-0.8,4.1,0l52.9,32.5c1.8,1.1,2.4,3.5,1.3,5.3C749.3,741.6,748.1,742.3,746.7,742.3z"/>
	<path class="st0" d="M676.9,768.4c-7.9,0-14.3-6.4-14.3-14.3c0-7.9,6.4-14.3,14.3-14.3c7.9,0,14.3,6.4,14.3,14.3
		C691.2,762,684.8,768.4,676.9,768.4z M676.9,747.6c-3.6,0-6.5,2.9-6.5,6.5s2.9,6.5,6.5,6.5s6.5-2.9,6.5-6.5l0,0
		C683.4,750.5,680.5,747.6,676.9,747.6L676.9,747.6z"/>
	<path class="st0" d="M651.4,854.9c-2.1,0-3.9-1.7-3.9-3.9c0-0.8,0.2-1.5,0.6-2.1l9.1-13.9l3.6-19.6c0.5-2.1,2.6-3.4,4.7-2.9
		c1.9,0.5,3.2,2.3,3,4.3l-3.7,20.3c-0.1,0.5-0.3,1-0.6,1.4l-9.5,14.6C653.9,854.3,652.7,854.9,651.4,854.9z"/>
	<path class="st0" d="M703.8,802.3L703.8,802.3c-8.5-0.2-19.3-5.3-23.4-16.1c-0.7-2,0.3-4.2,2.3-5c2-0.7,4.2,0.3,5,2.3l0,0
		c3,7.9,11.3,11,16.2,11c2.1,0,3.9,1.8,3.8,3.9C707.7,800.6,705.9,802.3,703.8,802.3L703.8,802.3z"/>
	<path class="st0" d="M695.8,854.9c-2,0-3.6-1.5-3.8-3.4l-2.3-18.5l-12.6-12.8h-12.6c-2.1,0-3.9-1.7-3.9-3.9c0-0.1,0-0.3,0-0.4
		l3.5-34.8c-7.6,3.3-10.5,11.6-10.1,17.4c0.2,2.1-1.4,4-3.6,4.2s-4-1.4-4.2-3.6l0,0c-0.8-10.1,5.5-25.1,21.8-27
		c1.3-0.1,2.5,0.3,3.3,1.2c0.7,0.8,1.1,1.9,1,3l-3.7,36.1h10c1,0,2,0.4,2.8,1.2l14.6,14.9c0.6,0.6,1,1.4,1.1,2.2l2.4,19.8
		c0.3,2.1-1.3,4.1-3.4,4.3L695.8,854.9z"/>
	<path class="st0" d="M719.4,854.7c-7.4,0-13.4-6-13.4-13.4s6-13.4,13.4-13.4c7.4,0,13.4,6,13.4,13.4
		C732.8,848.7,726.8,854.7,719.4,854.7z M719.4,835.7c-3.1,0-5.6,2.5-5.6,5.6s2.5,5.6,5.6,5.6s5.6-2.5,5.6-5.6
		C725.1,838.2,722.6,835.7,719.4,835.7C719.4,835.7,719.4,835.7,719.4,835.7L719.4,835.7z"/>
	<path class="st0" d="M387.3,765.8c-7.9,0-14.3-6.4-14.3-14.3c0-7.9,6.4-14.3,14.3-14.3s14.3,6.4,14.3,14.3
		C401.5,759.4,395.2,765.8,387.3,765.8z M387.3,745.1c-3.6,0-6.5,2.9-6.5,6.5s2.9,6.5,6.5,6.5s6.5-2.9,6.5-6.5
		C393.8,748,390.9,745.1,387.3,745.1z"/>
	<path class="st0" d="M361.7,852.4c-0.8,0-1.5-0.2-2.1-0.6c-1.8-1.2-2.3-3.6-1.1-5.4l9.1-13.9l3.6-19.6c0.5-2.1,2.6-3.4,4.7-2.9
		c1.9,0.5,3.2,2.3,3,4.3l-3.8,20.3c-0.1,0.5-0.3,1-0.6,1.4l-9.5,14.6C364.2,851.7,363,852.4,361.7,852.4z"/>
	<path class="st0" d="M414.2,799.8L414.2,799.8c-8.5-0.2-19.3-5.3-23.3-16.1c-0.7-2,0.3-4.2,2.3-5c2-0.7,4.2,0.3,5,2.3
		c3,7.9,11.3,11,16.1,11c2.1,0.1,3.8,2,3.7,4.1C417.8,798.1,416.2,799.7,414.2,799.8L414.2,799.8z"/>
	<path class="st0" d="M406.2,852.4c-2,0-3.6-1.5-3.9-3.4l-2.3-18.5l-12.6-12.8h-12.6c-2.1,0-3.9-1.7-3.9-3.9c0-0.1,0-0.3,0-0.4
		l3.5-34.8c-7.6,3.3-10.5,11.6-10.1,17.4c0.2,2.1-1.4,4-3.6,4.2s-4-1.4-4.2-3.6l0,0c-0.8-10.1,5.5-25.1,21.8-27
		c2.1-0.3,4.1,1.3,4.3,3.4c0,0.3,0,0.5,0,0.8l-3.6,36.1h10c1,0,2,0.4,2.8,1.2l14.6,14.9c0.6,0.6,1,1.4,1.1,2.2L410,848
		c0.3,2.1-1.3,4.1-3.4,4.3L406.2,852.4z"/>
	<path class="st0" d="M429.8,852.2c-7.4,0-13.4-6-13.4-13.4c0-7.4,6-13.4,13.4-13.4c7.4,0,13.4,6,13.4,13.4
		C443.2,846.2,437.2,852.2,429.8,852.2z M429.8,833.2c-3.1,0-5.6,2.5-5.6,5.6c0,3.1,2.5,5.6,5.6,5.6c3.1,0,5.6-2.5,5.6-5.6
		c0,0,0,0,0,0C435.4,835.7,432.9,833.2,429.8,833.2C429.8,833.1,429.8,833.1,429.8,833.2L429.8,833.2z"/>
	<path class="st0" d="M460.7,748h-42.9c-7,0-12.7-5.7-12.7-12.8c0-4.5,2.4-8.7,6.3-11c0.3-9.1,7.9-16.3,17-16
		c1.9,0.1,3.8,0.4,5.6,1.2c8-7,20.2-6.3,27.3,1.7c3.1,3.5,4.8,7.9,4.8,12.5c6.4,2.9,9.2,10.5,6.3,16.9
		C470.2,745.1,465.7,748,460.7,748z M427.9,716c-4.8,0-8.7,3.9-8.7,8.7c0,0.5,0,0.9,0.1,1.4c0.3,1.9-0.9,3.8-2.8,4.3
		c-2.6,0.9-4.1,3.7-3.2,6.3c0.6,2,2.5,3.4,4.6,3.4h43c2.8-0.2,4.8-2.6,4.6-5.4c-0.2-2.2-1.8-4-4-4.5c-2.1-0.3-3.6-2.3-3.3-4.4
		c0,0,0-0.1,0-0.1c1.1-6.3-3.2-12.2-9.4-13.3c-4.1-0.7-8.3,0.9-10.9,4.1c-1.3,1.5-3.5,1.9-5.1,0.8C431.3,716.5,429.6,716,427.9,716
		L427.9,716z"/>
	<path class="st0" d="M1043.7,855.2c-16.4,0-29.7-13.3-29.7-29.7c0-16.4,13.3-29.7,29.7-29.7c16.4,0,29.7,13.3,29.7,29.7
		c0,2.5-0.3,5-0.9,7.4c-0.6,2.2-2.8,3.5-4.9,2.9c-2.2-0.6-3.5-2.8-2.9-4.9c0.5-1.8,0.7-3.6,0.7-5.4c0-11.9-9.7-21.6-21.6-21.7
		c-11.9,0-21.6,9.7-21.7,21.6c0,11.9,9.7,21.6,21.6,21.7c0,0,0,0,0,0c3.3,0,6.5-0.7,9.5-2.2c2-1,4.4-0.1,5.4,1.9s0.1,4.4-1.9,5.4
		l0,0C1052.7,854.2,1048.2,855.2,1043.7,855.2z"/>
	<path class="st0" d="M957.4,855.2c-16.4,0-29.7-13.3-29.7-29.7s13.3-29.7,29.7-29.7c16.4,0,29.7,13.3,29.7,29.7
		C987.1,841.9,973.8,855.1,957.4,855.2z M957.4,803.8c-11.9,0-21.6,9.7-21.6,21.6s9.7,21.6,21.6,21.6s21.6-9.7,21.6-21.6
		C979,813.5,969.3,803.8,957.4,803.8L957.4,803.8z"/>
	<path class="st0" d="M957.4,829.5c-2.2,0-4-1.7-4.1-3.9c0-0.7,0.2-1.4,0.5-2l31.3-60.1c0.7-1.3,2.1-2.2,3.6-2.2h14.8
		c2.2,0,4,1.8,4,4c0,2.2-1.8,4-4,4h-12.4l-30.2,58C960.2,828.7,958.9,829.5,957.4,829.5z"/>
	<path class="st0" d="M963.3,828.5c-1.7,3.3-5.7,4.6-9,2.9s-4.6-5.7-2.9-9s5.7-4.6,9-2.9c0,0,0,0,0,0
		C963.7,821.3,965,825.3,963.3,828.5z"/>
	<path class="st0" d="M1043.7,829.5h-40.5c-1.4,0-2.6-0.7-3.4-1.8l-25.5-39.2c-1.2-1.9-0.7-4.4,1.2-5.6c1.9-1.2,4.4-0.7,5.6,1.2
		l24.3,37.3h38.3c2.2,0,4,1.8,4,4C1047.8,827.7,1045.9,829.5,1043.7,829.5L1043.7,829.5z"/>
	<path class="st0" d="M1043.7,818.8c3.7,0,6.7,3,6.7,6.7s-3,6.7-6.7,6.7s-6.7-3-6.7-6.7c0,0,0,0,0,0
		C1037,821.8,1040,818.8,1043.7,818.8C1043.7,818.8,1043.7,818.8,1043.7,818.8z"/>
	<path class="st0" d="M1001.2,826.4c-0.4,0-0.8-0.1-1.2-0.2c-2.1-0.7-3.3-2.9-2.6-5c0,0,0-0.1,0-0.1l10.9-33.5
		c0.7-2.1,3-3.3,5.1-2.6c2.1,0.7,3.3,3,2.6,5.1l-10.9,33.5C1004.5,825.2,1002.9,826.4,1001.2,826.4z"/>
	<path class="st0" d="M1003.5,792.8c-2.2,0.1-4.1-1.6-4.2-3.9s1.6-4.1,3.9-4.2l19.2-1.6c2.2-0.2,4.2,1.5,4.4,3.7
		c0.2,2.2-1.5,4.2-3.7,4.4l0,0l-19.1,1.6L1003.5,792.8z"/>
	<path class="st0" d="M910.8,803.6c-1.6,0-3.2-0.6-4.4-1.8c-1.2-1.2-1.8-2.8-1.8-4.4V708c0-1.6,0.6-3.2,1.8-4.3
		c1.1-1.2,2.7-1.9,4.4-1.9H946c4.5,0,9,0.9,13.2,2.7c4,1.7,7.6,4.2,10.7,7.2c3.1,3.1,5.5,6.8,7.2,10.8c1.8,4.2,2.7,8.7,2.7,13.3
		c0,4.6-0.9,9.1-2.7,13.2c-1.7,4-4.2,7.6-7.2,10.7c-3.1,3.1-6.7,5.5-10.7,7.2c-4.2,1.8-8.7,2.7-13.2,2.7c-1.7,0-3.3-0.6-4.5-1.8
		c-2.4-2.4-2.5-6.3-0.1-8.7c0,0,0.1-0.1,0.1-0.1c1.2-1.2,2.8-1.8,4.5-1.8c2.9,0,5.7-0.6,8.3-1.7c2.5-1.1,4.8-2.7,6.8-4.6
		c1.9-1.9,3.5-4.2,4.6-6.8c1.1-2.6,1.7-5.4,1.7-8.3c0.1-8.6-5.1-16.4-13-19.8c-2.6-1.1-5.5-1.7-8.3-1.7h-29v83
		c0,1.7-0.6,3.3-1.8,4.4C914,803,912.4,803.6,910.8,803.6z"/>
	<path class="st0" d="M1297.6,832.6c-3.7-0.1-7.2-1.4-10-3.8c-7-5.6-19.3-16.3-24.7-21.1c-20,16.8-49.8,14.2-66.5-5.7
		c-16.8-20-14.2-49.8,5.7-66.5c20-16.8,49.8-14.2,66.5,5.7c6.3,7.5,10.1,16.7,10.9,26.4c0.2,2.2-1.5,4.2-3.7,4.4
		c-2.2,0.2-4.2-1.5-4.4-3.7c-1.8-21.5-20.8-37.5-42.3-35.7c-21.5,1.8-37.5,20.8-35.7,42.3c1.8,21.5,20.8,37.5,42.3,35.7
		c9.1-0.8,17.7-4.7,24.2-11.2c1.5-1.5,3.9-1.6,5.5-0.2c0.2,0.2,18.3,16.1,27.2,23.2c3.2,2.6,5.8,2.4,6.9,1.2
		c0.9-1.1,0.8-3.2-1.7-5.5c-7.6-7-26.8-24.3-27-24.5c-1.6-1.6-1.5-4.2,0.1-5.7c1.5-1.4,3.8-1.6,5.4-0.3c0.2,0.2,19.5,17.5,27.1,24.6
		c4.6,4.3,6.9,11.4,2.3,16.7C1303.7,831.3,1300.7,832.7,1297.6,832.6z"/>
	<path class="st0" d="M1232.7,751.7c11,0.3,19.7,9.5,19.4,20.5c-0.3,10-7.9,18.2-17.8,19.3c-0.6,0-1.2,0.1-1.7,0.1
		c-11-0.3-19.8-9.4-19.5-20.5c0.2-10,7.9-18.3,17.9-19.4C1231.6,751.8,1232.1,751.7,1232.7,751.7L1232.7,751.7 M1232.7,743.6
		c-0.8,0-1.6,0-2.4,0.1c-15.4,1.5-26.7,15.3-25.2,30.7c1.4,14.2,13.2,25.1,27.5,25.3c0.8,0,1.6,0,2.4-0.1
		c15.4-1.5,26.7-15.3,25.2-30.7C1258.8,754.7,1247,743.8,1232.7,743.6z"/>
</g>
</svg>
