<svg id="Calque_1" data-name="Calque 1" xmlns="http://www.w3.org/2000/svg" xmlns:xlink="http://www.w3.org/1999/xlink" viewBox="0 0 879.98 667.39"><defs><style>.cls-1,.cls-3{fill:none;}.cls-2{clip-path:url(#clip-path);}.cls-3,.cls-4{stroke:#fff;stroke-miterlimit:10;stroke-width:0.5px;}.cls-4{font-size:90px;fill:#fff;font-family:GothamXNarrow-Black, Gotham XNarrow;font-weight:800;letter-spacing:0.29em;}.cls-5{letter-spacing:0.29em;}.cls-6{letter-spacing:0.21em;}.cls-7{letter-spacing:0.29em;}</style><clipPath id="clip-path"><rect class="cls-1" width="879.98" height="666.4"/></clipPath></defs><title>mur_eau_shema</title><g class="cls-2"><line class="cls-3" x1="27.59" y1="11.34" x2="27.59" y2="176.97"/><line class="cls-3" x1="27.59" y1="215.31" x2="27.59" y2="299.66"/><line class="cls-3" x1="27.59" y1="333.69" x2="27.59" y2="491.36"/><line class="cls-3" x1="27.59" y1="512.83" x2="27.59" y2="643.19"/><line class="cls-3" x1="49.06" y1="-58.44" x2="49.06" y2="107.19"/><line class="cls-3" x1="49.06" y1="145.53" x2="49.06" y2="229.88"/><line class="cls-3" x1="49.06" y1="263.91" x2="49.06" y2="421.58"/><line class="cls-3" x1="49.06" y1="443.05" x2="49.06" y2="573.41"/><line class="cls-3" x1="49.06" y1="593.5" x2="49.06" y2="723.85"/><line class="cls-3" x1="70.54" y1="26.82" x2="70.54" y2="192.45"/><line class="cls-3" x1="70.54" y1="230.79" x2="70.54" y2="315.14"/><line class="cls-3" x1="70.54" y1="349.18" x2="70.54" y2="506.85"/><line class="cls-3" x1="70.54" y1="528.32" x2="70.54" y2="658.68"/><line class="cls-3" x1="92.01" y1="12.33" x2="92.01" y2="177.96"/><line class="cls-3" x1="92.01" y1="216.3" x2="92.01" y2="300.65"/><line class="cls-3" x1="92.01" y1="334.68" x2="92.01" y2="492.35"/><line class="cls-3" x1="92.01" y1="513.82" x2="92.01" y2="644.18"/><line class="cls-3" x1="113.48" y1="-57.45" x2="113.48" y2="108.18"/><line class="cls-3" x1="113.48" y1="146.52" x2="113.48" y2="230.87"/><line class="cls-3" x1="113.48" y1="264.9" x2="113.48" y2="422.57"/><line class="cls-3" x1="113.48" y1="444.04" x2="113.48" y2="574.4"/><line class="cls-3" x1="113.48" y1="594.48" x2="113.48" y2="724.84"/><line class="cls-3" x1="134.95" y1="27.81" x2="134.95" y2="193.44"/><line class="cls-3" x1="134.95" y1="231.78" x2="134.95" y2="316.13"/><line class="cls-3" x1="134.95" y1="350.17" x2="134.95" y2="507.83"/><line class="cls-3" x1="134.95" y1="529.3" x2="134.95" y2="659.66"/><line class="cls-3" x1="156.42" y1="12.33" x2="156.42" y2="177.96"/><line class="cls-3" x1="156.42" y1="216.3" x2="156.42" y2="300.65"/><line class="cls-3" x1="156.42" y1="334.68" x2="156.42" y2="492.35"/><line class="cls-3" x1="156.42" y1="513.82" x2="156.42" y2="644.18"/><line class="cls-3" x1="177.89" y1="-57.45" x2="177.89" y2="108.18"/><line class="cls-3" x1="177.89" y1="146.52" x2="177.89" y2="230.87"/><line class="cls-3" x1="177.89" y1="264.9" x2="177.89" y2="422.57"/><line class="cls-3" x1="177.89" y1="444.04" x2="177.89" y2="574.4"/><line class="cls-3" x1="177.89" y1="594.48" x2="177.89" y2="724.84"/><line class="cls-3" x1="199.36" y1="27.81" x2="199.36" y2="193.44"/><line class="cls-3" x1="199.36" y1="231.78" x2="199.36" y2="316.13"/><line class="cls-3" x1="199.36" y1="350.17" x2="199.36" y2="507.83"/><line class="cls-3" x1="199.36" y1="529.3" x2="199.36" y2="659.66"/><line class="cls-3" x1="220.83" y1="-6.22" x2="220.83" y2="159.41"/><line class="cls-3" x1="220.83" y1="197.75" x2="220.83" y2="282.1"/><line class="cls-3" x1="220.83" y1="316.13" x2="220.83" y2="473.8"/><line class="cls-3" x1="220.83" y1="495.27" x2="220.83" y2="625.63"/><line class="cls-3" x1="242.3" y1="-76" x2="242.3" y2="89.63"/><line class="cls-3" x1="242.3" y1="127.97" x2="242.3" y2="212.32"/><line class="cls-3" x1="242.3" y1="246.35" x2="242.3" y2="404.02"/><line class="cls-3" x1="242.3" y1="425.49" x2="242.3" y2="555.85"/><line class="cls-3" x1="242.3" y1="575.93" x2="242.3" y2="706.29"/><line class="cls-3" x1="263.77" y1="9.26" x2="263.77" y2="174.89"/><line class="cls-3" x1="263.77" y1="213.23" x2="263.77" y2="297.58"/><line class="cls-3" x1="263.77" y1="331.61" x2="263.77" y2="489.28"/><line class="cls-3" x1="263.77" y1="510.75" x2="263.77" y2="641.11"/><line class="cls-3" x1="279.88" y1="12.87" x2="279.88" y2="178.5"/><line class="cls-3" x1="279.88" y1="216.84" x2="279.88" y2="301.19"/><line class="cls-3" x1="279.88" y1="335.23" x2="279.88" y2="492.9"/><line class="cls-3" x1="279.88" y1="514.37" x2="279.88" y2="644.73"/><line class="cls-3" x1="301.35" y1="-56.91" x2="301.35" y2="108.72"/><line class="cls-3" x1="301.35" y1="147.06" x2="301.35" y2="231.41"/><line class="cls-3" x1="301.35" y1="265.45" x2="301.35" y2="423.12"/><line class="cls-3" x1="301.35" y1="444.59" x2="301.35" y2="574.95"/><line class="cls-3" x1="301.35" y1="595.03" x2="301.35" y2="725.39"/><line class="cls-3" x1="322.82" y1="28.36" x2="322.82" y2="193.99"/><line class="cls-3" x1="322.82" y1="232.33" x2="322.82" y2="316.68"/><line class="cls-3" x1="322.82" y1="350.71" x2="322.82" y2="508.38"/><line class="cls-3" x1="322.82" y1="529.85" x2="322.82" y2="660.21"/><line class="cls-3" x1="344.29" y1="13.86" x2="344.29" y2="179.49"/><line class="cls-3" x1="344.29" y1="217.83" x2="344.29" y2="302.18"/><line class="cls-3" x1="344.29" y1="336.22" x2="344.29" y2="493.88"/><line class="cls-3" x1="344.29" y1="515.36" x2="344.29" y2="645.71"/><line class="cls-3" x1="365.76" y1="-55.92" x2="365.76" y2="109.71"/><line class="cls-3" x1="365.76" y1="148.05" x2="365.76" y2="232.4"/><line class="cls-3" x1="365.76" y1="266.44" x2="365.76" y2="424.1"/><line class="cls-3" x1="365.76" y1="445.58" x2="365.76" y2="575.93"/><line class="cls-3" x1="365.76" y1="596.02" x2="365.76" y2="726.38"/><line class="cls-3" x1="387.23" y1="29.34" x2="387.23" y2="194.97"/><line class="cls-3" x1="387.23" y1="233.32" x2="387.23" y2="317.66"/><line class="cls-3" x1="387.23" y1="351.7" x2="387.23" y2="509.37"/><line class="cls-3" x1="387.23" y1="530.84" x2="387.23" y2="661.2"/><line class="cls-3" x1="408.7" y1="13.86" x2="408.7" y2="179.49"/><line class="cls-3" x1="408.7" y1="217.83" x2="408.7" y2="302.18"/><line class="cls-3" x1="408.7" y1="336.22" x2="408.7" y2="493.88"/><line class="cls-3" x1="408.7" y1="515.36" x2="408.7" y2="645.71"/><line class="cls-3" x1="430.17" y1="-55.92" x2="430.17" y2="109.71"/><line class="cls-3" x1="430.17" y1="148.05" x2="430.17" y2="232.4"/><line class="cls-3" x1="430.17" y1="266.44" x2="430.17" y2="424.1"/><line class="cls-3" x1="430.17" y1="445.58" x2="430.17" y2="575.93"/><line class="cls-3" x1="430.17" y1="596.02" x2="430.17" y2="726.38"/><line class="cls-3" x1="451.64" y1="29.34" x2="451.64" y2="194.97"/><line class="cls-3" x1="451.64" y1="233.32" x2="451.64" y2="317.66"/><line class="cls-3" x1="451.64" y1="351.7" x2="451.64" y2="509.37"/><line class="cls-3" x1="451.64" y1="530.84" x2="451.64" y2="661.2"/><line class="cls-3" x1="473.11" y1="-4.69" x2="473.11" y2="160.94"/><line class="cls-3" x1="473.11" y1="199.28" x2="473.11" y2="283.63"/><line class="cls-3" x1="473.11" y1="317.66" x2="473.11" y2="475.33"/><line class="cls-3" x1="473.11" y1="496.8" x2="473.11" y2="627.16"/><line class="cls-3" x1="494.58" y1="-74.47" x2="494.58" y2="91.16"/><line class="cls-3" x1="494.58" y1="129.5" x2="494.58" y2="213.85"/><line class="cls-3" x1="494.58" y1="247.88" x2="494.58" y2="405.55"/><line class="cls-3" x1="494.58" y1="427.02" x2="494.58" y2="557.38"/><line class="cls-3" x1="494.58" y1="577.47" x2="494.58" y2="707.82"/><line class="cls-3" x1="516.05" y1="10.79" x2="516.05" y2="176.42"/><line class="cls-3" x1="516.05" y1="214.76" x2="516.05" y2="299.11"/><line class="cls-3" x1="516.05" y1="333.15" x2="516.05" y2="490.82"/><line class="cls-3" x1="516.05" y1="512.29" x2="516.05" y2="642.65"/><line class="cls-3" x1="537.35" y1="46.52" x2="537.35" y2="212.16"/><line class="cls-3" x1="537.35" y1="250.5" x2="537.35" y2="334.84"/><line class="cls-3" x1="537.35" y1="368.88" x2="537.35" y2="526.55"/><line class="cls-3" x1="537.35" y1="548.02" x2="537.35" y2="678.38"/><line class="cls-3" x1="558.83" y1="-23.26" x2="558.83" y2="142.38"/><line class="cls-3" x1="558.83" y1="180.72" x2="558.83" y2="265.07"/><line class="cls-3" x1="558.83" y1="299.1" x2="558.83" y2="456.77"/><line class="cls-3" x1="558.83" y1="478.24" x2="558.83" y2="608.6"/><line class="cls-3" x1="558.83" y1="628.68" x2="558.83" y2="759.04"/><line class="cls-3" x1="580.3" y1="19.14" x2="580.3" y2="227.64"/><line class="cls-3" x1="580.3" y1="265.98" x2="580.3" y2="350.33"/><line class="cls-3" x1="580.3" y1="384.36" x2="580.3" y2="542.03"/><line class="cls-3" x1="580.3" y1="563.5" x2="580.3" y2="693.86"/><line class="cls-3" x1="601.77" y1="-6.22" x2="601.77" y2="213.14"/><line class="cls-3" x1="601.77" y1="251.48" x2="601.77" y2="335.83"/><line class="cls-3" x1="601.77" y1="369.87" x2="601.77" y2="527.54"/><line class="cls-3" x1="601.77" y1="549.01" x2="601.77" y2="679.36"/><line class="cls-3" x1="623.24" y1="-22.27" x2="623.24" y2="143.36"/><line class="cls-3" x1="623.24" y1="181.7" x2="623.24" y2="266.05"/><line class="cls-3" x1="623.24" y1="300.09" x2="623.24" y2="457.76"/><line class="cls-3" x1="623.24" y1="479.23" x2="623.24" y2="609.58"/><line class="cls-3" x1="623.24" y1="629.67" x2="623.24" y2="760.03"/><line class="cls-3" x1="644.71" y1="-22.27" x2="644.71" y2="228.63"/><line class="cls-3" x1="644.71" y1="266.97" x2="644.71" y2="351.32"/><line class="cls-3" x1="644.71" y1="385.35" x2="644.71" y2="543.02"/><line class="cls-3" x1="644.71" y1="564.49" x2="644.71" y2="694.85"/><line class="cls-3" x1="666.18" y1="19.14" x2="666.18" y2="213.14"/><line class="cls-3" x1="666.18" y1="251.48" x2="666.18" y2="335.83"/><line class="cls-3" x1="666.18" y1="369.87" x2="666.18" y2="527.54"/><line class="cls-3" x1="666.18" y1="549.01" x2="666.18" y2="679.36"/><line class="cls-3" x1="687.65" y1="-22.27" x2="687.65" y2="143.36"/><line class="cls-3" x1="687.65" y1="181.7" x2="687.65" y2="266.05"/><line class="cls-3" x1="687.65" y1="300.09" x2="687.65" y2="457.76"/><line class="cls-3" x1="687.65" y1="479.23" x2="687.65" y2="609.58"/><line class="cls-3" x1="687.65" y1="629.67" x2="687.65" y2="760.03"/><line class="cls-3" x1="709.12" y1="62.99" x2="709.12" y2="228.63"/><line class="cls-3" x1="709.12" y1="266.97" x2="709.12" y2="351.32"/><line class="cls-3" x1="709.12" y1="385.35" x2="709.12" y2="543.02"/><line class="cls-3" x1="709.12" y1="564.49" x2="709.12" y2="694.85"/><line class="cls-3" x1="730.59" y1="-22.27" x2="730.59" y2="194.59"/><line class="cls-3" x1="730.59" y1="232.93" x2="730.59" y2="317.28"/><line class="cls-3" x1="730.59" y1="351.32" x2="730.59" y2="508.98"/><line class="cls-3" x1="730.59" y1="530.46" x2="730.59" y2="660.81"/><line class="cls-3" x1="752.06" y1="-40.82" x2="752.06" y2="124.81"/><line class="cls-3" x1="752.06" y1="163.15" x2="752.06" y2="247.5"/><line class="cls-3" x1="752.06" y1="281.54" x2="752.06" y2="439.21"/><line class="cls-3" x1="752.06" y1="460.68" x2="752.06" y2="591.03"/><line class="cls-3" x1="752.06" y1="611.12" x2="752.06" y2="741.48"/><line class="cls-3" x1="773.53" y1="44.44" x2="773.53" y2="210.08"/><line class="cls-3" x1="773.53" y1="248.42" x2="773.53" y2="332.77"/><line class="cls-3" x1="773.53" y1="366.8" x2="773.53" y2="524.47"/><line class="cls-3" x1="773.53" y1="545.94" x2="773.53" y2="676.3"/><line class="cls-3" x1="795" y1="-46.11" x2="795" y2="119.52"/><line class="cls-3" x1="795" y1="157.86" x2="795" y2="242.21"/><line class="cls-3" x1="795" y1="276.24" x2="795" y2="433.91"/><line class="cls-3" x1="795" y1="455.38" x2="795" y2="641.11"/><line class="cls-3" x1="816.47" y1="-115.89" x2="816.47" y2="49.74"/><line class="cls-3" x1="816.47" y1="88.08" x2="816.47" y2="172.43"/><line class="cls-3" x1="816.47" y1="206.46" x2="816.47" y2="364.13"/><line class="cls-3" x1="816.47" y1="385.6" x2="816.47" y2="515.96"/><line class="cls-3" x1="816.47" y1="536.04" x2="816.47" y2="666.4"/><line class="cls-3" x1="837.94" y1="-30.63" x2="837.94" y2="135"/><line class="cls-3" x1="837.94" y1="173.34" x2="837.94" y2="257.69"/><line class="cls-3" x1="837.94" y1="291.73" x2="837.94" y2="449.39"/><line class="cls-3" x1="837.94" y1="470.87" x2="837.94" y2="601.22"/><line class="cls-3" x1="859.42" y1="-45.13" x2="859.42" y2="120.51"/><line class="cls-3" x1="859.42" y1="158.85" x2="859.42" y2="243.2"/><line class="cls-3" x1="859.42" y1="277.23" x2="859.42" y2="434.9"/><line class="cls-3" x1="859.42" y1="456.37" x2="859.42" y2="653.26"/></g><text class="cls-4" transform="translate(114.1 204.31)">EXP<tspan class="cls-5" x="211.41" y="0">O</tspan><tspan x="289.35" y="0">SITION</tspan><tspan x="169.06" y="160">WIL</tspan><tspan class="cls-6" x="379.66" y="160">L</tspan><tspan class="cls-7" x="436.18" y="160">Y</tspan><tspan x="60.62" y="320">VERGINER</tspan></text></svg>