<?xml version="1.0" encoding="utf-8"?>
<!-- Generator: Adobe Illustrator 21.1.0, SVG Export Plug-In . SVG Version: 6.00 Build 0)  -->
<svg version="1.1" id="Calque_1" xmlns="http://www.w3.org/2000/svg" xmlns:xlink="http://www.w3.org/1999/xlink" x="0px" y="0px"
	 viewBox="0 0 141.7 141.7" style="enable-background:new 0 0 141.7 141.7;" xml:space="preserve">
<style type="text/css">
	.st0{fill:#1455BC;}
</style>
<title>facebook</title>
<path class="st0" d="M70.9,14.2H121c3.3-0.2,6.3,2.3,6.5,5.6c0,0,0,0,0,0.1v101.2c0.1,3.6-2.8,6.5-6.4,6.6c0,0,0,0,0,0h-0.2
	c-9.1-0.1-18.2,0-27.3,0c-1.1,0-1.1,0-1.1-1.1V85.1c0-1.1,0-1.1,1.2-1.1h12.6c0.7,0,1-0.1,1.1-0.9c0.6-5.2,1.3-10.4,2-15.5
	c0.1-0.8-0.1-1-0.9-1H93.6c-0.8,0-1.1-0.2-1.1-1.1c0.1-3.8,0-7.7,0.1-11.5c0.1-3.5,1.9-5.6,5.4-6.2c1.1-0.2,2.2-0.3,3.3-0.3h7.9
	c0.8,0,1-0.3,1-1V32.9c0-0.7-0.2-1.1-1-1.1c-4.7-0.2-9.3-0.5-14-0.5c-4.4,0-8.7,1.4-12.3,4c-4.2,3.1-7,7.7-7.7,12.8
	c-0.3,2-0.5,3.9-0.5,5.9c-0.1,3.8,0,7.6,0,11.5c0,0.8-0.2,1.1-1,1.1H61c-1.1,0-1.1,0-1.1,1.1V83c0,0.8,0.3,1.1,1.1,1.1h12.8
	c0.8,0,1,0.2,1,1v41.8c0,0.8-0.2,1-1,1H20.5c-3.3,0.1-6-2.6-6.1-5.9c0,0,0,0,0,0V20.7c-0.1-3.3,2.6-6,5.9-6.1c0,0,0.1,0,0.1,0h0.2
	L70.9,14.2z"/>
</svg>
