<svg xmlns="http://www.w3.org/2000/svg" viewBox="0 0 760.64 385.43"><defs><style>.cls-1{fill:#fff;}.cls-2{fill:#ffd84a;}.cls-3{font-size:11.93px;fill:#8994a9;font-family:SourceSerifPro-Semibold, Source Serif Pro;font-weight:600;}.cls-4{letter-spacing:-0.01em;}.cls-5,.cls-8{fill:#00a9c3;}.cls-6{fill:#0040d5;}.cls-18,.cls-19,.cls-29,.cls-7{fill:#001744;}.cls-8{font-size:14px;font-family:SourceSerifPro-It, Source Serif Pro;font-style:italic;}.cls-9{letter-spacing:0em;}.cls-10{letter-spacing:0em;}.cls-11{letter-spacing:-0.03em;}.cls-12{letter-spacing:-0.01em;}.cls-13{letter-spacing:-0.01em;}.cls-14{letter-spacing:-0.01em;}.cls-15{letter-spacing:0em;}.cls-16{letter-spacing:-0.01em;}.cls-17{letter-spacing:-0.02em;}.cls-18{font-size:50px;font-family:Gastromond-Regular, Gastromond;}.cls-19,.cls-29{font-size:18px;}.cls-19{font-family:SourceSerifPro-Regular, Source Serif Pro;}.cls-20{letter-spacing:0em;}.cls-21{letter-spacing:-0.01em;}.cls-22{letter-spacing:-0.01em;}.cls-23{letter-spacing:-0.02em;}.cls-24{letter-spacing:-0.02em;}.cls-25{letter-spacing:-0.01em;}.cls-26{letter-spacing:-0.01em;}.cls-27{letter-spacing:-0.01em;}.cls-28{letter-spacing:0em;}.cls-29{font-family:Raleway-Bold, Raleway;font-weight:700;}.cls-30{letter-spacing:0.05em;}.cls-31{letter-spacing:0.07em;}.cls-32{letter-spacing:0.08em;}.cls-33{letter-spacing:-0.01em;}.cls-34{letter-spacing:0em;}.cls-35{letter-spacing:0.06em;}.cls-36{letter-spacing:0.07em;}</style></defs><title>typo</title><g id="Calque_2" data-name="Calque 2"><g id="Calque_1-2" data-name="Calque 1"><rect class="cls-1" width="152.26" height="187.05"/><rect class="cls-2" x="11.99" y="11.92" width="128.29" height="128.29"/><text class="cls-3" transform="translate(51.64 168.19)">#<tspan class="cls-4" x="6.52" y="0">FF</tspan><tspan x="20.15" y="0">D84A</tspan></text><rect class="cls-1" x="165.03" width="152.26" height="187.05"/><text class="cls-3" transform="translate(217.76 168.19)">#00A9C3</text><rect class="cls-5" x="177.02" y="11.92" width="128.29" height="128.29"/><rect class="cls-1" y="198.38" width="152.26" height="187.05"/><text class="cls-3" transform="translate(53.14 366.58)">#0040D5</text><rect class="cls-6" x="11.99" y="210.31" width="128.29" height="128.29"/><rect class="cls-1" x="166.63" y="198.38" width="152.26" height="187.05"/><text class="cls-3" transform="translate(220.89 366.58)">#001744</text><rect class="cls-7" x="177.79" y="210.31" width="128.29" height="128.29"/><text class="cls-8" transform="translate(385.02 158.21)">G<tspan class="cls-9" x="9.17" y="0">a</tspan><tspan x="16.42" y="0">s</tspan><tspan class="cls-10" x="21.46" y="0">t</tspan><tspan class="cls-11" x="26.12" y="0">r</tspan><tspan x="31.37" y="0">omond</tspan></text><text class="cls-8" transform="translate(385.02 255.69)"><tspan class="cls-12">S</tspan><tspan x="6.72" y="0">ou</tspan><tspan class="cls-11" x="21.56" y="0">r</tspan><tspan class="cls-13" x="26.81" y="0">c</tspan><tspan x="32.37" y="0">e </tspan><tspan class="cls-14" x="41.34" y="0">S</tspan><tspan x="48.05" y="0">érif P</tspan><tspan class="cls-11" x="78.89" y="0">r</tspan><tspan class="cls-15" x="84.14" y="0">o</tspan></text><text class="cls-8" transform="translate(385.02 353.18)">Rale<tspan class="cls-16" x="25.96" y="0">w</tspan><tspan class="cls-17" x="36.09" y="0">a</tspan><tspan x="43.13" y="0">y</tspan></text><text class="cls-18" transform="translate(385.02 67.44)">Banane de </text><text class="cls-18" transform="translate(669.88 67.44)"> </text><text class="cls-18" transform="translate(385.02 127.44)">Guadeloupe</text><text class="cls-19" transform="translate(385.02 224.91)">La b<tspan class="cls-20" x="34.47" y="0">a</tspan><tspan x="43.56" y="0">n</tspan><tspan class="cls-20" x="54.47" y="0">a</tspan><tspan x="63.56" y="0">ne se t</tspan><tspan class="cls-21" x="114.87" y="0">r</tspan><tspan class="cls-22" x="122.31" y="0">o</tspan><tspan class="cls-23" x="132.03" y="0">u</tspan><tspan class="cls-24" x="142.16" y="0">v</tspan><tspan x="150.91" y="0">e </tspan><tspan class="cls-25" x="164.28" y="0">d</tspan><tspan class="cls-26" x="174.33" y="0">a</tspan><tspan x="183.4" y="0">ns les </tspan><tspan class="cls-25" x="232.86" y="0">r</tspan><tspan x="240.31" y="0">égions </tspan><tspan class="cls-27" x="296.98" y="0">r</tspan><tspan class="cls-28" x="304.41" y="0">eculés ...</tspan></text><text class="cls-29" transform="translate(385.02 326.16)"><tspan class="cls-30">V</tspan><tspan class="cls-31" x="13.03" y="0">OI</tspan><tspan class="cls-32" x="34.45" y="0">R </tspan><tspan class="cls-33" x="53.44" y="0">L</tspan><tspan class="cls-34" x="63.85" y="0">’</tspan><tspan class="cls-32" x="68.17" y="0">A</tspan><tspan class="cls-35" x="81.61" y="0">R</tspan><tspan class="cls-32" x="94.73" y="0">T</tspan><tspan class="cls-31" x="107.23" y="0">I</tspan><tspan class="cls-32" x="113.71" y="0">C</tspan><tspan class="cls-36" x="127.4" y="0">L</tspan><tspan x="139.25" y="0">E</tspan></text></g></g></svg>