<svg id="Calque_1" data-name="Calque 1" xmlns="http://www.w3.org/2000/svg" xmlns:xlink="http://www.w3.org/1999/xlink" viewBox="0 0 734.62 571.37"><defs><style>.cls-1{fill:none;}.cls-2{fill:url(#Dégradé_sans_nom_11);}.cls-3{clip-path:url(#clip-path);}.cls-4{opacity:0.3;}.cls-5{fill:#fff;fill-rule:evenodd;}</style><linearGradient id="Dégradé_sans_nom_11" x1="-8.15" y1="537.47" x2="809.34" y2="-10.89" gradientUnits="userSpaceOnUse"><stop offset="0" stop-color="#f0047f"/><stop offset="0.05" stop-color="#ca0780"/><stop offset="0.11" stop-color="#990a81"/><stop offset="0.18" stop-color="#6f0d82"/><stop offset="0.25" stop-color="#4d0f83"/><stop offset="0.33" stop-color="#331183"/><stop offset="0.4" stop-color="#201284"/><stop offset="0.47" stop-color="#151384"/><stop offset="0.55" stop-color="#111384"/><stop offset="0.61" stop-color="#151d85"/><stop offset="0.69" stop-color="#203688"/><stop offset="0.8" stop-color="#32608d"/><stop offset="0.93" stop-color="#4b9a94"/><stop offset="1" stop-color="#5abc98"/></linearGradient><clipPath id="clip-path"><rect class="cls-1" y="-0.61" width="734.4" height="572.6"/></clipPath></defs><title>base</title><rect class="cls-2" y="-0.61" width="734.4" height="572.6"/><g class="cls-3"><g class="cls-4"><path class="cls-5" d="M108.51,323.26c2.89,1.2,4.75,2.28,6.74,2.76,35.08,8.53,62.49,28.7,84.06,56.84,19.84,25.88,21.53,53,11.51,85.15-8.58,27.52-29.55,58-41,71.57-10.15,12-27.7,24.61-46.14,32.69-14.74,6.46-44.95,14.27-75.12,15.12-43.11,1.21-69.78,1.73-111.11,1.73,0-10.22-.09-19.81,0-29.59,0-4.24,0-16.19,0-20.45-.31-41.72,1.55-77.6,1.34-119.33-.13-27.66.12-55.31.11-83,0-31.49-.13-63-.12-94.48,0-26.38.06-52.76.29-79.13.21-23.37.7-46.74,1.09-71.81,9.59-1.83,19.34-4.25,29.25-5.44,14.75-1.78,29.6-3.59,44.43-3.81,32.33-.46,64.65.48,96.3,8.2,30.37,7.42,56.51,23.22,81.18,41.81,10.52,7.94,21.48,15.41,31.43,24,21.33,18.48,46.1,19.87,72.19,16a179,179,0,0,1,60.86,1.53c16.81,3.28,28.28,13.64,34.48,29.26a91.65,91.65,0,0,1,3.91,56.38c-5.34,22-19.05,30.9-40.87,24.73-16.23-4.58-31.65-12.21-47.14-19.12-10.46-4.68-20.33-10.67-30.63-15.74-16.93-8.35-33.68-8.92-49.47,2.7-13.7,10.1-27.09,20.63-40.64,31-21.77,16.58-44.16,32-71.45,38.31A51.78,51.78,0,0,0,108.51,323.26ZM-16.37,502.66c19.74-1.65,37.14-2.2,54.25-4.75,20.71-3.08,36.41-14.27,44-34.39,7.87-20.79,8.29-42.43,3.52-63.88C82,384.38,72.94,373,58.06,366.53c-23-9.95-46.49-6-70-2.63-.37.05-.71.45-2.21,1.47C-14.85,409.82-15.59,455.06-16.37,502.66Zm3.71-217.72c21.81-.63,41.35-.44,60.77-2,16.79-1.33,29.39-10.66,37.42-25.51,10.73-19.84,11.82-40.79,4.69-61.81-6.34-18.67-19.93-30.9-39.11-35.09-20-4.39-40.3-2.84-61.23,1.92C-11,203.65-11.81,244.28-12.66,284.94Z"/><path class="cls-5" d="M403.7,467.45c.8,10.8.3,23.46-5.27,35.44-7,15.11-20.37,21.29-35.75,14.89-25.61-10.67-46.18-28.28-56.62-53.92-11.87-29.17.63-49,32.45-57.89,8.8-2.47,18.62-2.13,27.93-1.78,11.94.44,20.61,7.28,26.8,17.19C401,433.83,403,442.52,403.7,467.45Z"/></g></g></svg>