<svg id="Calque_1" data-name="Calque 1" xmlns="http://www.w3.org/2000/svg" viewBox="0 0 400 350"><defs><style>.cls-1{fill:#f0c85c;}.cls-2{fill:#39352e;opacity:0.5;}</style></defs><title>betb</title><rect class="cls-1" width="400" height="353"/><path class="cls-2" d="M39.08,100.7c-1.66.36-2.79.53-3.87.84A39.51,39.51,0,0,0,16.6,114.07c-3.34,3.87-5.61,8.81-7.76,13.54-3.41,7.46-6.53,15.08-9.37,22.78-2.29,6.22-4,12.66-5.94,19-1.33,4.28-2.63,8.57-4,12.83-.84,2.61-3.22,2.32-4.88,1.73a3.31,3.31,0,0,1-2.21-4.19c.61-2.2,1.35-4.53-.82-6.52-.35-.31-.29-1.33-.11-1.93,1.58-5.25,3.44-10.43,4.82-15.74,2.16-8.37,5.53-16.29,8.55-24.36,2.27-6.09,4.31-12.28,6.91-18.23S5.23,100.35,9.12,94.8c1.74-2.48,2.05-5.93,3.15-8.88a39.82,39.82,0,0,1,2.8-6.37c1.3-2.24,3.62-3.19,6.09-3.65.72-.14,1.49,0,2.2-.22a3.45,3.45,0,0,1,4.24,4.41c-1.2,4.06-2.64,8-4,12.07a9.75,9.75,0,0,0-.27,1.09c4.43-1.74,8.89-3.68,13.47-5.25,6.66-2.28,16,3,17.09,9.93a15.6,15.6,0,0,1-1.27,7.92,108.13,108.13,0,0,1-5.56,10.52c2.8,2.49,5.86,4.93,8.54,7.73,1.25,1.3,1.81,3.28,2.58,5,.62,1.38,1.26,1.76,2.92,1.27,5.49-1.63,8-6.5,11.42-10.27a53.33,53.33,0,0,0,5.13-6.89A38.59,38.59,0,0,0,80,108.34C82.54,102.9,85.21,97.5,87.64,92c2.68-6.07,4.88-12.36,7.73-18.34,3.44-7.19,7.36-14.16,11-21.24a5.32,5.32,0,0,0,.76-2c.24-4.61,3.13-6.44,7.63-4.92a8,8,0,0,0,3.55,0c2-.29,3,.07,2.71,2.48-.62,4.69-2.86,8.65-5.11,12.66-1,1.86-1.65,3.94-2.58,5.86-4.6,9.38-9.41,18.67-13.79,28.15-2.63,5.71-4.61,11.73-6.9,17.6-1.27,3.26-2.7,6.47-3.85,9.77-2.07,6-4.11,11.94-3.86,18.4a2.86,2.86,0,0,0,.13,1.36c.52.79,1.07,1.77,1.85,2.08.4.16,1.5-.82,2-1.51,2.76-4.13,5.3-8.43,8.17-12.49,3.08-4.37,6.41-8.56,9.7-12.78,2.17-2.78,4.2-5.74,6.77-8.09a28.14,28.14,0,0,1,7.73-4.72c.88-.38,3,.61,3.64,1.58.78,1.17,1.28,3.93.71,4.34-1.89,1.35-.84,2.64-.31,3.69a21.29,21.29,0,0,0,2.81,3.55c2.86-1.62,4.71-4.5,8.38-5.34,2.23-.52,4-3.26,5.85-5.14,2.44-2.49,2.85-2.31,5.85-.62,1.74,1,3.93,1.54,4.09,3.63a46.85,46.85,0,0,1-.4,9.46c-.4,3.17-1.23,6.29-1.82,9.21,3-3.24,6-6.68,9.18-9.91a21.88,21.88,0,0,1,5-3.71c2.6-1.41,5.39-2.08,8.13-.16s2,4.92,1.72,7.35c-.7,6.07-2.31,12.05-2.89,18.13-.4,4.1.24,8.31.57,12.46.13,1.66,1.27,2,2.48.92,3.84-3.55,7.6-7,7.92-12.93.31-5.67,1.91-11,6-15.35,3-3.22,5.22-7.49,8.7-10,4.32-3.11,9.05-6.46,15.14-5.19a24.45,24.45,0,0,0,4.64,0c1.56-4,3.3-8.38,4.9-12.77C224.42,89.74,227,81.9,230,74.25a50.15,50.15,0,0,1,5.64-9.91,39.28,39.28,0,0,1,5.63-5.84c1.52-1.41,4.56,0,5.26,2.5.56,2,1.07,4,1.51,5.94.71,3.26-1.46,5.48-3,7.9-4.29,6.71-9.2,13.1-12.78,20.17-3.92,7.74-6.73,16-9.81,24.2a157.56,157.56,0,0,0-5.09,15.54A76.4,76.4,0,0,0,215.76,146a37.53,37.53,0,0,0-.14,6.27c0,.73.79,1.41,1.22,2.1.6-.58,1.48-1.05,1.75-1.76,2.22-5.87,3.92-12,6.58-17.64a40,40,0,0,1,14.68-16.88c.23-.14.61-.16.72-.35,2.36-4.1,6.76-5,10.62-6.61,3.16-1.34,12.17.9,14.86,5.5,3.19,5.44,1.23,10.58-.63,15.36-2.36,6.09-7.47,10.21-12.91,13.78-3,2-5.78,4.37-8.88,6.22a61.73,61.73,0,0,1-7.87,3.5,2.92,2.92,0,0,0-2.11,3.3c.29,4.6.73,8.92,3.84,12.81,2.68,3.37,5.32,4,9.92,2.86,6.75-1.63,11.92-5.83,16.71-10.58,1.17-1.16,2.32-2.33,3.57-3.39.51-.43,1.53-1,1.85-.78,1.64,1.08,2.62-.12,3.75-.83,5.4-3.37,9.37-8.13,13.24-13.08,2-2.59,4.87-4.54,7.34-6.78,1.82-1.64,3.64-3.27,5.45-4.93a1.23,1.23,0,0,0,.32-.69c.12-.92-.17-2.19.34-2.71,1.84-1.91,3.94-3.57,5.94-5.32l.9.59a16.34,16.34,0,0,1-1.68,3.55c-3.14,3.84-6.55,7.46-9.6,11.37a58.7,58.7,0,0,0-4.48,7.34c-1.42,2.49-2.45,5.25-4.15,7.51-3.12,4.13-6.84,7.81-9.89,12-4.95,6.77-11.37,11.76-18.27,16.3-5,3.29-10.26,5.39-16.36,5.52a19.85,19.85,0,0,1-11-3.17c-2.09-1.26-4.13-2.58-6.19-3.9-3.47-2.21-4.76-5.74-5.56-9.49-.58-2.75-.89-5.56-1.24-7.8-2.63-.89-5.45-1.17-7.29-2.66s-2.59-4.17-3.56-5.87c-3.46,2.07-7.33,4.66-11.44,6.79-4.46,2.31-9,.48-11.19-4.09-.3-.62-.65-1.22-1.09-2-1.65,2.25-3.18,4.23-4.59,6.3-1.88,2.77-6.79,4.87-10,3.85a8.73,8.73,0,0,1-4-2.56c-3-3.76-5.51-7.89-5.72-12.91-.19-4.5-.2-9-.31-13.51,0-.69-.17-1.36-.32-2.51a58.22,58.22,0,0,0-11.25,15.87c-2.74,6-5.71,11.86-8.38,17.88a110.73,110.73,0,0,0-4.07,10.91c-.71,2.17-2.21,2.47-4,2.3a3.26,3.26,0,0,1-3.24-3.38,20.31,20.31,0,0,1,.33-4.87c2.5-11.71,5.11-23.4,7.65-35.1,1-4.58,2-9.18,2.86-13.79a2.36,2.36,0,0,0-.53-2,2.49,2.49,0,0,0-2.18-.08c-1.65.89-3.16,2-4.76,3.09.92,9.32-1.84,17.88-5.94,26.15-2.27,4.6-4.18,9.4-6.73,13.84-2.89,5-6.55,9.71-12.69,10.73a10.75,10.75,0,0,1-7-1.81,15.59,15.59,0,0,1-7-13.19c0-1.93-.22-3.85-.37-6.23-3.27,1.06-6.21,2.07-9.19,3-3.61,1.09-8.24-1.62-9.87-5-2.65-5.53-2.77-11.15-1.58-17a4.58,4.58,0,0,0,0-1.38c0-.43-.17-.86-.41-2-2.61,1.7-4.78,3.47-7.24,4.63-3.42,1.62-3.83,4.69-4.78,7.74a74.7,74.7,0,0,1-4,9.42C48.07,169,37.35,179,27.67,189.76A85.89,85.89,0,0,1,7.38,206.24c-2.87,1.7-6.19,3.38-9.39,3.58-2.87.18-6.11-1.28-8.69-2.84-1.14-.68-1.81-3.57-1.41-5.14,1.6-6.34,3.6-12.58,5.69-18.77.43-1.26,1.88-2.18,2.89-3.23C0,176.22,3.37,172.52,7,169c4.74-4.58,9.47-9.19,14.51-13.43,6.08-5.11,12.44-9.89,18.76-14.71a67.73,67.73,0,0,1,6.14-3.82c1.12-.68,2.37-1.08,1.83-3-.68-2.43-.68-5.55-4-5.67-4.63-.17-8.8,1.68-12.56,4.38-3.24,2.31-6.41,4.71-9.72,6.91a5.12,5.12,0,0,1-6.83-1.41c-1.44-2.05-1.35-4,.57-5.86,1.13-1.12,1.66-2.81,2.7-4,2-2.3,4.06-4.49,6.17-6.66A69.38,69.38,0,0,0,39.08,100.7Zm173.78,18.38c-3.76-1.53-9.4,1.29-11.5,4.6a40.12,40.12,0,0,0-6.09,15.69c-.62,4.19-1.05,8.26.22,12.39.66,2.14,1.93,2.16,3.19.85,2.53-2.61,4.94-5.35,7.22-8.17a10.68,10.68,0,0,0,2-4C209.65,133.34,211.22,126.24,212.86,119.08ZM46.3,148.74l-.66-.6c-1.22,1.05-2.49,2.06-3.66,3.17-4.13,3.9-8.26,7.8-12.32,11.77C26,166.66,22,170,19,174.05c-3.93,5.16-7.1,10.9-10.56,16.4a6.51,6.51,0,0,0-.5,1.62c.63-.09,1.43,0,1.85-.31,4.19-3.44,8.47-6.82,12.43-10.52,2.85-2.67,5.07-6,7.93-8.68a65.29,65.29,0,0,0,13.94-18.43C44.94,152.4,45.56,150.54,46.3,148.74Zm73.93-13.27c-4,1-7.52,2.22-11.1,2.6a4,4,0,0,0-3.54,2.53c-.93,1.94-1.58,4-2.38,6-1.71,4.3-2.52,8.64-1,13.19.58,1.69,1.83,2.75,3.25,1.68,3.19-2.41,6.59-4.74,7.93-8.87.28-.85.84-1.6,1.16-2.43C116.52,145.2,118.42,140.2,120.23,135.47Zm115.35,11.28c1.36-.69,2.17-1.05,2.92-1.5,5.26-3.16,11.55-4.94,14.68-11,1.23-2.38,3-4.54,3.89-7s-1.18-6-3-5.61a14.14,14.14,0,0,0-4.39,1.89C241.39,128.89,238.64,137.6,235.58,146.75Zm-111-26.16c-2.34-1.61-4.17-1.09-5.6.47-2.6,2.84-5,5.86-7.5,8.8C117.08,128.53,120,123.84,124.6,120.59Z"/><path class="cls-2" d="M98,240.41c4.65-3.09,9.29-6.19,13.94-9.26q4.91-3.24,9.83-6.4a4.26,4.26,0,0,1,5.77.6c1.89,2.2,2.13,4.45.24,7a63.72,63.72,0,0,0-8.13,13.82c-3.41,8.38-6.12,17.06-8.87,25.69-.73,2.3-.52,4.9-.78,7.73,5-2.22,7.05-6.4,8.89-10.35,3.45-7.44,6.38-15.12,9.3-22.79,1.35-3.53,2.55-4.66,5.43-4.18,2,.33,4,3.06,3.62,6.18-.85,6.93-2.57,13.83-2.62,20.75-.05,7.89-.4,16,2.31,23.66.4,1.13,1.17,3.31,2.16,3.78,1.45.68,3.15-4,4.08-6a107,107,0,0,0,8.88-29c.66-4.25.19-8.68.61-13a48.22,48.22,0,0,1,1.94-8.91c.22-.75,1.76-1.81,2.33-1.63,1.62.54,3.56,1.31,4.43,2.62s1,3.5,1,5.29c0,8-.43,16-.23,24.06.09,4-.15,10.52,1.85,12s4-3.36,4.86-5.41c5.44-13.16,10.66-26.42,16.07-39.6.44-1.07,1.91-2.52,2.77-2.43a7.74,7.74,0,0,1,4.63,2.12c1,1.07,1.32,3,1.52,4.54.6,4.72,1.09,9.47,1.43,14.22.47,6.38.76,12.76,1.13,19.14.13,1.5.75,1.61,1.21.13,1.11-2.94,2.06-6,3.37-8.83,3.09-6.77,6.26-13.5,9.58-20.16,1.14-2.3,3.06-4.07,6-3.44s4.47,2.81,4.77,5.71c.59,5.51.93,11,1.59,16.54q1.35,11.2,3.08,22.36a11.72,11.72,0,0,0,2.1,4.65,2.83,2.83,0,0,0,2.68.63,8.25,8.25,0,0,0,4.33-7.83,61.23,61.23,0,0,1,4.19-26.24c2.11-5.53,4.72-11.17,10.35-14.28a35.78,35.78,0,0,1,6.82-2.75c2-.63,3.15.82,4.13,2.39,3.91,6.25,4.25,12.67,1.41,19.45-4.06,9.66-8.26,19.19-14.92,27.44-2.44,3-.66,7.59,3.41,9.66a15.19,15.19,0,0,0,18.29-3.53c8-8.66,13.57-18.84,19-29.17,1.77-3.39,3.78-6.66,5.8-9.91.4-.65,1.35-1,2.05-1.43l.77.39c-.62,3.95-.95,8-1.91,11.84A71.83,71.83,0,0,1,285,289.72c-4.66,7.32-9.76,14.22-17.67,18.24a23.22,23.22,0,0,1-9.07,2.28c-5.51.29-11-.11-15.07-4.83-1.42-1.68-2.9-3.31-4-4.56-4.69,1.29-9.07,2.87-13.58,3.55-1.83.28-4.42-.92-5.87-2.29-4.8-4.56-6.39-10.74-7.45-17-.44-2.62-.78-5.26-1.25-8.48-2.27,5.64-4.21,10.8-6.43,15.85a59.65,59.65,0,0,1-4.91,9.2c-.63.94-2.53,1.35-3.87,1.43a3.88,3.88,0,0,1-4.41-3.28c-.69-3.69-1.29-7.39-1.84-11.1-.68-4.59-1.26-9.19-1.95-14.24-2,3.75-3.32,7.18-5.4,10.1a82.15,82.15,0,0,1-8.8,10.29c-2.67,2.68-9.92,1.53-12.35-1.67-1.45-1.9-2.76-3.9-4.25-6-1.43,4.19-2.63,8.4-4.31,12.43-1.49,3.57-2.81,7.24-6.21,9.79-7.65,5.73-18.64,3.73-21.84-7.15A33,33,0,0,1,123,287.68a20,20,0,0,0-.18-3.69,64.88,64.88,0,0,0-6,4.11c-4.18,3.56-11.37,4.69-15.91,1.82-3.29-2.08-4.13-5.82-4.66-9.45-1.13-7.72,1.62-14.76,3.94-21.88.31-1,.56-2,.87-3.07-2.27.88-4.42,1.75-6.59,2.53-4.15,1.51-8,.75-11.87-1.27a4,4,0,0,0-3.25,0,39.83,39.83,0,0,0-7.27,5.09,7.19,7.19,0,0,0-1.85,4.55c-.57,10.94-4.77,20.31-11.45,28.86-6,7.68-13.57,13.58-21.31,19.23a43.53,43.53,0,0,1-11.15,5.32c-3.61,1.29-8.11-3.45-7.59-7.49.34-2.57.89-5.2.62-7.73-.56-5.31,1.65-9.65,4.43-13.67A139.6,139.6,0,0,1,35,276.47,100.08,100.08,0,0,1,55.61,259c1-.65,1.68-1.87,2.84-3.23-7.76-.88-12.88,3.29-18.52,6.14-1.77.89-4,1.73-5.86,1.41a7.74,7.74,0,0,1-5.84-6.06c-.42-2,1.11-4.94,2.58-6.83,6-7.71,12.38-15.17,18.58-22.75a4,4,0,0,0,.79-1.79c.23-1.43.32-2.87.47-4.31-2,.16-4.25-.23-5.9.6a30.54,30.54,0,0,0-7.41,5.38c-4,3.85-8.05,7.71-11.22,12.18-2.31,3.26-3.32,7.47-4.76,11.31-2.84,7.57-5.75,15.12-8.31,22.79-2.37,7.13-4.31,14.4-6.47,21.6-2,6.57-3.87,13.15-6.1,19.63-.33.95-2.21,1.65-3.49,1.89-.82.16-2-.56-2.75-1.18-4.53-3.65-1.39-7.77-.57-11.72s1.73-8,2.75-12c.86-3.31,1.89-6.58,2.9-9.85,2.47-8,5-16,7.47-24,1.51-4.92,2.78-9.92,4.44-14.78,1.71-5,3.85-9.9,5.63-14.9,1.2-3.38,1.94-6.93,3.2-10.28,1.79-4.8,3.85-9.5,5.83-14.22,1.55-3.68,3.05-7.4,4.77-11,1-2,3.74-2.14,4.48-.12.91,2.46,2.4,3.67,4.75,4.75,3.11,1.43,3.39,5.27,1.44,9.15-1.13,2.26-2,4.64-3,7.12,4-1.55,7.48-3.32,11.19-4.22a28,28,0,0,1,9.23-.4c6.24.65,9.1,6.86,10.08,12.78,1.34,8.09-3,14.22-7.09,20.36-1.09,1.62-1.51,2.32.57,3.52s3.93,3.23,6.05,5c2.11-.93,4.61-2.07,7.15-3.13,1.57-.66,2.45-1.44,2.29-3.44-.81-9.85,3-18.08,9.68-25,1.59-1.65,4.26-2.42,6.58-3.12a20.63,20.63,0,0,1,5.58-.39c2,0,4.51,2.87,5,5.21.83,3.82-1,7-2.46,10.16a87.65,87.65,0,0,1-4.68,8.19ZM61.06,267.14l-.68-.72a15.11,15.11,0,0,0-2.1,1.25c-5.66,4.64-11.53,9.08-16.88,14.06s-10.18,10.75-13.1,17.71a15.8,15.8,0,0,0-.61,3.41C42.23,293.78,54.18,282.72,61.06,267.14ZM255.4,251.49c-1.64.55-3.64.6-4.25,1.54a51.64,51.64,0,0,0-7.88,18.88c-.4,2.26-.67,4.55-1.07,7.24C247.69,276.5,256.35,258,255.4,251.49Zm-161.74-25c-.2-.49-1.6-.55-2.25.26C90,228.56,88,231,88.89,233.06a1,1,0,0,0,1.22.51C92.21,232.74,94.48,228.62,93.66,226.53Z"/><path class="cls-2" d="M141.33,199.71c-1.55,2.83-2.84,5.5-4.42,8a67.33,67.33,0,0,1-5,6.68,5.71,5.71,0,0,1-8.4.05,18.74,18.74,0,0,1-1.68-3.25c-1.26.26-2.61.58-4,.82a2.83,2.83,0,0,1-1.56-.07,6.45,6.45,0,0,1-1.37-1.16c.49-.48.94-1.31,1.48-1.37a7.31,7.31,0,0,0,4-1.74,2.07,2.07,0,0,0,.63-1.2c.36-2.55.54-5.12,1-7.64a22.2,22.2,0,0,1,2.91-8.2,10.05,10.05,0,0,1,5.86-4c1.9-.59,4.13.92,4.88,2.94a11.27,11.27,0,0,1-.42,8.12,19.82,19.82,0,0,1-6.74,8.72c-.6.46-1.14,1-1.75,1.46a1.84,1.84,0,0,0-.72,2.07,2.11,2.11,0,0,0,1.63,1.78,1.66,1.66,0,0,0,1.36-.31,20.86,20.86,0,0,0,3.32-3.53,75.37,75.37,0,0,0,5-8.66,86,86,0,0,0,3-8.43q3-8.52,5.91-17a27.21,27.21,0,0,0,.85-3.06,1.76,1.76,0,0,1,1.75-1.32,2,2,0,0,1,1.44.82c1.09,1.36,1,2.84.52,4.48-.89,3.2-1.58,6.46-2.27,9.7-.32,1.51-.47,3.05-.68,4.49,2.15-.06,4.1-.13,6.05-.16.33,0,.89.16,1,.37a1.34,1.34,0,0,1-.21,1.15,18.14,18.14,0,0,1-6.36,4.75c-1.59.65-1.54,1.89-1.66,3-.4,3.71-.56,7.45-.89,11.17a34.13,34.13,0,0,0,.8,10.42,3.78,3.78,0,0,0,.37.77c5.05-5.2,8.93-11.19,12.57-17.36l.41.13c-.1,1-.12,1.91-.31,2.84s-.6,1.87-.82,2.83c-.56,2.55-2.09,4.59-3.54,6.66-1.74,2.45-3.49,4.91-5.42,7.21a11.76,11.76,0,0,1-3.34,2.52,3.92,3.92,0,0,1-5.65-2.21,12.79,12.79,0,0,1-.7-6.29c.27-2,.18-4,.34-6.07.25-3.15.58-6.29.86-9.44C141.4,200.75,141.35,200.33,141.33,199.71ZM130.55,192c-3.38,3-4.4,6.83-5.29,10.71,2-2.69,4.18-5.28,5.33-8.49A7.29,7.29,0,0,0,130.55,192Z"/><path class="cls-2" d="M186,90.05c-3.14.86-6.47-.82-8.18-4.22a40,40,0,0,1-1.7-4.59,8.07,8.07,0,0,0-.89-2,36.23,36.23,0,0,0-1.35,3.54c-1,3.64-1.91,7.29-2.83,10.94a5.55,5.55,0,0,0-.22,1.46,1.87,1.87,0,0,1-1.61,2.14,2,2,0,0,1-2.37-1.13,29.94,29.94,0,0,1-1.3-4.58c-.81-3.67-1.54-7.36-2.31-11l-.38-.11c-.78,1.48-1.56,3-2.36,4.46-1,1.88-1.82,3.84-3.77,5.16-2.32,1.57-4.42.44-5.75-1.16a8.5,8.5,0,0,1-1.05-2.06c-.3-.71-.54-1.45-.94-2.57a22.91,22.91,0,0,1-1.7,3.89c-1.57,2.26-3.14,4.65-6.06,5.37a3.16,3.16,0,0,1-3.14-1.26,8.76,8.76,0,0,1-2-5.57,8.38,8.38,0,0,0-.26-2.32c-.75,1-1.44,2.15-2.27,3.12a7.73,7.73,0,0,1-1.81,1.32,23.46,23.46,0,0,1-2.54,1.42,2.9,2.9,0,0,1-1.66.31c-.63-.14-1.49-.49-1.67-1s.34-1.23.71-1.75c.8-1.14,1.81-2.14,2.57-3.3,1.88-2.88,3.73-5.79,5.48-8.76,1.41-2.4,2.65-4.9,4-7.35l2-3.8a2.25,2.25,0,0,1,.12-.21c.4-.64,3.14-1.11,4.05-.7a2.25,2.25,0,0,1,1,2.69c-.75,3.44-1.52,6.88-2.15,10.35a53.79,53.79,0,0,0-.51,5.54,7.21,7.21,0,0,0,.22,1.44c3.2-2,4.65-5,5.61-8.42a4.48,4.48,0,0,1,1.66-2.11c1-.71,2.11.39,2.34,1.81.48,3.08,1.11,6.13,1.73,9.18a6.94,6.94,0,0,0,.87,1.62A8.55,8.55,0,0,0,157,84.26c1.7-3.36,3.33-6.77,5-10.14a5.64,5.64,0,0,1,1-1.51,1.68,1.68,0,0,1,3,.79c.53,1.89.89,3.83,1.3,5.75.21,1,.37,1.93.6,3.14,1.11-2.76,2-5.39,3.22-7.84a50.69,50.69,0,0,1,4.26-6.87c1.1-1.51,3.45-.59,4,1.56.41,1.75.47,3.58.82,5.35q.72,3.67,1.67,7.31A18.4,18.4,0,0,0,183.05,85c.14.29.76.64.93.55.38-.21.92-.75.86-1-.61-2.78.33-5.38.82-8a16.64,16.64,0,0,1,4.06-8.7,9.33,9.33,0,0,1,7.85-3.11,4.32,4.32,0,0,1,3,3A15.54,15.54,0,0,1,199,76.48a25.72,25.72,0,0,1-7.43,9.88,1.09,1.09,0,0,0-.32.87c.37,2,.85,3.9,2.51,5.21,1.26,1,2.54.18,3.73-.25,4.88-1.78,8-5.63,10.83-9.65,2.6-3.64,5.1-7.35,7.65-11a15.74,15.74,0,0,1,1.23-1.68,1.91,1.91,0,0,1,1-.49c.09,0,.44.52.4.75a17.87,17.87,0,0,1-.86,3.81,50.2,50.2,0,0,1-7.16,11.48c-1.79,2.24-3.7,4.39-5.56,6.58a13.93,13.93,0,0,1-7.56,4.77,8.35,8.35,0,0,1-2.24.11A9.79,9.79,0,0,1,186,90.05Zm4.29-10.19c2.88-2.81,5-8.24,4.3-11.06C191.34,70.91,189.18,76.47,190.3,79.86Z"/><path class="cls-2" d="M185.49,196.23c-1.55,5.91-3,11.4-4.41,16.9a7.87,7.87,0,0,0-.17,2.65,7.26,7.26,0,0,0,.66,1.84c.64-.28,1.48-.4,1.88-.88a58.33,58.33,0,0,0,4.8-6.2c2.07-3.27,3.87-6.72,5.81-10.08a21.67,21.67,0,0,1,2.18-3.38,3,3,0,0,1,2-.58c.27,0,.64.59.83,1,.8,1.6-.3,2.92-.71,4.35-1.11,3.95-2.23,7.9-3.32,11.86a7,7,0,0,0,0,1.47,28.45,28.45,0,0,0,3.37-2.45A51.39,51.39,0,0,0,206,202.8a21.11,21.11,0,0,1,2.65-3.26c.61-.65,2.38,0,2.92,1a3.64,3.64,0,0,1,.43,1.7c-.07,2-.24,4-.38,5.94,2.29-3.11,4.66-6.18,6.82-9.39.66-1,1.39-1.41,2.3-1.08a3,3,0,0,1,1.68,1.64,24.18,24.18,0,0,1,.76,4.5c.28,2.85.47,5.71.75,8.57a1.11,1.11,0,0,0,.53.79c1,.47,3.09-.8,3.36-1.92.87-3.63,1.68-7.39,3.86-10.43a39,39,0,0,1,6.59-6.57c.41-.35,2,.13,2.64.7,2.52,2.29,4.3,5,4.29,8.65,0,2.09-1.39,3.4-2.66,4.61a64.16,64.16,0,0,1-5.93,4.64c-1.09.82-1.27,1.84-.4,3.3.67,1.13,1.65.94,2.7.54a12.36,12.36,0,0,0,5.79-4.9c1.69-2.46,3.51-4.82,5.29-7.24,1.72,1,2.22,2.39,1.23,4.2s-2.07,3.22-3.11,4.84c-.63,1-1.17,2-1.87,3-1.83,2.37-3.59,4.81-6.41,6.19a11.78,11.78,0,0,1-8.49.83c-.9-.24-1.67-1.61-2.15-2.63a32.33,32.33,0,0,1-1.38-4.28c-1.37.76-2.69,1.64-4.11,2.27-3.05,1.33-5.54-1-6-3.84a49.39,49.39,0,0,1-.16-7.27,5.83,5.83,0,0,0-.94.85c-3.64,4.74-6,10.23-8.62,15.51a3.9,3.9,0,0,1-1.81,1.53c-.24.11-1.06-.56-1.29-1a4.2,4.2,0,0,1-.38-2.15c.22-2,.59-4,.91-6,.16-1,.34-2,.56-3.21-1.93,1.59-3.53,3.07-5.3,4.32s-3.84,2.76-6.41,2.59a2.75,2.75,0,0,1-2.8-2.27c-.14-.69-.27-1.38-.43-2.21-1.65,2.08-3.07,4.14-4.77,5.94a33.36,33.36,0,0,1-5.09,4.4c-1.76,1.25-3.54,1.17-4.86-.39a9.9,9.9,0,0,1-2.21-4.54c-.88-5.31,1.1-10.23,2.6-15.19q1.25-4.14,2.45-8.31c.45-1.55,1.12-1.88,2.68-1.42a6,6,0,0,0,1.69-.05C184.14,196.24,184.77,196.24,185.49,196.23Zm50.12,13.18.82.61c1.11-1.42,2.16-2.9,3.34-4.27a4.65,4.65,0,0,0,.95-4.81c-.54-1.16-1.18-1.37-1.85-.31a31.42,31.42,0,0,0-2.65,5.32A17,17,0,0,0,235.61,209.41Z"/></svg>