<svg id="Calque_1" data-name="Calque 1" xmlns="http://www.w3.org/2000/svg" viewBox="0 0 400 350"><defs><style>.cls-1{fill:#edbc38;}.cls-2{fill:#fff;opacity:0.4;}</style></defs><title>betb</title><rect class="cls-1" width="400" height="353"/><path class="cls-2" d="M315.76,204.75l-4-5.59c3.31-1.56,7.88-1.87,7.6-7.4-.23-4.67-3.31-7.85-7.87-6.62-6.89,1.85-13.67,4.16-20.36,6.64-11.71,4.35-19,13.39-24.32,24.17-4.61,9.4-8.57,19.13-13.08,28.58-2.12,4.45-5.13,8.47-7.27,12.9-3.74,7.72-7,15.66-10.69,23.42a44,44,0,0,1-5.17,8.76c-2.67,3.37-6.94,2.47-10.17-1.83-6.08,4.32-12.15,8.66-18.25,13-5.52,3.88-14.83,5.07-19.12.28-3.12-3.49-4.37-8.65-6.52-13.21-2.23,2.25-5.66,4.93-8.05,8.33-4.06,5.77-10,8.15-16.2,10-7.29,2.12-13.19-1-15.48-8.14-1.63-5.07-2.65-10.34-3.93-15.5-7.46,1.08-10.92,4.74-11.61,13.4-.66,8.32-4,15.65-7.77,22.75a141,141,0,0,1-31.27,39.57,273.23,273.23,0,0,1-27.78,21.89c-6.47,4.35-14.19,6.87-21.44,10-3.6,1.55-8.61-.94-10.22-4.73A32.64,32.64,0,0,1,22,361.08c1.58-4.59,1.72-9.88,4.09-13.93a127.57,127.57,0,0,1,13.43-18c4.86-5.7,10.27-10.94,15.57-16.25,2.76-2.76,5.81-5.24,8.71-7.86a73.84,73.84,0,0,1,6.07-5.43c7.69-5.48,15.53-10.74,23.2-16.25,1.12-.8,2.48-2.63,2.27-3.7-.84-4.31-1.38-9.05-3.63-12.62-6.74-10.67-16.78-15.79-29.57-15-4.83.29-9.66.78-14.5.87-3.58.07-4.9-2.36-3.49-5.65a72.31,72.31,0,0,0,3.3-8.27c2.22-7.72,9.57-9.42,15.15-13.12a119.2,119.2,0,0,0,30.23-28.89c1.74-2.36,1.41-6.6,1.16-9.9-.08-1.18-2.64-2.54-4.31-3.15-5.75-2.08-11.37-.26-16.76,1.5-10.07,3.28-19.56,8-26.38,16.3a49.39,49.39,0,0,0-7.73,14.42C34.32,228.41,30.63,241,26.38,253.4c-3.82,11.14-8,22.16-12,33.26-1.5,4.2-2.56,8.6-4.38,12.66C8.64,302.41,6.36,305.1,4.5,308a16.86,16.86,0,0,0-2.24,3.79C-1.29,323-4.64,334.31-8.3,345.5c-.52,1.56-2.34,3.6-3.75,3.77-3.65.44-8.26.53-7.93-4.95.3-5.17,1.73-10.27,2.67-15.4.27-1.46,1.25-3.33.69-4.31-3.53-6.19-.27-11.88,1.52-17.27C-7,283,1.73,258.88,10,234.61c3.23-9.43,6-19,8.87-28.56,4.18-13.93,7.93-28,12.52-41.79,1.81-5.43,5.26-10.34,8.24-15.32,1.25-2.07,6.31-.79,9.43,2.15.6.57,1.06,1.49,1.77,1.74,7,2.4,7,2.37,4.93,9.71a80,80,0,0,0-2.46,9c-.42,2.7.69,3.54,3.83,2.92,8.66-1.7,17.44-2.82,26.18-4.1,2.83-.42,5.68-.69,8.53-.93,8.45-.69,13.48,5.17,17.91,10.64,7.76,9.6,6.14,23.77-1.9,32.51-3.55,3.85-6.45,8.29-9.76,12.37s-6.57,7.85-9.87,11.78c6,3.24,11.78,6.48,17.66,9.5,7.48,3.85,11.46,10.49,14.18,17.94,1.39,3.82,2.5,4.37,6.74,3.14,6.53-1.89,5.77-6.89,7.19-11.37,4.56-14.35,11.39-27.59,24.41-35.84,6.92-4.37,14.64-9,23.93-5.78,9.79,3.43,15.87,10.35,10.2,21.17a132,132,0,0,1-12.86,20.38c-2.94,3.75-7.55,6.4-11.81,8.84-5.16,3-10.76,5.12-16.14,7.69-3.8,1.82-6.38,11.38-4.1,15,1.42,2.24,7.13,3.07,9.35,1.74,13.58-8.15,22.31-20.24,28.88-34.34,2.76-5.94,6.88-11.25,9.69-17.18,6.89-14.53,13.22-29.34,20.12-43.88,3.06-6.46,6.92-12.56,10.48-18.79,1.63-2.85,3.31-2.66,5.39-.17,5.55,6.64,5.08,6.3,1,14.23-5.24,10.22-9.53,20.94-14.22,31.45-.65,1.47-1.21,3-2.12,5.21,3.36-.68,6.07-1.37,8.82-1.73,1.92-.26,4.47-.82,5.72.11,2.09,1.55,3.37,4.2,5,6.38-1.86,1.26-3.57,3-5.63,3.69-5.64,1.91-11.46,3.28-17.12,5.12-1.62.52-3.69,1.57-4.31,2.94-5.11,11.27-10.14,22.59-14.74,34.08-1.5,3.76-1.63,8.06-2.62,13.31,3.76-2.18,6.47-3.7,9.12-5.3q10.58-6.37,21.09-12.83c.84-.51,2-1.2,2.18-2,3.08-12.4,10.07-23.07,15-34.62,3.24-7.51,5.81-15.31,9-22.84,2.56-6,5.74-11.7,8.51-17.59,1.56-3.32,2.55-6.94,4.35-10.12,4.22-7.46,8.7-14.77,13.29-22a3.69,3.69,0,0,1,3.56-.68c2.22,1.64,5.78,2.75,5,6.49-.93,4.41-2.36,8.73-3.53,12.9,7.27-2.18,15.08-4.45,22.85-6.87,11.85-3.7,24.21.85,30.14,11.73,3.43,6.28,3.37,13.07,1.78,20.11-1.68,7.49-6.71,12.52-11.34,18l20.32,14.75c-2.45,3.25-4.54,3-6.91,1.07-5.39-4.29-10.83-8.5-16.21-12.71L304,240.24c11.21,5.44,19.39,13.26,23.29,25.81,5.93-1.81,12.13-3.07,17.74-5.61,4.74-2.14,7.33,0,9.64,3.09.73,1,.28,4.19-.65,4.78a62.84,62.84,0,0,1-11.23,5.58c-4.29,1.65-9,2.41-13.12,4.3-1.5.68-2.53,3.4-2.93,5.37-3.36,16.51-11.41,30.62-21.69,43.7-11.74,14.93-27,25.95-42.07,36.94a71.17,71.17,0,0,1-25.45,11.7c-9.77,2.21-21.43-2.34-21.24-15.83.18-12.2,4.43-21.71,12.66-30.21,15-15.48,32-28.48,49.82-40.32,9-6,19-10.54,28.64-15.47,2.58-1.31,3.11-2.74,2.47-5.3-.55-2.16-.45-4.51-1.14-6.62-1.85-5.69-6.41-7.85-11.95-8.31-10.27-.85-20.53-2.08-30.76.76-3.43,1-6.27-3.31-5.33-7.47,1.52-6.72,5.57-11.25,11.47-14.72,10.41-6.12,20.64-12.56,30.79-19.12,1.35-.87,1.58-3.32,2.67-4.8a6.91,6.91,0,0,1,3.14-2.29A61.1,61.1,0,0,1,315.76,204.75ZM230.67,350.87c3.79-1,6.64-1.31,9.11-2.47,10.44-4.92,20.77-9.72,30.25-16.8,10.34-7.71,20.59-15.28,28.38-25.53,3.8-5,6.14-11.12,9.14-16.73l-1.26-.9c-8.12,4.72-16.41,9.18-24.31,14.23-8.17,5.23-16.13,10.82-23.91,16.63C247.12,327.48,236.45,336,230.67,350.87Zm-139.06-46C60.33,324.21,41.33,348.16,38,362,61.07,347.57,79.55,329.28,91.61,304.85Zm63.15-54.11c10.19-6.78,18-14,23.51-25.16-2.7-.24-5.52-1.37-6.59-.45C164,231.75,159.11,240.4,154.76,250.74Z"/></svg>