<svg id="Calque_1" data-name="Calque 1" xmlns="http://www.w3.org/2000/svg" viewBox="0 0 450 350"><defs><style>.cls-1{fill:#29c199;}.cls-2{fill:#008b85;}</style></defs><title>meteo</title><rect class="cls-1" width="450" height="350"/><path class="cls-2" d="M96,222.34h6.27v23h11.88V251H96Z"/><path class="cls-2" d="M118,222.34h18V228H124.31v6H135v5.19H124.31v6.27H136V251H118Z"/><path class="cls-2" d="M155.18,251h-6l4.12-28.68h7.42l6,19.19h.08l5.92-19.19H180L184.13,251h-6L175.71,231h-.15L169.33,251H164l-6.19-20h-.12Z"/><path class="cls-2" d="M188.71,222.34H195V251h-6.26Z"/><path class="cls-2" d="M225.92,251H220L207.24,232.3h0V251h-6V222.34h6.08l12.65,18.42h0V222.34h6Z"/><path class="cls-2" d="M232.15,222.34h6.27V251h-6.27Z"/><path class="cls-2" d="M71.26,297.81a15,15,0,0,1,0-30,16.32,16.32,0,0,1,7.88,2V276a12.18,12.18,0,0,0-7.22-2.38,9.21,9.21,0,0,0,0,18.42,12.07,12.07,0,0,0,7.22-2.54v6.3A16,16,0,0,1,71.26,297.81Z"/><path class="cls-2" d="M103,297.16l-2.54-7H89.76l-2.47,7H80.76l10.73-28.68h7.22l10.88,28.68ZM91.49,285h7.22L95.1,275Z"/><path class="cls-2" d="M137.51,297.16h-5.92l-12.77-18.72h0v18.72h-6V268.48h6.08l12.65,18.41h0V268.48h6Z"/><path class="cls-2" d="M168.46,297.16h-5.93l-12.76-18.72h0v18.72h-6V268.48h6.07l12.65,18.41h0V268.48h6Z"/><path class="cls-2" d="M174.68,268.48h18v5.65H181v6h10.73v5.19H181v6.27h11.73v5.61h-18Z"/><path class="cls-2" d="M198,268.48h6.27v23h11.88v5.69H198Z"/><path class="cls-2" d="M220,268.48h18v5.65H226.28v6H237v5.19H226.28v6.27H238v5.61H220Zm15.65-9.42-5.73,6.77h-4.69l4.35-6.77Z"/><path class="cls-2" d="M413.42,299.8a9.31,9.31,0,0,1-9.3-9c-.05-1.26-5-126.74-6.18-140.9-1.49-17.49-3.61-25.08-12.8-26.8a9.32,9.32,0,1,1,3.42-18.32c24.62,4.6,26.71,29,27.95,43.53s6,136.58,6.23,141.77a9.32,9.32,0,0,1-8.95,9.67Z"/><path class="cls-2" d="M321.94,299.8h-.37a9.32,9.32,0,0,1-8.95-9.67c.2-5.19,5-127.19,6.23-141.77s3.33-38.93,27.95-43.53a9.32,9.32,0,0,1,3.42,18.32c-9.2,1.72-11.31,9.31-12.81,26.8-1.21,14.16-6.12,139.64-6.17,140.9A9.31,9.31,0,0,1,321.94,299.8Z"/><path class="cls-2" d="M369.12,334.35c-34.78,0-69.57-8.3-93.7-24.91a31.73,31.73,0,0,1-13.48-27.72c2-37.46,6.86-127.05,8.6-149.72,3.14-41,22.25-53.34,37.72-56.42,4.12-.82,7.37-2.79,11.47-5.27,5.21-3.16,11.12-6.73,19.84-8.55,10.36-2.17,16.84,0,22,1.81,2.91,1,5,1.71,7.79,1.71a9.32,9.32,0,1,1,0,18.64,40.07,40.07,0,0,1-13.8-2.71c-4.13-1.4-6.85-2.33-12.22-1.21-5.6,1.17-9.49,3.52-14,6.25-4.76,2.88-10.15,6.14-17.49,7.61-13.31,2.65-21,16-22.78,39.56-1.72,22.48-6.57,111.9-8.57,149.3A13,13,0,0,0,286,294.09c42.13,29,124.59,28.93,166.47-.16a12.82,12.82,0,0,0,5.38-11c-.83-25.7-4.79-90.37-7.16-129-.46-7.63-.86-14.2-1.16-19.2-.95-15.68-12-23.39-21.22-25.23A9.32,9.32,0,0,1,432,91.19c16.93,3.39,34.68,17.81,36.16,42.39.3,5,.7,11.56,1.17,19.18,2.37,38.73,6.34,103.57,7.17,129.54a31.36,31.36,0,0,1-13.37,26.93C439,326,404.06,334.35,369.12,334.35Z"/><path class="cls-2" d="M427.1,115.44a15.41,15.41,0,1,1,18.14-12.09A15.42,15.42,0,0,1,427.1,115.44Z"/><path class="cls-2" d="M369.4,90A15.42,15.42,0,1,0,354,74.6,15.41,15.41,0,0,0,369.4,90Z"/></svg>