<?xml version="1.0" encoding="utf-8"?>
<!-- Generator: Adobe Illustrator 23.0.1, SVG Export Plug-In . SVG Version: 6.00 Build 0)  -->
<svg version="1.1" id="Calque_1" xmlns="http://www.w3.org/2000/svg" xmlns:xlink="http://www.w3.org/1999/xlink" x="0px" y="0px"
	 viewBox="0 0 300 350" style="enable-background:new 0 0 300 350;" xml:space="preserve">
<style type="text/css">
	.st0{fill:#13007C;}
	.st1{fill:#FFFFFF;}
	.st2{fill:#897831;}
	.st3{fill:#110B79;}
	.st4{fill:none;}
</style>
<title>cuve</title>
<rect y="-42.7" class="st0" width="906.7" height="403.9"/>
<path class="st1" d="M77.7,216.8c-5.3-5.7-13.5-5.1-14.5,2.8s-3.4,46.3-4.2,56.5c5.9,10.6,38.3,42.7,60.3,45.7
	c27.6-0.6,51.2-10,72.7-7.8s55,17.6,82.7,11.5c23.4-5.1,45.7-31.2,64-39.1s17.2-10.4,19.3-13.6c2.2,0.6,4,0.2,7-0.7
	c1.3,8.5,4,28.5,8.7,37.2c6-1,6.5,4.7,13.1,4.7s4.6-6.4,5.7-23.6c1.2-20.3,11.9-13,5.6-16.7c2.8,10.1-16.1-26.5-16.1-26.5l48.9-65.4
	l19.4-36.8c0,0,8-15.6-5.1-19.7c-14,7.6-24.5,13.2-27.6,11.6s-9.5-17.4-12.1-21.7c-1.4-2.3,0.2-5.7-1.2-7.8s-2.9-0.7-4.8-3.5
	s-1.5-13.7-4-15.5s-7.8,0.7-10.8-1.7c-1.6-1.3-0.4-8-0.4-15.2s1.8-29.9-0.3-34.4s-8.4-12-7.6-25.6c0.1-2.6,0.6-5.5,0.7-10.4
	c-3,7.6-4.6,15.7-5,23.8c0,6.2,5.8,12.5,5.7,19.3s-5,17.7-6.7,30.2c-2.5,17.9,10.1,39.2,14.1,45.8c11.6,19,4.5,30.1,1.8,37.8
	c-2.3,6.7-2,10.3,2.4,16.5s1.9,8-2.6,3.1c-4.9-5.3-8.9-8.2-16.9-6.7s-25.8,7.4-40.6-14.3s-12.6-30.3-23.2-29.4s-9.1,13.9-9.1,13.9
	l19,33.9l3,51.8l-22.6,42.1l-74-31.5c0,0-15.2,0.9-28.2,4.8c-8.3,2.5-13.7,6.8-21,12.9c-8.5,7.1-24.5,24.3-35.1,15.9
	c-9.4-7.5-14.1-8-18-9c-6.2-1.5-11.3-0.3-12,2.9c-0.9,4.2,5,4.8,8.4,7.1c9.4,6.5-36.9-2.3-36.9-2.3L77.7,216.8z"/>
<path class="st2" d="M205,224.6c1.6,0.5,13-6.7,26.6-9.7c8-1.8,19.4-1.5,23.6-0.8c8,1.2-3.6-4.2-15.8-4.2
	c-18.2-0.1-25.9,6.5-31.6,7.2c-4.3-2.2-14.7-28.2-18.4-27.5s-11.6,8.6-11.3-6.1c0.4-17.9,1.3-23.2-1.2-27.4
	c-4.3-7.3-8.3-5.8-9.8-13.7c-4-20.2-0.8-45,4.9-50.9c3.6-3.8,10.9,0.4,13.4-17.7c1.3-9.3-0.9-26.1-9.4-35.1
	C190,71,172.2,79,165.8,84.6c-8.3,7.2-26.5,22.5-13.4,51.4c2.2,4.9,7.9,9.9,1.1,29.5c-3.1,8.8,4.2,14.6,6.5,12
	c1.5,4.1,2.1,5.6,3.4,7.4c2.9,0.5,5.9-0.1,8.4-1.6c1.1,3.5,1.3,7.2,0.6,10.8c-0.9,3.5-8.6-0.5-11.1-0.5s-8.8,10.1-13.6,15.8
	s-7.9,7-1.3,17.2c0,0,6,11.8,6.4,20.9c-2.4-9-5.8-15-10.2-23.2c-21.4-0.6-31.1,1.3-45.9,25c-0.9-10.7-4.9-16.2-9.9-22.8
	s-12.9-23.5-7.6-28.5s3.5-9.1,2.8-12.6s3.8-15.8,0.3-12s-5.2,4.9-9.6,21.6s-3.7,69.5,0.1,76.4s18.7,18.6,36.7,20.8
	c6.9,1,13.9-0.1,20.2-3.1c-5.4-8.7-8.9-15.5-17.3-18.6s-4-9.5,3.9-8.7s15.2,3.7,23.6,11c6.2,5.4,20.4-5.1,29.1-14.1
	c-0.1-7.3-0.8-15.7,2.4-21.7s17.6-15,18.6-18.4c1-3.3,1.4-6.7,1.2-10.1C195.2,214.9,202.7,223.9,205,224.6z"/>
<path class="st0" d="M173.1,214.4c0.4,0.4,0.8,0.8,1.3,1.2c0.4,0.4,0.8,0.7,1.3,1c0.4,0.3,0.9,0.5,1.4,0.7c0.5,0.2,1,0.4,1.6,0.5
	l-0.6,0.1c1.1-0.6,2.1-1.3,2.9-2.1c0.9-0.9,1.6-1.9,2.2-3c-0.1,1.4-0.5,2.7-1.4,3.8c-0.8,1.1-1.9,2-3.1,2.6l-0.3,0.2l-0.3-0.1
	c-0.6-0.2-1.1-0.4-1.6-0.7c-0.6-0.3-1.1-0.7-1.5-1.1C174.1,216.6,173.4,215.5,173.1,214.4z"/>
<path class="st0" d="M170.6,169.3c1,0.7,1.8,1.7,2.4,2.8c0.3,0.6,0.5,1.2,0.6,1.8c0.1,0.6,0.2,1.3,0.2,1.9l-0.5-0.3
	c0.2-0.1,0.4-0.2,0.7-0.2c0.3-0.1,0.6,0,0.8,0.1c0.4,0.3,0.7,0.9,0.6,1.4c0,0.5-0.1,0.9-0.4,1.4c-0.3,0.5-0.8,0.8-1.3,0.9l0.5-0.4
	c-0.2,1.1-0.6,2.2-1,3.3c-0.5,1.1-1.1,2-2,2.8l-0.1-0.1c0.5-1,1-2,1.3-3c0.3-1,0.5-2.1,0.9-3.2l0,0c0.1-0.2,0.2-0.3,0.4-0.3
	c0.2,0,0.5-0.1,0.6-0.4c0.2-0.3,0.3-0.6,0.3-0.9c0-0.3-0.1-0.7-0.2-0.8s-0.5-0.1-0.8,0.1l0,0c-0.2,0.1-0.4,0-0.4-0.1
	c0-0.1,0-0.1,0-0.2c0.1-1.2-0.1-2.3-0.5-3.4c-0.4-1.1-1.1-2.1-2.1-2.9L170.6,169.3z"/>
<path class="st0" d="M162.3,204.9c-4.3,3.8-11.5,10.4-12.2,12.8c0.9,3.4,2.2,7.3,3.5,11c1.2,3.6,2.2,7.2,2.8,10.9
	c-0.1-8.3-1.6-12.4-2.4-16.4c2.3-1.9,4.4-4.1,6.3-6.4c3.1,1.2,4.6,0.9,5.6,0.5c-3.2-0.7-5.6-3.3-6.1-6.5
	C162.1,208,161.9,207.4,162.3,204.9z"/>
<path class="st0" d="M160.9,180.4c-1.5-1.8-2.2-4.2-2-6.6c0.1-0.8,0.2-1.5,0.5-2.3c0,1.5,0.1,3,0.3,4.5
	C160,177.5,160.4,179,160.9,180.4z"/>
<path class="st2" d="M191.3,220.1c-3.8,3.8-11.9,10.5-15.9,13.7s-5.6,11.3-5.6,15.5s-0.4,8.5,3.3,6s20.6-17.3,27.7-20
	s11.4-4.7,23.3-3.8s49.2,14.9,61.5,14.4c11.3-12.8,21.6-31.3,19.5-59.8c-3.8-4.9-3.9-5.3-5.9-7.9c3.9,3.3,7.3,6.2,7.8,6.1
	c1.2-0.1,1.6-5,2-6.7c-0.5,7.2-0.5,18.7-2.7,32.5c-2.1,13.4-11.2,28.4-20.4,38.9c-18.6-2.7-47.1-13.7-60.2-15
	c-15.4-1.6-25.2,3.5-30.8,8c14.4-2,26.1-2.3,44.4,6.6c13.3,6.4,43.4,22,56.7,26.3c16.3-13.6,39.7-33.7,35.3-73.9
	c-3.4-31.7-21.7-49.4-31-60.6c-7.7-9.2-12.2-29.3-14.3-35.7c-2,3.8-4.3,3.8-5.6,3.5c3.5-4.3,4.4-6.6,3-11.8
	c-5.1-0.1-17.2,0.2-24.6-3.8c-3.1-1.7-1.5-6.9,0.2-10.4c1.3-2.7,1.8-5.7,1.4-8.7c-3.6-2.5-7.3-5.6-16.2-5.8
	c6.1-2.2,16.3,1.1,19.1,4.5c0.8,11.4-5.4,16-2.5,18s10,3,20.3,3.6c12.3,0.8,9.5,26.2,21.8,26.8s7.1-19.2,15.8-19s5.8,43.4,23.4,43.1
	c9.9-0.2,6.2-20.5,13.2-20.7s16.3,32.9-2,34.4c4.5,8.4,22.4,5.6,22.8-28.3s-22-43.6-28.7-27.4s-7.9-8.4-8.1-13.5s0.4-14-8.1-17.3
	s-17.5,4.6-25.9,17s-16,7.3-21.4-9.4s-10.6-24.9-32.6-21.4s-25.2,15.3-25.7,25.2c-1,20.4,16.3,42.5,25.6,13.9
	c8.4,6.8-2.4,11.4-8,16.7s-17,18.4-23.4,20.8s-20.4-2.8-23.3-2.3s-13.1,10.1-18.4,13.7c-3.2,2.2,6.8,3.1,10.4-0.2s7.1-7,9.6-7.5
	c7.7-1.3,15.6,5.4,22.6,3.6c10.7-2.7,27.2-15.8,36.6-25.5c-0.6,3.2-1.3,4.2-1.8,6.3c5.1,0.9,14.3,4.2,17.2,7.5s7,11.1,1.8,20.6
	s-11.4,19.5-4.5,40.9c3.9,12.3,2.6,16.8,2.8,25.4c-8.2-1.3-28.1-3.1-41.6,0.1s-20.2,8.2-25.3,9.3S194.8,216.6,191.3,220.1z"/>
<path class="st0" d="M234.7,88.6c0.7,0.6,1.4,1.2,2.2,1.7c0.8,0.5,1.6,0.9,2.4,1.3c0.3,0.2,0.4,0.6,0.3,0.9c0,0.1-0.1,0.1-0.1,0.1
	l0,0c-0.2,0.2-0.3,0.4-0.4,0.7l0,0c0.1,0.1,0.2,0.1,0.3,0.1c0.3,0.1,0.6,0.1,0.9,0c0.3-0.1,0.7-0.3,1-0.4l0.1-0.1
	c0.1-0.1,0.3-0.1,0.4,0c0.9,0.3,1.9,0.5,2.9,0.5c1,0.1,2,0,3.1,0c-0.9,0.5-2,0.8-3,0.9c-1.1,0.1-2.2,0.1-3.2-0.2l0.6-0.1
	c-0.4,0.3-0.9,0.5-1.4,0.7c-0.5,0.2-1.1,0.2-1.7,0.1c-0.3-0.1-0.6-0.2-0.9-0.4c-0.3-0.3-0.5-0.7-0.5-1.1c0.1-0.6,0.4-1.2,0.9-1.6
	l0.1,1c-0.8-0.5-1.6-1.1-2.3-1.7C235.6,90.3,235.1,89.5,234.7,88.6z"/>
<path class="st0" d="M273,111.2c1.7,1.8,1.8,4.6,0.3,6.6c-0.8,1-2,1.7-3.2,1.8c-1.2,0.1-2.3-0.2-3.3-0.8c1-0.2,1.9-0.5,2.9-0.8
	c0.7-0.3,1.4-0.8,1.9-1.5c0.5-0.7,0.8-1.4,1-2.3C272.8,113.2,273,112.2,273,111.2z"/>
<path class="st2" d="M189.5,149.3c5.2-1.2,12-2.9,13.9-3.5c0.2-0.1,0.4,0,0.6,0.1c0.3,0.3,0.6,0.6,1,0.8c0.2,0.2,0.2,0.4,0.1,0.6
	c0,0-0.1,0.1-0.1,0.1c-1.1,0.6-2,1.5-2.6,2.6c0.9-0.7,1.9-1.3,3-1.7c1-0.4,1.3,0.7,0.2,1.3s-9.1,5.1-12.6,8.5
	c-0.2,0.2-0.5,0.2-0.7,0.1c-0.1-0.1-0.1-0.1-0.2-0.2c-0.4-1.1-0.5-2-0.9-2.5s-1.9,0.8-4,0.5s2.4-1.7,2.5-3s0.2-2.2-0.2-2.4
	c-0.4-0.2-0.5-0.6-0.3-1C189.1,149.4,189.3,149.3,189.5,149.3z"/>
<path class="st3" d="M166.6,315.5c3.3-0.9,6.6-2,9.8-3.4c3.2-1.3,6.3-2.8,9.4-4.3c6.2-3,12.3-6.3,18.7-9.1c3.2-1.5,6.4-2.7,9.8-3.8
	c3.4-1.1,6.9-1.8,10.4-1.9c1.8,0,3.5,0.1,5.2,0.2s3.5,0.4,5.2,0.7c1.7,0.3,3.4,0.7,5.1,1.2c1.7,0.5,3.3,1.1,4.8,2
	c-3.2-1.2-6.6-1.9-10-2.1c-3.4-0.3-6.8-0.4-10.2-0.3c-3.4,0.2-6.7,0.9-9.9,2c-3.2,1-6.4,2.4-9.6,3.7c-6.3,2.8-12.5,5.9-18.8,8.7
	S173.4,314.5,166.6,315.5z"/>
<path class="st3" d="M217.5,293.8c1.9-1.1,3.8-2.4,5.5-3.9c1.7-1.5,3.3-3.1,4.8-4.8c1.5-1.7,2.9-3.5,4.2-5.5c1.3-1.9,2.5-3.9,3.5-6
	c-0.9,2.1-1.9,4.2-3,6.2c-1.2,2-2.4,4-3.8,5.8c-1.4,1.9-3,3.7-4.7,5.3c-1.7,1.7-3.5,3.2-5.5,4.5L217.5,293.8z"/>
<path class="st0" d="M144,255c-0.5,0.4-1.1,0.8-1.6,1.2l-1.7,1.1c-0.6,0.4-1.1,0.8-1.7,1.1l-1.8,1l-1.7,1c-0.6,0.3-1.2,0.6-1.8,0.9
	c-2.1,1.1-4.3,2.1-6.6,2.9c0.5,0.2,0.9,0.4,1.4,0.7c1.9-0.8,3.8-1.8,5.6-2.8c0.6-0.3,1.2-0.6,1.8-1l1.7-1.1l1.7-1.1
	c0.6-0.4,1.1-0.8,1.6-1.2l1.6-1.2c0.5-0.4,1.1-0.8,1.6-1.3l3-2.8L144,255z"/>
<path class="st0" d="M109.4,268.7c-2.2,0.3-4.4,0.4-6.6,0.5c-1.3,0.1-2.7,0-4,0c-0.7,0-1.3-0.1-2-0.2s-1.3-0.1-2-0.2
	c-1.3-0.2-2.6-0.4-3.9-0.7l-1-0.2l-0.5-0.1l-0.5-0.2l-1.7-0.6c-1.1-1.9-2-3.8-2.8-5.8c-0.8-2.1-1.7-4.2-2.4-6.3s-1.5-4.3-2.3-6.4
	l-1.2-3.7v1c0.2,1,0.5,1.9,0.8,2.9c0.6,2.2,1.2,4.4,1.9,6.5s1.4,4.3,2.2,6.5c0.8,2.2,1.7,4.3,2.9,6.3l0.1,0.1l0.2,0.1
	c5.2,2.2,10.7,2.7,16.2,2.6c2.9-0.1,5.8-0.3,8.6-0.8C110.7,269.6,110.1,269.2,109.4,268.7z"/>
<rect x="13.2" y="-4.5" class="st4" width="252.9" height="367.2"/>
</svg>
