<?xml version="1.0" encoding="utf-8"?>
<!-- Generator: Adobe Illustrator 23.0.1, SVG Export Plug-In . SVG Version: 6.00 Build 0)  -->
<svg version="1.1" id="Calque_1" xmlns="http://www.w3.org/2000/svg" xmlns:xlink="http://www.w3.org/1999/xlink" x="0px" y="0px"
	 viewBox="0 0 450 350" style="enable-background:new 0 0 450 350;" xml:space="preserve">
<style type="text/css">
	.st0{fill:url(#SVGID_1_);}
	.st1{opacity:0.6;}
	.st2{fill:#FFFFFF;}
</style>
<title>meteo</title>
<linearGradient id="SVGID_1_" gradientUnits="userSpaceOnUse" x1="439.3003" y1="12.2304" x2="6.6304" y2="340.8604" gradientTransform="matrix(1 0 0 -1 0 350)">
	<stop  offset="0" style="stop-color:#FF3E7B"/>
	<stop  offset="1" style="stop-color:#FFCD46"/>
</linearGradient>
<rect class="st0" width="450" height="350"/>
<g class="st1">
	<path class="st2" d="M143.8,303.3H-27.2c-23,0-41.7-18.7-41.7-41.7c0.1-16.6,10-31.6,25.2-38.2c-0.1-1.2-0.1-2.4-0.1-3.6
		c0-31.3,25.3-56.6,56.6-56.6c9.1,0,18.1,2.2,26.2,6.4c25.9-27.1,68.8-28.1,95.9-2.2c13.4,12.8,21,30.5,21,49.1
		c0,1.8-0.1,3.5-0.2,5.3c22,6.6,34.6,29.8,28,51.8C178.4,291.2,162.2,303.3,143.8,303.3L143.8,303.3z M144.2,290.5L144.2,290.5z
		 M12.9,175.9c-24-0.2-43.7,19.1-43.9,43.1c0,2.5,0.2,5.1,0.6,7.6c0.5,3.2-1.5,6.3-4.6,7.1c-12.4,3.5-21,14.9-21.1,27.8
		c0,16,13,28.9,28.9,28.9h171.1c16-0.2,28.8-13.2,28.6-29.2c-0.1-14.3-10.7-26.3-24.8-28.3c-3.5-0.5-5.9-3.7-5.5-7.2
		c0-0.1,0-0.1,0-0.2c0.5-3,0.8-6.1,0.8-9.2c0-30.4-24.6-55.1-55-55.1c-16.6,0-32.4,7.5-42.8,20.4c-2,2.6-5.7,3.2-8.5,1.4
		C29.7,178.4,21.4,175.9,12.9,175.9L12.9,175.9z"/>
	<path class="st2" d="M163.6,238.8c-3.5,0-6.4-2.9-6.4-6.4c0-2.4,1.4-4.6,3.5-5.7c14.4-7.2,24.1-21.5,25.3-37.5
		c1.9-25.2-17-47.2-42.2-49.2c-15.8-1.2-31.2,5.9-40.5,18.7c-2.1,2.9-6.1,3.5-8.9,1.4c-2.9-2.1-3.5-6.1-1.4-8.9
		c19.1-26.1,55.8-31.8,81.9-12.7c16.3,11.9,25.3,31.5,23.8,51.7c-1.6,20.6-13.9,38.8-32.4,48C165.5,238.6,164.6,238.8,163.6,238.8z"
		/>
	<path class="st2" d="M146,119.9c-0.2,0-0.3,0-0.5,0c-3.5-0.3-6.1-3.3-5.9-6.8c0,0,0,0,0,0l2.3-30.4c0.3-3.5,3.3-6.2,6.8-5.9
		c3.5,0.3,6.2,3.3,5.9,6.8l-2.3,30.4C152.1,117.3,149.3,119.8,146,119.9z"/>
	<path class="st2" d="M98.3,133.2c-2.1,0-4-1-5.2-2.7l-17.8-24.8c-1.9-2.9-1.1-6.9,1.8-8.9c2.8-1.8,6.5-1.2,8.6,1.4l17.8,24.8
		c2.1,2.9,1.4,6.9-1.5,8.9C100.9,132.8,99.6,133.2,98.3,133.2L98.3,133.2z"/>
	<path class="st2" d="M225.3,250.2c-1.3,0-2.5-0.4-3.6-1.1l-25.2-17.2c-2.9-2-3.7-6-1.7-8.9c2-2.9,6-3.7,8.9-1.7l25.2,17.2
		c2.9,2,3.6,6,1.6,8.9C229.4,249.1,227.5,250.2,225.3,250.2L225.3,250.2z"/>
	<path class="st2" d="M212.5,185c-3.5,0-6.4-2.8-6.4-6.3c0-3.3,2.5-6.1,5.8-6.4l30.3-3c3.5-0.3,6.6,2.2,7,5.7c0.3,3.5-2.2,6.6-5.7,7
		l-30.4,3C212.9,184.9,212.7,185,212.5,185z"/>
	<path class="st2" d="M191.1,140.3c-3.5,0-6.4-2.8-6.4-6.4c0-1.7,0.7-3.3,1.8-4.5l21.3-21.8c2.5-2.5,6.5-2.5,9,0
		c2.5,2.5,2.5,6.4,0.1,9l-21.4,21.8C194.4,139.6,192.8,140.3,191.1,140.3z"/>
</g>
</svg>
