<?xml version="1.0" encoding="utf-8"?>
<!-- Generator: Adobe Illustrator 23.0.1, SVG Export Plug-In . SVG Version: 6.00 Build 0)  -->
<svg version="1.1" id="Calque_1" xmlns="http://www.w3.org/2000/svg" xmlns:xlink="http://www.w3.org/1999/xlink" x="0px" y="0px"
	 viewBox="0 0 400 350" style="enable-background:new 0 0 400 350;" xml:space="preserve">
<style type="text/css">
	.st0{fill:#1FC2BE;}
	.st1{fill:#E9E9E9;}
	.st2{fill:#232F8F;}
	.st3{fill:#FFFFFF;}
	.st4{fill:#0B1248;}
	.st5{fill:#EA4F3D;}
</style>
<title>snippets</title>
<g>
	<rect class="st0" width="400" height="350"/>
	<path class="st1" d="M55.9,124.7h155c4.1,0,7.4,3.3,7.4,7.5v90.6c0,4.1-3.3,7.4-7.4,7.4h-155c-4.1,0-7.5-3.3-7.5-7.4v-90.6
		C48.5,128.1,51.8,124.7,55.9,124.7z"/>
	<path class="st2" d="M212.8,237.7H54c-7.2,0-13.1-5.8-13.1-13.1v-94.3c0-7.2,5.9-13.1,13.1-13.1h158.8c7.2,0,13.1,5.9,13.1,13.1
		v94.3C225.9,231.9,220,237.7,212.8,237.7z M56,222.7h154.9v-90.4H56V222.7z"/>
	<rect x="124.8" y="231.5" class="st2" width="17.2" height="25.1"/>
	<path class="st2" d="M167.8,261.9H98.4c-2.9,0-5.3-2.4-5.3-5.3s2.4-5.3,5.3-5.3l0,0h69.4c2.9,0,5.3,2.4,5.3,5.3
		C173.1,259.6,170.7,261.9,167.8,261.9z"/>
	<rect x="81.9" y="132.3" class="st3" width="103.8" height="89.9"/>
	<rect x="90.5" y="147.6" class="st4" width="45" height="4.6"/>
	<rect x="90.5" y="162.4" class="st5" width="54.2" height="3.4"/>
	<rect x="90.5" y="170.3" class="st5" width="54.2" height="3.4"/>
	<rect x="90.5" y="178.2" class="st5" width="54.2" height="3.4"/>
	<rect x="90.5" y="186.2" class="st5" width="54.2" height="3.4"/>
	<rect x="148.6" y="200.2" class="st5" width="28.4" height="2.5"/>
	<rect x="148.6" y="205.8" class="st5" width="28.4" height="2.5"/>
	<rect x="148.6" y="211.8" class="st5" width="28.4" height="2.5"/>
	<rect x="148.6" y="217.7" class="st5" width="28.4" height="2.5"/>
	<rect x="149" y="161.8" class="st1" width="28.4" height="28.4"/>
	<rect x="90.5" y="200.5" class="st1" width="54.2" height="21.8"/>
	<path class="st0" d="M203.5,189.2H246c4.6,0,8.3,3.7,8.3,8.3V285c0,4.6-3.7,8.3-8.3,8.3h-42.5c-4.6,0-8.3-3.7-8.3-8.3v-87.5
		C195.2,192.9,198.9,189.2,203.5,189.2z"/>
	<path class="st2" d="M248.1,297.1h-46.7c-5.5,0-10-4.5-10-10v-91.6c0-5.5,4.5-10,10-10h46.7c5.5,0,10,4.5,10,10v91.7
		C258.1,292.6,253.6,297.1,248.1,297.1z M201.4,192.9c-1.4,0-2.5,1.1-2.5,2.5v91.7c0,1.4,1.1,2.5,2.5,2.5h46.7
		c1.4,0,2.5-1.1,2.5-2.5v-91.7c0-1.4-1.1-2.5-2.5-2.5L201.4,192.9L201.4,192.9z"/>
	<rect x="198.9" y="192.9" class="st3" width="51.7" height="96.7"/>
	<rect x="204.1" y="214.4" class="st5" width="28.4" height="2.5"/>
	<rect x="204.1" y="220.1" class="st5" width="28.4" height="2.5"/>
	<rect x="204.1" y="226" class="st5" width="28.4" height="2.5"/>
	<rect x="204.1" y="232" class="st5" width="28.4" height="2.5"/>
	<rect x="204.1" y="272.5" class="st5" width="28.4" height="2.5"/>
	<rect x="204.1" y="278.4" class="st5" width="28.4" height="2.5"/>
	<rect x="204.3" y="204.8" class="st4" width="35" height="4.1"/>
	<rect x="204.2" y="240.9" class="st1" width="41.2" height="27.7"/>
</g>
</svg>
