<?xml version="1.0" encoding="utf-8"?>
<!-- Generator: Adobe Illustrator 23.0.1, SVG Export Plug-In . SVG Version: 6.00 Build 0)  -->
<svg version="1.1" id="Calque_1" xmlns="http://www.w3.org/2000/svg" xmlns:xlink="http://www.w3.org/1999/xlink" x="0px" y="0px"
	 viewBox="0 0 400 300" style="enable-background:new 0 0 400 300;" xml:space="preserve">
<style type="text/css">
	.st0{fill:#753E9A;}
	.st1{fill:#FFFFFF;}
	.st2{clip-path:url(#SVGID_2_);}
	.st3{fill:#F99DC4;}
	.st4{opacity:0.5;fill:#753E9A;enable-background:new    ;}
	.st5{fill:#D0E941;}
</style>
<title>triomemo</title>
<rect class="st0" width="400" height="300"/>
<circle class="st1" cx="76.1" cy="172.1" r="118.1"/>
<g>
	<defs>
		<rect id="SVGID_1_" x="-2.8" y="-3.3" width="524.8" height="309"/>
	</defs>
	<clipPath id="SVGID_2_">
		<use xlink:href="#SVGID_1_"  style="overflow:visible;"/>
	</clipPath>
	<g class="st2">
		<path class="st3" d="M129.3,179.2c0,30.6-24.8,55.5-55.5,55.5c-30.6,0-55.5-24.8-55.5-55.5s24.8-55.5,55.5-55.5h0
			C104.5,123.7,129.3,148.6,129.3,179.2z"/>
		<path class="st4" d="M103.6,178.6c0,16.5-13.3,29.8-29.8,29.8c-16.5,0-29.8-13.3-29.8-29.8c0-16.5,13.3-29.8,29.8-29.8
			c0,0,0,0,0,0C90.2,148.8,103.5,162.1,103.6,178.6z"/>
		<path class="st5" d="M73.8,66.2c61.6,0,111.6,50,111.6,111.6c0,61.6-50,111.6-111.6,111.6c-29.6,0-58-11.8-78.9-32.7
			c-43.6-43.6-43.6-114.3,0-157.8C15.8,78,44.2,66.2,73.8,66.2 M73.8,34.4c-79.2,0-143.4,64.2-143.4,143.4S-5.4,321.2,73.8,321.2
			S217.2,257,217.2,177.8l0,0C217.2,98.6,153,34.4,73.8,34.4z"/>
	</g>
</g>
</svg>
