<svg id="Calque_1" data-name="Calque 1" xmlns="http://www.w3.org/2000/svg" xmlns:xlink="http://www.w3.org/1999/xlink" viewBox="0 0 450 350"><defs><clipPath id="clip-path"><rect x="39.38" y="28.11" width="440.96" height="358.1" style="fill:none"/></clipPath></defs><title>vignette-guillemets</title><rect x="-15" y="-15" width="480" height="380" style="fill:#0f218b"/><path d="M81.41,129.81V118.1h10v11.71Zm7.52,0v-5.53a2.52,2.52,0,1,0-5,0v5.53Z" style="fill:#171968"/><polygon points="81.41 118.1 86.41 99.93 91.41 118.1 81.41 118.1" style="fill:#171968"/><path d="M243,113.62s-10.24-1.09-14.1-9.21c-4.85,9.8,4.15,18.12,9.4,14.65s2.08,10.63,2.08,10.63,4.55.06,6.13-4-.79-11.28,1.89-12,5.14-4.66,2.47-6.14-4.75,2.28-4.45,4.06A37.14,37.14,0,0,0,243,100C239.79,102.33,238.83,111.88,243,113.62Z" style="fill:#171968"/><polygon points="373.03 241.93 373.03 109.79 379.97 134.57 401.44 134.57 409.37 109.79 409.37 241.93 373.03 241.93" style="fill:#171968"/><polygon points="379.97 134.57 401.44 134.57 390.71 62 379.97 134.57" style="fill:#171968"/><path d="M529,252.11V429.67H-60.33V252.11h24.14V185l7.23-7.95H31.21L39.1,185v67.07H53.89V174.85l11.32-38.79,10.05,38.66,6.15-44.91h10l5.2,45,11.75-38.93L119,174.85v77.26h14.92V185l7.23-7.95h60.17L209.2,185v67.07h19.18v-10.6c5.18-9.37,4-20.22,4-20.22l5.14-5v-79.4h-5.55v-7.15h22.19v7.15h-5.55v79.4l5.14,5s-1.23,10.85,3.95,20.22v10.6H279.4V185l7.23-7.95h42.65l7.89,7.95v67.07h9.12V185l7.23-7.95h62.3l7.89,7.95v67.07h16.82V189h-9.62l43.4-28.36L517.71,189h-9.62v63.08ZM86.41,212.82h9V199.18c0-7.15-5.21-11.09-9-12.57-3.81,1.48-9,5.42-9,12.57v13.64Zm405.36,39.29v-34c0-22.19-34.92-21.2-34.92,0v34Z" style="fill:#171968"/><g style="clip-path:url(#clip-path)"><path d="M236.58,65.5C292.17,8.78,400.67,33.82,422.5,129.59c16.77,73.55,22.64,151.57,66.78,170.68,24,10.4-240.51,213.18-351.72,194.53-67.41-11.3-65.91-112.43,0-205.55C186.53,220.06,193.3,109.66,236.58,65.5Z" style="fill:#f22b92"/><path d="M452.68,392.72l11.41-103.08c-14.33-20.8-48.08-17.95-82.37-13.35-25,3.34-61.87-27-46.19-94.44,24.5-19.42,4.5-44.77-14.76-25-28-9.81-51.41-40.14-60.33-78.82l-59.53,95.21,24.93,7.59,4.83,61.72,45-11.54S282,275.51,268,288.4c-22.81,21-40.16,7.87-70.63,12-44.48,5.95-59.79,64.1-59.79,64.1" style="fill:#f3bfd3"/><path d="M381.92,276.27c-25,3.35-61.88-27-46.2-94.43,24.5-19.42,4.51-44.78-14.75-25A66.81,66.81,0,0,1,310.25,152h0c-27.53,47.23-80.71,73.6-80.71,73.6l1.33,17,45-11.54.69,11.08h0c30.26-9.89,35.31,9.36,42.82,28.07s10.17,37.57,29.93,36.3c32-2,87.63-3.78,98.36,14.42l16.61-31.25C450,268.82,416.21,271.68,381.92,276.27Z" style="fill:#f38db6"/><path d="M464.29,289.63c55.4,49.45,75.44,84.7,86.36,106.41,6.43,46.34-13.06,87.33-29.7,115.39l-24.6-11.88,15.7-91.78-75.93-65.48Z" style="fill:#f3bfd3"/><circle cx="124.46" cy="-10.49" r="25.75" style="fill:#019898"/><circle cx="110.11" cy="-1.93" r="25.75" style="fill:#27aab2"/><polygon points="56.24 -11.01 85.45 -47.38 113.56 -31.24 90.96 2.5 56.24 -11.01" style="fill:#f3bfd3"/><path d="M74.42,8.63l27.46-30.21C106.07-1,93.28,13,84.92,21.77Z" style="fill:#f38db6"/></g><path d="M381.73,276.29a31.72,31.72,0,0,1-12.26-.89c-28.61,72.3-126.25,61.78-101.5,13-22.8,21-39.39,6.87-69.26,11.13-55.13,7.86-74.16,86.67-74.16,86.67s14.08-5.44,25,8.8l303.13-2.28,11.11-103.5C449.3,268.88,415.78,271.73,381.73,276.29Z" style="fill:#202f92"/><circle cx="332.78" cy="160.77" r="35.51" style="fill:#27aab2"/><path d="M320.12,143.46s1.53-69.38-14.94-114.38c17-2.8,32.85.94,40.35,4.69,4.74,12.45,8.49,65.26-2,109.69Z" style="fill:#27aab2"/><circle cx="332.78" cy="160.77" r="25.83" style="fill:#019898"/></svg>