<?xml version="1.0" encoding="utf-8"?>
<!-- Generator: Adobe Illustrator 23.0.1, SVG Export Plug-In . SVG Version: 6.00 Build 0)  -->
<svg version="1.1" id="Calque_1" xmlns="http://www.w3.org/2000/svg" xmlns:xlink="http://www.w3.org/1999/xlink" x="0px" y="0px"
	 viewBox="0 0 800 600" style="enable-background:new 0 0 800 600;" xml:space="preserve">
<style type="text/css">
	.st0{fill:#4393C3;}
	.st1{fill:#FFFFFF;}
	.st2{fill:#EBBBC6;}
	.st3{fill:none;stroke:#FFFFFF;stroke-width:8.208;stroke-miterlimit:10;}
	.st4{clip-path:url(#SVGID_2_);}
	.st5{clip-path:url(#SVGID_4_);}
	.st6{fill:none;stroke:#FFFFFF;stroke-width:0.6862;stroke-miterlimit:10;}
	.st7{fill:none;stroke:#4393C3;stroke-width:0.7566;stroke-miterlimit:10;}
	.st8{clip-path:url(#SVGID_6_);}
	.st9{clip-path:url(#SVGID_8_);}
	.st10{clip-path:url(#SVGID_10_);}
	.st11{clip-path:url(#SVGID_12_);}
	.st12{fill:none;stroke:#FFFFFF;stroke-width:9.2097;stroke-miterlimit:10;}
	.st13{clip-path:url(#SVGID_14_);}
	.st14{clip-path:url(#SVGID_16_);}
	.st15{fill:none;stroke:#FFFFFF;stroke-width:0.7699;stroke-miterlimit:10;}
	.st16{fill:none;stroke:#4393C3;stroke-width:0.8588;stroke-miterlimit:10;}
</style>
<title>vignette-listeners</title>
<rect y="0" class="st0" width="800" height="600"/>
<polygon class="st1" points="254.1,523.5 290.1,523.5 290.1,468.1 254.1,435 218.1,468.1 218.1,523.5 "/>
<polygon class="st2" points="300.2,533.5 326.4,533.5 326.4,493.3 300.2,469.2 274,493.3 274,533.5 "/>
<line class="st3" x1="65.2" y1="297.9" x2="64.4" y2="504.4"/>
<line class="st3" x1="13" y1="349" x2="64.8" y2="383.8"/>
<line class="st3" x1="12.9" y1="376.8" x2="38.9" y2="366.4"/>
<line class="st3" x1="109.3" y1="329" x2="64.9" y2="359.7"/>
<line class="st3" x1="96" y1="318.4" x2="95.9" y2="338.2"/>
<line class="st3" x1="44" y1="301.8" x2="65.1" y2="315.1"/>
<g>
	<defs>
		
			<ellipse id="SVGID_1_" transform="matrix(3.868428e-03 -1 1 3.868428e-03 -341.4129 378.9532)" cx="19.5" cy="360.8" rx="29" ry="53.4"/>
	</defs>
	<clipPath id="SVGID_2_">
		<use xlink:href="#SVGID_1_"  style="overflow:visible;"/>
	</clipPath>
	<g class="st4">
		<g>
			<defs>
				
					<rect id="SVGID_3_" x="-138.8" y="140.7" transform="matrix(3.868428e-03 -1 1 3.868428e-03 -357.1819 310.7159)" width="232.4" height="387.8"/>
			</defs>
			<clipPath id="SVGID_4_">
				<use xlink:href="#SVGID_3_"  style="overflow:visible;"/>
			</clipPath>
			<g class="st5">
				<path class="st6" d="M-226,248.1c94.5-0.5,134.9-24.7,264.8-7.5c80.5,10.7,151.3,15.3,151.3,15.3"/>
				<path class="st6" d="M-226,250.6c69.3,0.8,105.3-8.8,168.8-9.7c32.2-0.5,64.3,0.8,96.4,4.1c21.9,2.2,43.2,3.9,63.1,5.7
					c50.1,4.6,88.4,8.8,88.4,8.8"/>
				<path class="st6" d="M-226,253c72.4,2,104.6-5.2,169.1-5.8c29.5-0.2,59.7-0.4,96.5,2.1c21.7,1.5,42.8,2.3,63.2,3.9
					c49,3.9,88.4,9.7,88.4,9.7"/>
				<path class="st6" d="M-226,255.7c75.4,3.2,104-1.6,169.4-2c30.9-0.1,60.9-1.1,96.6,0.2c21.5,0.8,42.5,0.8,63.3,2.2
					c29.7,2,59.2,5.6,88.5,10.7"/>
				<path class="st6" d="M-226.1,259.2c78.4,4.4,103.3,2,169.6,1.9c32.3,0.1,62.1-1.1,96.8-1.8c21.3-0.5,42.1-0.8,63.3,0.4
					c29.8,1.8,59.4,5.7,88.6,11.6"/>
				<path class="st6" d="M-226.1,263.2c81.4,5.6,102.6,5.6,169.9,5.8c33.8,0.2,63.3-2.6,96.9-3.8c21.1-0.8,41.7-2.3,63.5-1.4
					c45.7,1.9,88.6,12.6,88.6,12.6"/>
				<path class="st6" d="M-226.1,267.5c84.5,6.8,102,9.2,170.2,9.6c35.2,0.3,64.4-3.4,97-5.8c20.9-1.5,41.4-3.8,63.5-3.1
					c44.7,1.3,88.7,13.5,88.7,13.5"/>
				<path class="st6" d="M-226.1,271.8c87.5,8,101.3,12.7,170.5,13.5c36.6,0.5,65.6-4.1,97.1-7.8c20.7-2.3,41-5.3,63.6-4.9
					c43.6,0.7,88.8,14.4,88.8,14.4"/>
				<path class="st6" d="M-226.1,275.1c90.5,9.2,100.7,16.3,170.7,17.3c38,0.6,66.8-5,97.3-9.7c20.5-3.2,40.6-7.1,63.7-6.7
					c42.5,0.8,88.8,15.4,88.8,15.4"/>
				<path class="st6" d="M-226.1,278c93.6,10.4,100,19.9,171,21.2c39.4,0.8,68-5.9,97.4-11.7c20.3-4,40.2-8.2,63.8-8.4
					c41.3-0.4,88.9,16.4,88.9,16.4"/>
				<path class="st6" d="M-226.1,280.9c96.6,11.6,99.3,23.5,171.3,25c40.9,0.9,69.1-6.8,97.5-13.7c20.1-4.9,39.8-9.7,63.9-10.2
					c40.3-0.9,88.9,17.3,88.9,17.3"/>
				<path class="st6" d="M-226.1,283.8c99.6,12.8,98.7,27.1,171.5,28.9s103.2-25.5,161.7-27.6c39.2-1.4,89,18.2,89,18.2"/>
				<path class="st6" d="M-226.3,290.6c96.3,10.3,101.8,23.1,171.9,26.3c22.8,1.2,45.7-1.1,67.9-6.8c13.9-3.5,26-8.4,39.6-11.5
					c16.5-3.7,32.7-7.1,53.4-7.6c4.1-0.1,8.3,0,12.5,0.3c35.6,2.4,75.3,16.7,76.4,16.5"/>
				<path class="st6" d="M-226.5,297.4c93,7.8,105,19.4,172.3,23.8c30.2,2,49.6-1.6,67.6-6c13.8-3.5,25.1-9.3,39.2-11.8
					c16.5-2.9,32.1-6,53.2-6.1c4,0,8.2,0.1,12.5,0.5c34.7,2.5,74.1,15.3,76.3,15"/>
				<path class="st6" d="M-226.7,304.1c89.6,5.4,108.2,15.8,172.7,21.2c31.6,2.7,49.9-0.9,67.3-5.3c13.7-3.4,24.2-10.2,38.9-12.1
					c16.5-2.1,31.5-4.9,53.1-4.7c4,0,8.1,0.2,12.4,0.6c33.8,2.7,73,14,76.2,13.5"/>
				<path class="st6" d="M-226.9,310.9c86.3,2.9,111.4,12.3,173,18.6c33,3.4,50.1-0.3,67-4.5c13.6-3.5,23.2-11.1,38.5-12.4
					c16.6-1.4,30.9-3.8,52.9-3.3c3.9,0.1,8.1,0.3,12.4,0.7c32.9,2.9,71.8,12.6,76.2,12"/>
				<path class="st6" d="M-227.1,317.6c83,0.4,114.6,8.9,173.4,16.1c34.4,4.2,50.5,0.3,66.8-3.8c13.5-3.5,22.2-12.1,38.1-12.7
					c16.6-0.7,30.3-2.7,52.8-1.8c3.9,0.2,8,0.4,12.3,0.8c32,3,70.6,11.3,76.1,10.5"/>
				<path class="st6" d="M-227.3,324.5c79.6-2.1,117.8,5.7,173.8,13.5c35.7,5,50.8,1,66.5-3.1c13.4-3.5,21.3-12.4,37.7-13.1
					c16.6-0.7,29.7-1.6,52.6-0.4c3.9,0.2,7.9,0.5,12.3,0.9c31.1,3.1,69.4,9.9,76.1,9"/>
				<path class="st6" d="M-227.5,331.3c76.3-4.6,120.9,2.5,174.1,10.9c37.1,5.9,51.1,1.6,66.2-2.3c13.2-3.5,20.3-14,37.3-13.4
					c16.6,0.6,29.1-0.6,52.5,1c3.8,0.3,7.9,0.6,12.2,1.1c30.2,3.2,68.3,8.6,76,7.5"/>
				<path class="st6" d="M-227.7,338.6c73-7.1,124-0.6,174.5,8.4c38.4,6.9,51.4,2.2,65.9-1.6c13.1-3.5,19.4-15,36.9-13.7
					c16.6,1.3,28.5,0.5,52.3,2.5c3.8,0.3,7.8,0.7,12.2,1.2c29.3,3.3,67.1,7.3,75.9,6"/>
				<path class="st6" d="M-227.9,346c69.6-9.5,127.2-3.7,174.9,5.8c39.8,7.9,51.7,2.8,65.6-0.8c13-3.5,18.4-16.1,36.5-14
					c16.6,1.9,28,1.5,52.2,3.9c3.7,0.4,7.8,0.8,12.1,1.3c28.3,3.4,66,5.9,75.9,4.5"/>
				<path class="st6" d="M-228.1,353.3c66.3-12.1,130.3-6.6,175.3,3.2c41.1,9,52,3.5,65.4-0.1c12.9-3.5,17.5-17.1,36.1-14.3
					c16.7,2.5,27.4,2.6,52,5.3c3.7,0.4,7.7,0.9,12.1,1.5c27.5,3.5,64.8,4.6,75.8,3"/>
				<path class="st6" d="M-228.3,360.7c63-14.5,133.3-9.6,175.6,0.7c42.3,10.3,52.3,4.1,65.1,0.6s16.6-18.2,35.7-14.6
					s29.6,3.6,63.9,8.3c26.5,3.6,63.6,3.2,75.7,1.5"/>
				<path class="st6" d="M-228.3,363.2c25.3-5,52.7-5.4,78.1-5.7c21.7-0.2,42.2,0,61.2,2.1c12.3,1.5,24.5,3.6,36.6,6.5
					c40.5,9,51.1,2.9,65.1-0.3c1.4-0.3,2.7-0.8,4-1.4c10.3-4.5,15.8-14.5,32.1-11.7c17.6,3,27.9,3,54.4,5.7c3,0.3,6.2,0.6,9.5,1
					c28.1,3,64.3,4.6,75.3,3"/>
				<path class="st6" d="M-228.3,365.9c24.9-4.1,53-2.2,78-2.3c21.7-0.1,42-0.9,61.4,1c13.8,1.4,25.9,4.3,36.7,6.4
					c38.7,7.8,49.8,1.7,65.1-1.3c1.4-0.3,2.7-0.7,4-1.2c10.7-4,16.8-12.8,32.4-10.4c17.9,2.7,28.4,2.5,54.3,4.2
					c3,0.2,6.2,0.5,9.5,0.7c29.7,2.3,65,6,75,4.6"/>
				<path class="st6" d="M-228.3,368.4c24.6-3.2,53.3,1,77.9,0.9c21.7,0,41.8-1.8,61.6-0.1c13.9,1.2,26,4.5,36.8,6.4
					c36.9,6.6,48.6,0.4,65.1-2.2c1.4-0.2,2.7-0.6,4.1-1c11.1-3.4,17.8-11.1,32.8-9.1c18.3,2.5,28.9,1.9,54.3,2.8
					c3,0.1,6.2,0.3,9.5,0.5c31.3,1.6,65.7,7.3,74.6,6.1"/>
				<path class="st6" d="M-228.4,370.9c24.2-2.3,53.5,4.2,77.8,4.3c21.7,0.1,41.6-2.8,61.7-1.2c14.1,1.1,26,4.7,37,6.4
					c35.1,5.5,47.3-0.9,65.1-3.2c1.4-0.2,2.7-0.5,4.1-0.9c11.6-2.9,18.9-9.5,33.2-7.8c18.6,2.2,29.5,1.9,54.2,1.4
					c3.1,0,6.2,0.1,9.5,0.2c32.9,0.9,66.5,8.7,74.2,7.6"/>
				<path class="st6" d="M-228.4,373.5c23.9-1.4,53.8,7.4,77.7,7.6c21.7,0.2,41.4-3.7,61.9-2.4c14.2,0.9,26,4.9,37.1,6.4
					c33.2,4.4,46-2.2,65.1-4.1c1.4-0.1,2.8-0.5,4.1-0.7c12.1-2.3,19.9-7.8,33.5-6.4c19,1.9,30,0.5,54.2,0c3.1-0.1,6.2,0.1,9.5-0.1
					c34.5-1.3,67.2,10.1,73.8,9.1"/>
				<path class="st6" d="M-228.4,376.8c23.5-0.5,54,10.6,77.6,10.9c21.7,0.3,41.1-4.6,62.1-3.5c14.3,0.8,26,5.2,37.3,6.4
					c31.3,3.4,44.7-3.6,65.1-5.1c1.4-0.1,2.8-0.3,4.1-0.5c12.5-1.8,20.9-6.2,33.9-5.1c19.3,1.6,30.5-0.2,54.2-1.4
					c3.1-0.2,6.3-0.2,9.5-0.3c36.2-0.7,67.9,11.4,73.4,10.6"/>
				<path class="st6" d="M-228.4,380.5c23.2,0.4,54.3,13.8,77.5,14.2c21.7,0.4,40.9-5.5,62.3-4.6c14.4,0.6,26.1,5.4,37.4,6.4
					c29.5,2.5,43.5-5,65-6.1c1.4-0.1,2.8-0.3,4.2-0.4c13-1.2,22-4.6,34.2-3.8c19.7,1.3,31-0.9,54.1-2.8c3.1-0.3,6.3-0.4,9.5-0.6
					c37.8-1.6,68.6,12.8,73,12.2"/>
				<path class="st6" d="M-228.4,384.2c22.9,1.3,54.6,17,77.4,17.5c21.8,0.5,40.7-6.4,62.4-5.7c14.6,0.5,26.1,5.7,37.5,6.4
					c27.6,1.6,42.2-6.5,65-7c1.4,0,2.8-0.2,4.2-0.2c13.5-0.6,23-3,34.6-2.4c20.1,1,31.6-1.6,54.1-4.2c3.2-0.4,6.3-0.6,9.5-0.8
					c39.4-2.5,69.3,14.1,72.6,13.7"/>
				<path class="st6" d="M-228.4,387.4c22.5,2.2,54.8,20.2,77.3,20.8c21.8,0.6,40.4-7.3,62.6-6.8c14.7,0.3,26.1,6,37.7,6.4
					c25.7,0.8,40.9-7.3,65-8c1.4,0,2.8-0.1,4.2-0.1c13.9,0.3,24.1-1.4,34.9-1.1c20.4,0.5,32.1-2.4,54-5.6c3.2-0.5,6.3-0.9,9.5-1.1
					c41-3.5,70,15.5,72.2,15.2"/>
				<path class="st6" d="M-228.4,390.3c22.1,3.1,55.1,23.4,77.2,24.1c21.8,0.8,40.2-8.2,62.8-8c14.8,0.2,26.1,6.1,37.8,6.4
					c23.9,0.5,39.6-9.5,65-8.9c1.4,0,2.8,0,4.2,0.1c14.4,0.7,25.1,0.4,35.3,0.2c20.8-0.2,32.6-3.1,54-7c3.2-0.6,6.4-1,9.4-1.4
					c42.6-4.5,70.8,16.9,71.9,16.7"/>
				<path class="st6" d="M-228.4,393.3c21.8,4,55.3,26.6,77.1,27.5c21.8,0.9,40-9.2,63-9.1c15,0.1,26.1,6.8,38,6.4
					c23.2-0.8,40.1-12.2,69.3-9.6c47.8,4.2,59.3-0.4,89.6-6.8c49.7-10.7,80.9,16.6,80.9,16.6"/>
				<path class="st6" d="M-228.3,397.9c21.3,4.7,53.9,26.1,75.9,27.3c21.4,1.2,39.5-7.8,62.1-7.6c14.6,0.1,25.8,6.2,37.5,5.8
					c23.3-0.9,40.9-11.9,69.8-10.1c46.3,2.9,59.7-1.9,90.2-7.7c50.6-9.6,82.2,17,82.2,17"/>
				<path class="st6" d="M-228.1,402.6c20.9,5.4,52.4,25.5,74.8,27.1c20.9,1.5,39.1-6.4,61.2-6.2c14.2,0.1,25.4,5.6,37,5.2
					c23.4-0.9,41.7-11.6,70.3-10.5c44.9,1.6,60-3.4,90.8-8.6c51.5-8.5,83.5,17.5,83.5,17.5"/>
				<path class="st6" d="M-228,407.2c20.4,6,50.9,25,73.6,26.9c20.5,1.8,38.7-5,60.3-4.7c13.9,0.2,25,5.1,36.5,4.6
					c23.5-0.9,42.5-11.7,70.7-11c43.3,1.1,60.4-5,91.4-9.5c52.4-7.6,84.8,17.9,84.8,17.9"/>
				<path class="st6" d="M-227.8,411.9c20,6.7,49.5,24.4,72.4,26.8c20.1,2.1,38.2-3.6,59.4-3.2c13.5,0.2,24.6,4.5,36,4
					c23.6-1,43.4-10.9,71.2-11.5c41.8-0.8,60.7-6.5,92-10.4c53.3-6.6,86.1,18.3,86.1,18.3"/>
				<path class="st6" d="M-227.7,416.1c19.5,7.4,48,23.8,71.2,26.6c19.6,2.4,37.8-2.2,58.6-1.8c13.1,0.3,24.2,3.9,35.5,3.4
					c23.7-1,44.2-10.6,71.7-11.9c40.3-2,61.1-8,92.6-11.2c54.3-5.5,87.4,18.8,87.4,18.8"/>
				<path class="st6" d="M-227.5,420.4c19.1,8.1,46.5,23.2,70,26.4c19.2,2.6,37.4-0.8,57.7-0.3c12.8,0.3,23.8,3.3,35,2.8
					c23.8-1.1,45-10.2,72.2-12.4c38.7-3.1,61.5-9.5,93.2-12.1c55.2-4.4,88.7,19.2,88.7,19.2"/>
				<path class="st6" d="M-227.4,424.6c18.6,8.8,45.1,22.6,68.8,26.2c18.8,2.9,36.9,0.6,56.8,1.1c12.4,0.3,23.4,2.7,34.5,2.3
					c23.9-1.1,45.8-9.8,72.6-12.9c37.2-4.3,61.8-11,93.8-13c56.1-3.4,90,19.6,90,19.6"/>
				<path class="st6" d="M-227.2,428.8c18.2,9.4,43.7,22,67.6,26.1c18.3,3.1,36.5,1.9,55.9,2.6c12,0.4,23,2.2,34.1,1.7
					c24-1.2,46.7-9.4,73.1-13.3c35.7-5.3,62.2-12.5,94.4-13.8c57-2.3,91.3,20.1,91.3,20.1"/>
				<path class="st6" d="M-227.1,433.1c17.7,10.1,42.2,21.4,66.5,25.9c17.9,3.3,36.1,3.3,55.1,4c11.7,0.4,22.7,1.6,33.6,1.1
					c24.1-1.2,47.5-8.9,73.6-13.8c34.2-6.4,62.5-14,95.1-14.7c58-1.1,92.6,20.5,92.6,20.5"/>
				<path class="st6" d="M-226.9,437.3c17.3,10.8,40.7,20.7,65.3,25.7c17.5,3.6,35.6,4.7,54.2,5.5c11.3,0.5,22.3,1.1,33.1,0.5
					c24.2-1.2,48.3-8.4,74.1-14.2c32.7-7.4,62.9-15.5,95.6-15.6c58.9-0.1,93.9,20.9,93.9,20.9"/>
				<path class="st6" d="M-226.8,441.4c35.4,24.2,95.8,35.3,150,32.4c54.2-2.9,111-32.1,170.8-31.1c59.8,1,95.2,21.3,95.2,21.3"/>
			</g>
		</g>
		
			<rect x="-138.8" y="140.7" transform="matrix(3.868428e-03 -1 1 3.868428e-03 -357.1819 310.7159)" class="st7" width="232.4" height="387.8"/>
	</g>
</g>
<g>
	<defs>
		
			<ellipse id="SVGID_5_" transform="matrix(3.868456e-03 -1 1 3.868456e-03 -219.1312 426.7265)" cx="104.6" cy="323.4" rx="24.8" ry="45.7"/>
	</defs>
	<clipPath id="SVGID_6_">
		<use xlink:href="#SVGID_5_"  style="overflow:visible;"/>
	</clipPath>
	<g class="st8">
		<g>
			<defs>
				
					<rect id="SVGID_7_" x="-30.1" y="109.4" transform="matrix(3.868428e-03 -1 1 3.868428e-03 -217.5383 388.2594)" width="232.4" height="387.8"/>
			</defs>
			<clipPath id="SVGID_8_">
				<use xlink:href="#SVGID_7_"  style="overflow:visible;"/>
			</clipPath>
			<g class="st9">
				<path class="st6" d="M-117.3,216.8c94.5-0.5,134.9-24.7,264.7-7.5c80.5,10.7,151.3,15.3,151.3,15.3"/>
				<path class="st6" d="M-117.3,219.2c69.3,0.8,105.3-8.8,168.8-9.7c32.2-0.5,64.3,0.8,96.3,4.1c22,2.2,43.2,3.9,63.1,5.7
					c50.1,4.6,88.4,8.8,88.4,8.8"/>
				<path class="st6" d="M-117.3,221.7c72.4,2,104.6-5.2,169.1-5.8c29.5-0.2,59.8-0.4,96.5,2.1c21.7,1.5,42.8,2.3,63.2,3.9
					c49,3.9,88.5,9.7,88.5,9.7"/>
				<path class="st6" d="M-117.3,224.4c75.4,3.2,104-1.6,169.4-2c30.9-0.1,60.9-1.1,96.6,0.1c21.5,0.8,42.5,0.8,63.3,2.2
					c29.7,2,59.2,5.6,88.5,10.7"/>
				<path class="st6" d="M-117.3,227.8c78.4,4.4,103.3,2,169.6,1.9c32.3,0.1,62.1-1.1,96.8-1.8c21.3-0.5,42.1-0.8,63.3,0.4
					c29.8,1.8,59.4,5.7,88.6,11.6"/>
				<path class="st6" d="M-117.3,231.9c81.4,5.6,102.6,5.6,169.9,5.8c33.7,0.2,63.3-2.6,96.9-3.8c21.1-0.8,41.7-2.3,63.5-1.4
					c45.7,1.9,88.6,12.6,88.6,12.6"/>
				<path class="st6" d="M-117.3,236.2c84.4,6.8,102,9.1,170.2,9.6c35.2,0.4,64.4-3.4,97-5.8c20.9-1.5,41.4-3.8,63.5-3.1
					c44.7,1.3,88.7,13.5,88.7,13.5"/>
				<path class="st6" d="M-117.3,240.4c87.5,8,101.3,12.8,170.4,13.5c36.6,0.5,65.6-4.1,97.1-7.8c20.7-2.3,41-5.3,63.6-4.9
					c43.6,0.7,88.8,14.4,88.8,14.4"/>
				<path class="st6" d="M-117.4,243.7c90.5,9.2,100.7,16.3,170.7,17.3c38,0.6,66.8-5,97.3-9.7c20.5-3.2,40.6-7.1,63.7-6.7
					c42.5,0.8,88.8,15.4,88.8,15.4"/>
				<path class="st6" d="M-117.4,246.7c93.5,10.4,100,19.9,171,21.2c39.4,0.8,67.9-5.9,97.4-11.7c20.3-4,40.2-8.2,63.8-8.4
					c41.4-0.4,88.9,16.3,88.9,16.3"/>
				<path class="st6" d="M-117.4,249.6c96.6,11.6,99.3,23.5,171.3,25c40.9,0.9,69.1-6.8,97.5-13.7c20.1-4.9,39.8-9.7,63.9-10.2
					c40.3-0.9,88.9,17.3,88.9,17.3"/>
				<path class="st6" d="M-117.4,252.5c99.6,12.8,98.7,27.1,171.5,28.9s103.2-25.5,161.7-27.6c39.3-1.4,89,18.3,89,18.3"/>
				<path class="st6" d="M-117.6,259.3c96.3,10.3,101.8,23.1,171.9,26.3c22.8,1.2,45.7-1.1,67.9-6.8c13.9-3.5,26-8.4,39.6-11.5
					c16.5-3.7,32.7-7.1,53.4-7.6c4.1-0.1,8.3,0,12.5,0.3c35.6,2.4,75.3,16.7,76.4,16.5"/>
				<path class="st6" d="M-117.8,266.1c93,7.8,105,19.4,172.3,23.8c30.2,2,49.6-1.6,67.6-6c13.8-3.5,25.1-9.3,39.2-11.8
					c16.5-2.9,32.1-6,53.2-6.1c4,0,8.2,0.1,12.5,0.5c34.7,2.5,74.1,15.3,76.3,15"/>
				<path class="st6" d="M-118,272.8c89.6,5.4,108.2,15.8,172.7,21.2c31.6,2.7,49.9-0.9,67.3-5.3c13.7-3.5,24.1-10.2,38.9-12.1
					c16.5-2.1,31.5-4.9,53.1-4.7c4,0,8.1,0.2,12.4,0.6c33.8,2.7,72.9,14,76.2,13.5"/>
				<path class="st6" d="M-118.2,279.6c86.3,2.9,111.4,12.3,173,18.6c33,3.4,50.1-0.3,67-4.5c13.6-3.5,23.2-11.1,38.5-12.4
					c16.6-1.4,30.9-3.8,52.9-3.3c3.9,0.1,8.1,0.3,12.4,0.7c32.9,2.9,71.8,12.6,76.2,12"/>
				<path class="st6" d="M-118.4,286.3c83,0.4,114.6,8.9,173.4,16.1c34.4,4.2,50.5,0.3,66.8-3.8c13.5-3.5,22.2-12.1,38.1-12.7
					c16.6-0.7,30.3-2.7,52.8-1.8c3.9,0.2,8,0.4,12.3,0.8c32,3,70.6,11.3,76.1,10.5"/>
				<path class="st6" d="M-118.6,293.1c79.6-2.1,117.8,5.7,173.8,13.5c35.7,5,50.8,1,66.5-3.1c13.4-3.5,21.3-12.4,37.7-13.1
					c16.6-0.7,29.7-1.6,52.6-0.4c3.9,0.2,8,0.5,12.3,0.9c31.1,3.1,69.5,9.9,76.1,9"/>
				<path class="st6" d="M-118.8,299.9c76.3-4.6,120.9,2.5,174.1,10.9c37.1,5.9,51.1,1.6,66.2-2.3c13.2-3.5,20.3-14,37.3-13.4
					c16.6,0.6,29.1-0.6,52.5,1c3.8,0.3,7.9,0.6,12.2,1.1c30.2,3.2,68.3,8.6,76,7.5"/>
				<path class="st6" d="M-119,307.3c73-7.1,124-0.6,174.5,8.4c38.4,6.9,51.4,2.2,65.9-1.6c13.1-3.5,19.4-15,36.9-13.7
					c16.6,1.3,28.5,0.5,52.3,2.5c3.8,0.3,7.8,0.7,12.2,1.2c29.3,3.3,67.1,7.3,75.9,6"/>
				<path class="st6" d="M-119.2,314.7c69.6-9.5,127.2-3.7,174.9,5.8c39.8,7.9,51.7,2.8,65.6-0.8c13-3.5,18.4-16.1,36.5-14
					c16.6,1.9,27.9,1.5,52.2,3.9c3.7,0.4,7.8,0.8,12.1,1.3c28.3,3.4,65.9,5.9,75.9,4.5"/>
				<path class="st6" d="M-119.4,322c66.3-12.1,130.2-6.6,175.3,3.2c41,9,52,3.5,65.4-0.1c12.9-3.5,17.5-17.1,36.1-14.3
					c16.7,2.5,27.4,2.6,52,5.3c3.7,0.4,7.7,0.9,12.1,1.4c27.4,3.5,64.7,4.6,75.8,3"/>
				<path class="st6" d="M-119.6,329.4c63-14.5,133.3-9.6,175.7,0.7c42.3,10.3,52.3,4.1,65.1,0.6s16.6-18.2,35.7-14.6
					s29.6,3.6,63.9,8.3c26.5,3.6,63.6,3.2,75.7,1.5"/>
				<path class="st6" d="M-119.6,332c25.3-5,52.7-5.4,78.1-5.7c21.7-0.2,42.2,0,61.2,2.1c12.3,1.5,24.5,3.6,36.6,6.5
					c40.5,9,51.1,2.9,65.1-0.3c1.4-0.3,2.7-0.8,4-1.4c10.3-4.5,15.8-14.5,32.1-11.7c17.6,3,27.9,3,54.4,5.7c3,0.3,6.2,0.6,9.5,1
					c28.1,3,64.3,4.6,75.3,3"/>
				<path class="st6" d="M-119.6,334.5c24.9-4.1,53-2.2,78-2.3c21.7-0.1,42-0.9,61.4,1c13.8,1.4,25.9,4.3,36.7,6.4
					c38.7,7.8,49.8,1.7,65.1-1.3c1.4-0.3,2.7-0.7,4-1.2c10.7-4,16.8-12.8,32.4-10.4c17.9,2.7,28.4,2.5,54.3,4.3
					c3,0.2,6.2,0.5,9.5,0.7c29.7,2.3,65,6,75,4.6"/>
				<path class="st6" d="M-119.6,337.1c24.6-3.2,53.3,1,77.9,0.9c21.7,0,41.8-1.8,61.6-0.1c13.9,1.2,26,4.5,36.8,6.4
					c36.9,6.6,48.6,0.4,65.1-2.2c1.4-0.2,2.7-0.6,4.1-1c11.1-3.5,17.8-11.1,32.8-9.1c18.3,2.5,28.9,1.9,54.3,2.8
					c3,0.1,6.2,0.3,9.5,0.5c31.3,1.6,65.7,7.3,74.6,6.1"/>
				<path class="st6" d="M-119.6,339.6c24.2-2.3,53.5,4.2,77.8,4.3c21.7,0.1,41.6-2.8,61.7-1.3c14.1,1.1,26,4.7,37,6.4
					c35.1,5.5,47.3-0.9,65.1-3.2c1.4-0.2,2.7-0.5,4.1-0.9c11.6-2.9,18.8-9.5,33.1-7.7c18.6,2.2,29.5,1.9,54.2,1.4
					c3.1,0,6.2,0.1,9.5,0.2c32.9,0.9,66.4,8.7,74.2,7.6"/>
				<path class="st6" d="M-119.6,342.2c23.9-1.4,53.8,7.4,77.7,7.6c21.7,0.2,41.4-3.7,61.9-2.4c14.2,0.9,26,4.9,37.1,6.4
					c33.2,4.4,46-2.3,65.1-4.1c1.4-0.1,2.8-0.5,4.1-0.7c12.1-2.3,19.9-7.8,33.5-6.4c19,1.9,30,0.5,54.2,0c3.1-0.1,6.2,0.1,9.5,0
					c34.5-1.3,67.2,10,73.8,9.1"/>
				<path class="st6" d="M-119.6,345.4c23.5-0.5,54,10.6,77.6,10.9c21.7,0.3,41.1-4.6,62.1-3.5c14.3,0.8,26,5.2,37.3,6.4
					c31.3,3.4,44.7-3.6,65.1-5.1c1.4-0.1,2.8-0.4,4.1-0.5c12.5-1.8,20.9-6.2,33.9-5.1c19.3,1.6,30.5-0.2,54.2-1.4
					c3.1-0.2,6.3-0.2,9.5-0.3c36.2-0.7,67.9,11.4,73.4,10.6"/>
				<path class="st6" d="M-119.6,349.2c23.2,0.4,54.3,13.8,77.5,14.2c21.7,0.4,40.9-5.5,62.3-4.6c14.4,0.6,26.1,5.4,37.4,6.4
					c29.5,2.5,43.5-5,65-6.1c1.4-0.1,2.8-0.3,4.2-0.4c13-1.2,22-4.6,34.2-3.7c19.7,1.3,31-0.9,54.1-2.8c3.1-0.3,6.3-0.4,9.5-0.6
					c37.8-1.6,68.6,12.8,73,12.2"/>
				<path class="st6" d="M-119.7,352.8c22.9,1.3,54.6,17,77.4,17.5c21.8,0.5,40.7-6.4,62.4-5.7c14.6,0.5,26.1,5.7,37.5,6.4
					c27.6,1.6,42.2-6.5,65-7c1.4,0,2.8-0.2,4.2-0.2c13.5-0.6,23-3,34.6-2.4c20.1,1,31.6-1.6,54.1-4.2c3.2-0.4,6.3-0.6,9.5-0.8
					c39.4-2.5,69.3,14.1,72.6,13.7"/>
				<path class="st6" d="M-119.7,356c22.5,2.2,54.8,20.2,77.3,20.8c21.8,0.6,40.4-7.3,62.6-6.8c14.7,0.4,26.1,6,37.7,6.4
					c25.7,0.8,40.9-7.3,65-8c1.4,0,2.8-0.1,4.2,0c13.9,0.3,24.1-1.4,34.9-1.1c20.4,0.5,32.1-2.4,54-5.6c3.2-0.5,6.3-0.9,9.5-1.1
					c41-3.5,70,15.5,72.2,15.2"/>
				<path class="st6" d="M-119.7,359c22.1,3.1,55.1,23.4,77.2,24.2c21.8,0.7,40.2-8.2,62.8-8c14.8,0.2,26.1,6.1,37.8,6.4
					c23.9,0.5,39.6-9.5,65-8.9c1.4,0,2.8,0,4.2,0.1c14.4,0.7,25.1,0.4,35.3,0.2c20.8-0.2,32.6-3.1,54-7c3.2-0.6,6.4-1,9.4-1.4
					c42.6-4.5,70.8,16.9,71.9,16.7"/>
				<path class="st6" d="M-119.7,362c21.8,4,55.3,26.6,77.1,27.5c21.8,0.9,40-9.2,63-9.1c15,0.1,26.1,6.8,38,6.4
					c23.2-0.8,40.1-12.2,69.3-9.6c47.8,4.2,59.3-0.4,89.6-6.9c49.7-10.7,80.9,16.6,80.9,16.6"/>
				<path class="st6" d="M-119.5,366.6c21.3,4.6,53.9,26.1,75.9,27.3c21.4,1.2,39.5-7.8,62.1-7.6c14.6,0.1,25.8,6.2,37.5,5.8
					c23.3-0.9,40.9-11.9,69.8-10.1c46.3,2.9,59.7-1.9,90.2-7.7c50.6-9.6,82.2,17,82.2,17"/>
				<path class="st6" d="M-119.4,371.3c20.9,5.4,52.4,25.5,74.8,27.1c20.9,1.5,39.1-6.4,61.2-6.2c14.2,0.1,25.4,5.6,37,5.2
					c23.4-0.9,41.7-11.6,70.3-10.5c44.9,1.6,60-3.4,90.8-8.6c51.5-8.5,83.5,17.5,83.5,17.5"/>
				<path class="st6" d="M-119.2,375.9c20.4,6,50.9,25,73.6,26.9c20.5,1.8,38.7-5,60.3-4.7c13.9,0.2,25,5.1,36.5,4.6
					c23.5-1,42.6-11.7,70.7-11c43.3,1.2,60.4-4.9,91.4-9.5c52.4-7.6,84.8,17.9,84.8,17.9"/>
				<path class="st6" d="M-119.1,380.5c20,6.7,49.5,24.4,72.4,26.8c20.1,2.1,38.2-3.6,59.4-3.2c13.5,0.2,24.6,4.5,36.1,4
					c23.6-1,43.4-10.9,71.2-11.5c41.8-0.8,60.7-6.5,92-10.3c53.3-6.6,86.1,18.3,86.1,18.3"/>
				<path class="st6" d="M-118.9,384.8c19.5,7.4,48,23.8,71.2,26.6c19.6,2.3,37.8-2.2,58.6-1.8c13.1,0.3,24.2,3.9,35.5,3.4
					c23.7-1,44.2-10.6,71.7-11.9c40.3-2,61.1-8,92.6-11.2c54.3-5.5,87.4,18.8,87.4,18.8"/>
				<path class="st6" d="M-118.8,389c19.1,8.1,46.5,23.2,70,26.4c19.2,2.6,37.4-0.8,57.7-0.3c12.8,0.3,23.8,3.3,35,2.8
					c23.8-1.1,45-10.2,72.2-12.4c38.7-3.1,61.5-9.5,93.2-12.1c55.2-4.4,88.7,19.2,88.7,19.2"/>
				<path class="st6" d="M-118.6,393.3c18.6,8.8,45.1,22.6,68.8,26.2c18.8,2.9,36.9,0.5,56.8,1.1c12.4,0.3,23.4,2.8,34.5,2.3
					c23.9-1.1,45.8-9.8,72.6-12.9c37.2-4.3,61.8-11,93.8-13c56.1-3.4,90,19.6,90,19.6"/>
				<path class="st6" d="M-118.5,397.5c18.2,9.4,43.6,22,67.6,26.1c18.3,3.1,36.5,1.9,55.9,2.6c12,0.4,23,2.2,34.1,1.7
					c24-1.2,46.7-9.4,73.1-13.3c35.7-5.3,62.2-12.5,94.4-13.8c57-2.3,91.3,20,91.3,20"/>
				<path class="st6" d="M-118.3,401.7c17.7,10.1,42.2,21.4,66.5,25.9c17.9,3.3,36.1,3.3,55.1,4c11.7,0.4,22.7,1.6,33.6,1.1
					c24.1-1.2,47.5-8.9,73.6-13.8c34.2-6.4,62.5-14,95.1-14.7c58-1.1,92.6,20.5,92.6,20.5"/>
				<path class="st6" d="M-118.2,406c17.3,10.8,40.7,20.7,65.3,25.7c17.5,3.6,35.6,4.7,54.2,5.5c11.3,0.5,22.3,1.1,33.1,0.5
					c24.2-1.3,48.3-8.4,74.1-14.2c32.7-7.4,62.9-15.5,95.6-15.6c58.9-0.1,93.9,20.9,93.9,20.9"/>
				<path class="st6" d="M-118,410.1c35.4,24.2,95.8,35.3,150,32.4c54.2-2.9,111-32.2,170.8-31.2c59.8,1,95.2,21.3,95.2,21.3"/>
			</g>
		</g>
		
			<rect x="-30.1" y="109.4" transform="matrix(3.868428e-03 -1 1 3.868428e-03 -217.5383 388.2594)" class="st7" width="232.4" height="387.8"/>
	</g>
</g>
<g>
	<defs>
		
			<ellipse id="SVGID_9_" transform="matrix(9.278783e-03 -1 1 9.278783e-03 -232.7287 360.9318)" cx="65.8" cy="297.9" rx="33.1" ry="61.1"/>
	</defs>
	<clipPath id="SVGID_10_">
		<use xlink:href="#SVGID_9_"  style="overflow:visible;"/>
	</clipPath>
	<g class="st10">
		<g>
			<defs>
				
					<rect id="SVGID_11_" x="-63.8" y="88.8" transform="matrix(9.278825e-03 -1 1 9.278825e-03 -230.5819 331.4675)" width="231.7" height="386.6"/>
			</defs>
			<clipPath id="SVGID_12_">
				<use xlink:href="#SVGID_11_"  style="overflow:visible;"/>
			</clipPath>
			<g class="st11">
				<path class="st6" d="M-150.3,194.8c94.2,0,134.6-23.9,263.9-6c80.2,11.1,150.7,16,150.7,16"/>
				<path class="st6" d="M-150.3,197.1c69.1,1.2,105-8.2,168.3-8.7c32.1-0.4,64.1,1.2,96,4.6c21.9,2.3,43,4.1,62.8,6
					c49.9,4.9,88.1,9.2,88.1,9.2"/>
				<path class="st6" d="M-150.3,199.4c72.1,2.4,104.3-4.6,168.6-4.9c29.4-0.1,59.6-0.1,96.2,2.6c21.6,1.6,42.7,2.5,62.9,4.3
					c48.8,4.2,88.1,10.2,88.1,10.2"/>
				<path class="st6" d="M-150.3,201.9c75.1,3.6,103.6-1,168.8-1.1c30.8,0.1,60.7-0.8,96.3,0.7c21.5,0.9,42.3,1,63.1,2.5
					c29.6,2.2,59,5.9,88.2,11.1"/>
				<path class="st6" d="M-150.4,205.1c78.1,4.8,102.9,2.5,169.1,2.8c32.2,0.2,61.9-0.8,96.4-1.3c21.3-0.3,41.9-0.5,63.2,0.7
					c29.7,1.9,59.1,6,88.2,12.1"/>
				<path class="st6" d="M-150.4,209.4c81.1,6,102.3,6.1,169.3,6.7c33.6,0.4,63.1-2.2,96.6-3.3c21.1-0.6,41.6-2,63.3-1
					c45.6,2.2,88.3,13,88.3,13"/>
				<path class="st6" d="M-150.4,213.6c84.2,7.2,101.6,9.7,169.6,10.5c35.1,0.5,64.2-3,96.7-5.2c20.9-1.4,41.2-3.6,63.4-2.8
					c44.5,1.5,88.3,13.9,88.3,13.9"/>
				<path class="st6" d="M-150.5,217.9c87.2,8.5,100.9,13.2,169.8,14.4c36.5,0.7,65.4-3.8,96.9-7.2c20.7-2.2,40.8-5,63.5-4.5
					c43.4,1,88.4,14.9,88.4,14.9"/>
				<path class="st6" d="M-150.5,221.8c90.2,9.7,100.2,16.8,170.1,18.2c37.9,0.8,66.6-4.7,97-9.2c20.5-3.1,40.5-6.9,63.6-6.3
					c42.3,1,88.5,15.8,88.5,15.8"/>
				<path class="st6" d="M-150.5,224.6c93.2,10.9,99.6,20.4,170.3,22c39.3,1,67.8-5.5,97.2-11.1c20.2-3.9,40.1-8,63.7-8.1
					c41.3-0.2,88.5,16.8,88.5,16.8"/>
				<path class="st6" d="M-150.6,227.5c96.2,12.1,98.9,24,170.6,25.9c40.7,1.1,68.9-6.4,97.3-13.1c20.1-4.8,39.7-9.4,63.8-9.8
					c40.2-0.7,88.6,17.7,88.6,17.7"/>
				<path class="st6" d="M-150.6,230.3c99.2,13.3,98.2,27.5,170.8,29.7s103-24.9,161.3-26.6c39.1-1.2,88.6,18.7,88.6,18.7"/>
				<path class="st6" d="M-150.8,236.9c95.9,10.8,101.4,23.6,171.2,27.2c22.8,1.3,45.6-0.8,67.7-6.4c13.9-3.4,25.9-8.2,39.6-11.2
					c16.4-3.6,32.6-6.9,53.3-7.2c4-0.1,8.2,0.1,12.5,0.4c35.5,2.6,74.9,17,76,16.9"/>
				<path class="st6" d="M-151.1,243.3c92.6,8.3,104.6,19.9,171.6,24.6c30.1,2.1,49.4-1.3,67.4-5.6c13.8-3.4,25-9.1,39.2-11.5
					c16.5-2.8,32-5.7,53.1-5.8c4,0,8.2,0.2,12.4,0.5c34.6,2.7,73.8,15.7,76,15.4"/>
				<path class="st6" d="M-151.3,249.9c89.3,5.8,107.8,16.3,172,22.1c31.5,2.8,49.7-0.6,67.1-4.9c13.7-3.4,24.1-10,38.8-11.8
					c16.5-2.1,31.4-4.7,52.9-4.4c4,0.1,8.1,0.3,12.4,0.6c33.7,2.9,72.6,14.4,75.9,13.9"/>
				<path class="st6" d="M-151.5,256.7c86,3.3,111,12.9,172.4,19.5c32.9,3.6,50,0,66.9-4.1c13.6-3.4,23.2-11,38.4-12.2
					c16.5-1.3,30.8-3.6,52.8-3c3.9,0.1,8,0.4,12.3,0.8c32.8,3,71.5,13,75.9,12.4"/>
				<path class="st6" d="M-151.8,263.5c82.7,0.8,114.2,9.5,172.8,17c34.2,4.3,50.3,0.6,66.6-3.4c13.4-3.4,22.2-11.9,38-12.5
					c16.5-0.6,30.2-2.5,52.6-1.6c3.9,0.2,8,0.5,12.3,0.9c31.9,3.1,70.3,11.6,75.8,10.9"/>
				<path class="st6" d="M-152,270.4c79.4-1.7,117.3,6.3,173.1,14.4c35.6,5.2,50.6,1.2,66.3-2.7c13.3-3.4,21.3-12.2,37.6-12.8
					c16.5-0.6,29.6-1.5,52.5-0.1c3.8,0.2,7.9,0.6,12.2,1c30.9,3.3,69.1,10.3,75.8,9.4"/>
				<path class="st6" d="M-152.2,277.3c76.1-4.1,120.5,3.1,173.5,11.8c36.9,6.1,50.9,1.9,66-2c13.2-3.4,20.3-13.8,37.2-13.1
					c16.5,0.7,29-0.4,52.3,1.3c3.8,0.3,7.9,0.7,12.2,1.1c30,3.4,68,8.9,75.7,7.9"/>
				<path class="st6" d="M-152.5,284.7c72.8-6.6,123.7,0,173.9,9.3c38.3,7,51.2,2.5,65.7-1.2c13.1-3.4,19.4-14.9,36.9-13.4
					c16.5,1.4,28.4,0.6,52.1,2.7c3.8,0.3,7.8,0.7,12.1,1.3c29.1,3.5,66.8,7.6,75.6,6.5"/>
				<path class="st6" d="M-152.7,292.2c69.5-9.1,126.8-3,174.3,6.7c39.6,8.1,51.5,3.1,65.4-0.5c13-3.4,18.5-15.9,36.5-13.7
					c16.6,2,27.8,1.7,52,4.2c3.7,0.4,7.7,0.8,12.1,1.4c28.2,3.6,65.7,6.3,75.6,4.9"/>
				<path class="st6" d="M-152.9,299.6c66.1-11.6,129.9-5.9,174.7,4.2c40.9,9.2,51.8,3.7,65.2,0.3c12.9-3.4,17.5-17,36.1-14.1
					c16.6,2.6,27.3,2.7,51.9,5.6c3.7,0.4,7.7,0.9,12,1.5c27.3,3.6,64.5,4.9,75.5,3.4"/>
				<path class="st6" d="M-153.2,306.9c62.8-14.1,133-8.8,175.1,1.6s52.1,4.4,64.9,1s16.7-18,35.7-14.4c19,3.7,29.5,3.8,63.7,8.6
					c26.4,3.7,63.3,3.6,75.5,1.9"/>
				<path class="st6" d="M-153.2,309.4c25.2-4.9,52.6-5.1,77.9-5.2c21.6-0.1,42.1,0.2,61,2.4c12.2,1.5,24.4,3.8,36.4,6.6
					c40.4,9.2,50.9,3.1,64.9,0c1.4-0.3,2.7-0.8,4-1.3c10.2-4.4,15.8-14.4,32-11.5c17.5,3.1,27.8,3.2,54.2,5.9c3,0.3,6.2,0.7,9.5,1
					c28,3.1,64.1,4.9,75.1,3.4"/>
				<path class="st6" d="M-153.2,311.9c24.9-4,52.9-1.9,77.8-2c21.6,0,41.9-0.7,61.2,1.3c13.7,1.5,25.8,4.4,36.5,6.6
					c38.6,7.9,49.7,2,64.9-0.9c1.4-0.3,2.7-0.7,4-1.2c10.7-3.9,16.8-12.7,32.4-10.2c17.9,2.8,28.3,2.6,54.1,4.5
					c3,0.2,6.2,0.5,9.5,0.8c29.6,2.5,64.8,6.3,74.7,5"/>
				<path class="st6" d="M-153.2,314.4c24.5-3.1,53.1,1.3,77.6,1.4c21.6,0.1,41.7-1.6,61.4,0.2c13.9,1.3,25.9,4.6,36.7,6.6
					c36.7,6.8,48.4,0.6,64.9-1.9c1.4-0.2,2.7-0.6,4.1-1c11.1-3.4,17.8-11,32.7-8.9c18.2,2.6,28.8,2,54.1,3.1c3,0.1,6.2,0.3,9.5,0.5
					c31.2,1.8,65.5,7.7,74.3,6.4"/>
				<path class="st6" d="M-153.3,316.8c24.2-2.2,53.3,4.5,77.5,4.7c21.6,0.2,41.5-2.5,61.6-0.9c14,1.2,25.9,4.8,36.8,6.6
					c34.9,5.7,47.1-0.7,64.9-2.8c1.4-0.2,2.7-0.5,4.1-0.9c11.6-2.8,18.8-9.3,33.1-7.6c18.5,2.3,29.4,2,54.1,1.7
					c3.1,0,6.2,0.2,9.5,0.3c32.8,1.1,66.2,9,73.9,8"/>
				<path class="st6" d="M-153.3,319.5c23.8-1.3,53.6,7.7,77.4,8c21.6,0.3,41.2-3.4,61.7-2c14.1,1,25.9,5.1,37,6.6
					c33.1,4.6,45.9-2,64.9-3.8c1.4-0.1,2.8-0.4,4.1-0.7c12-2.3,19.9-7.7,33.5-6.2c18.9,2,29.9,0.7,54,0.3c3.1,0,6.2,0.1,9.4,0
					c34.4-1.1,66.9,10.4,73.5,9.5"/>
				<path class="st6" d="M-153.3,323.2c23.5-0.4,53.8,10.9,77.3,11.3c21.7,0.4,41-4.3,61.9-3.1c14.2,0.9,25.9,5.3,37.1,6.6
					c31.2,3.6,44.6-3.3,64.9-4.7c1.4-0.1,2.8-0.3,4.1-0.5c12.5-1.7,20.9-6.1,33.8-4.9c19.3,1.7,30.4,0,54-1.1
					c3.1-0.1,6.2-0.1,9.4-0.3c36-1.9,67.6,11.7,73.1,11"/>
				<path class="st6" d="M-153.4,326.8c23.1,0.5,54.1,14.1,77.2,14.6c21.7,0.5,40.8-5.3,62.1-4.3c14.4,0.7,25.9,5.6,37.3,6.6
					c29.4,2.6,43.3-4.8,64.9-5.7c1.4-0.1,2.8-0.2,4.2-0.4c13-1.1,21.9-4.4,34.1-3.6c19.6,1.4,30.9-0.7,54-2.5
					c3.1-0.2,6.3-0.4,9.4-0.5c37.7-1.4,68.3,13.1,72.7,12.5"/>
				<path class="st6" d="M-153.4,330.4c22.8,1.4,54.3,17.2,77.1,17.9c21.7,0.6,40.6-6.2,62.3-5.4c14.5,0.6,26,5.8,37.4,6.6
					c27.5,1.7,42.1-6.2,64.9-6.6c1.4,0,2.8-0.1,4.2-0.2c13.4-0.5,23-2.8,34.5-2.2c20,1,31.5-1.4,53.9-3.9c3.1-0.3,6.3-0.6,9.4-0.8
					c39.3-2.3,69,14.5,72.3,14"/>
				<path class="st6" d="M-153.4,333.7c22.4,2.3,54.5,20.4,77,21.2c21.7,0.8,40.3-7.1,62.4-6.5c14.6,0.4,26,6.2,37.5,6.6
					c25.6,0.9,40.8-7.1,64.9-7.6c1.4,0,2.8-0.1,4.2,0c13.9,0.4,24-1.2,34.8-0.9c20.3,0.7,32-2.2,53.9-5.3c3.2-0.5,6.3-0.8,9.4-1
					c40.9-3.3,69.7,15.8,71.9,15.5"/>
				<path class="st6" d="M-153.4,336.6c22.1,3.2,54.8,23.6,76.8,24.5c21.7,0.9,40.1-8,62.6-7.6c14.8,0.3,26,6.3,37.7,6.6
					c23.8,0.6,39.6-9.3,64.9-8.5c1.4,0,2.8,0.1,4.2,0.1c14.3,0.7,25,0.5,35.2,0.4c20.7-0.1,32.5-3,53.9-6.7c3.2-0.6,6.3-1,9.4-1.3
					c42.5-4.3,70.4,17.2,71.5,17"/>
				<path class="st6" d="M-153.5,339.4c21.7,4.1,55,26.8,76.7,27.8s39.9-8.9,62.8-8.7c14.9,0.1,26,6.9,37.8,6.5
					c23.1-0.7,40-11.9,69.1-9.2c47.7,4.4,59.1,0,89.3-6.3c49.6-10.4,80.6,17,80.6,17"/>
				<path class="st6" d="M-153.3,344.1c21.2,4.7,53.6,26.3,75.6,27.6c21.3,1.3,39.5-7.5,61.9-7.3c14.5,0.2,25.6,6.3,37.3,6
					c23.2-0.7,40.8-11.6,69.6-9.7c46.2,3.1,59.5-1.5,90-7.2c50.5-9.3,81.9,17.4,81.9,17.4"/>
				<path class="st6" d="M-153.2,348.8c20.8,5.4,52.1,25.7,74.4,27.4c20.9,1.6,39-6.1,61-5.8c14.2,0.2,25.3,5.8,36.8,5.4
					c23.3-0.8,41.6-11.3,70.1-10.1c44.7,1.9,59.8-3,90.6-8.1c51.4-8.2,83.2,17.9,83.2,17.9"/>
				<path class="st6" d="M-153.1,353.4c20.3,6.1,50.7,25.2,73.2,27.3c20.4,1.9,38.6-4.8,60.2-4.4c13.8,0.3,24.9,5.2,36.4,4.8
					c23.4-0.8,42.5-11,70.6-10.6c43.2,0.6,60.2-4.6,91.2-9c52.3-7.3,84.4,18.3,84.4,18.3"/>
				<path class="st6" d="M-153,357.8c19.9,6.8,49.2,24.6,72,27.1c20,2.2,38.1-3.4,59.3-2.9c13.4,0.3,24.5,4.6,35.9,4.2
					c23.5-0.9,43.3-10.6,71-11c41.7-0.6,60.6-6.1,91.8-9.8c53.2-6.3,85.7,18.7,85.7,18.7"/>
				<path class="st6" d="M-152.8,362c19.4,7.5,47.7,24,70.8,26.9c19.5,2.5,37.7-2,58.4-1.5c13.1,0.3,24.1,4,35.4,3.6
					c23.6-0.9,44.1-10.3,71.5-11.5c40.1-1.8,60.9-7.7,92.4-10.7c54.1-5.2,87,19.2,87,19.2"/>
				<path class="st6" d="M-152.7,366.3c19,8.2,46.3,23.4,69.6,26.7c19.1,2.7,37.3-0.6,57.5,0c12.7,0.4,23.7,3.5,34.9,3
					c23.8-0.9,44.9-9.9,72-12c38.6-2.9,61.3-9.2,93-11.6c55-4.2,88.3,19.6,88.3,19.6"/>
				<path class="st6" d="M-152.6,370.6c18.5,8.9,44.8,22.8,68.5,26.5c18.7,2.9,36.8,0.7,56.6,1.4c12.4,0.4,23.3,2.9,34.4,2.4
					c23.8-1,45.7-9.5,72.5-12.4c37.1-4,61.7-10.7,93.6-12.4c55.9-3.1,89.7,20,89.7,20"/>
				<path class="st6" d="M-152.4,374.8c18.1,9.5,43.4,22.2,67.3,26.3c18.3,3.2,36.4,2.1,55.8,2.9c12,0.5,23,2.3,33.9,1.9
					c23.9-1,46.5-9.1,73-12.9c35.6-5.1,62.1-12.2,94.2-13.3c56.9-2,90.9,20.5,90.9,20.5"/>
				<path class="st6" d="M-152.3,379c17.6,10.2,42,21.5,66.1,26.2c17.8,3.4,35.9,3.5,54.9,4.3c11.6,0.5,22.6,1.7,33.4,1.3
					c24-1.1,47.3-8.6,73.4-13.3c34.1-6.2,62.4-13.6,94.8-14.2c57.8-0.8,92.2,20.9,92.2,20.9"/>
				<path class="st6" d="M-152.2,383.3c17.2,10.9,40.5,20.9,64.9,26c17.4,3.6,35.5,4.9,54,5.8c11.3,0.5,22.2,1.2,33,0.7
					c24.1-1.1,48.2-8.1,73.9-13.8c32.6-7.2,62.8-15.1,95.4-15c58.7,0.2,93.5,21.3,93.5,21.3"/>
				<path class="st6" d="M-152.1,387.4c35.2,24.3,95.3,35.7,149.3,33.1c54-2.6,110.8-31.5,170.4-30.1c59.6,1.3,94.8,21.8,94.8,21.8"
					/>
			</g>
		</g>
		
			<rect x="-63.8" y="88.8" transform="matrix(9.278825e-03 -1 1 9.278825e-03 -230.5819 331.4675)" class="st7" width="231.7" height="386.6"/>
	</g>
</g>
<path class="st1" d="M435.4,407v11.8h-8.5V407h-14.4v12.5h-9.3V407h-14.4v11.8h-8.5V407h-15.7v25.6l4.8,8.3v77.6h17.1v-41.3
	c0-11.7,11.7-18.4,21.3-18.4c9.6,0,21.3,6.7,21.3,18.4v41.3h17.1v-77.6l4.8-8.3V407H435.4z"/>
<polygon class="st2" points="223.5,255.4 260.9,397.1 186.1,397.1 "/>
<polygon class="st1" points="190.5,325.3 218.1,430.3 162.8,430.3 "/>
<polygon class="st1" points="126.9,391 168.1,547.4 85.7,547.4 "/>
<g>
	<line class="st12" x1="332.2" y1="283.3" x2="332.2" y2="431.6"/>
	<line class="st12" x1="294.4" y1="326.2" x2="332.2" y2="348.5"/>
	<line class="st12" x1="332.2" y1="318.4" x2="351" y2="297.8"/>
	<g>
		<defs>
			<circle id="SVGID_13_" cx="329.6" cy="305" r="66.8"/>
		</defs>
		<clipPath id="SVGID_14_">
			<use xlink:href="#SVGID_13_"  style="overflow:visible;"/>
		</clipPath>
		<g class="st13">
			<g>
				<defs>
					<rect id="SVGID_15_" x="-4.1" y="132.8" width="565.7" height="339"/>
				</defs>
				<clipPath id="SVGID_16_">
					<use xlink:href="#SVGID_15_"  style="overflow:visible;"/>
				</clipPath>
				<g class="st14">
					<path class="st15" d="M-18.4,177.2c137.9-1.3,196.7-36.7,386.1-12.4c117.5,15.1,220.8,21.4,220.8,21.4"/>
					<path class="st15" d="M-18.4,180.8c101.1,0.8,153.5-13.4,246.2-15.1c46.9-1,93.9,0.9,140.6,5.4c32,3.1,63,5.4,92,8
						c73,6.5,129,12.3,129,12.3"/>
					<path class="st15" d="M-18.4,184.4c105.6,2.6,152.6-8.1,246.6-9.4c43-0.5,87.2-0.9,140.7,2.6c31.7,2.1,62.5,3.1,92.2,5.4
						c71.5,5.4,129.1,13.7,129.1,13.7"/>
					<path class="st15" d="M-18.4,188.3c110,4.3,151.6-2.9,247-3.8c45.1-0.3,88.8-2,140.9-0.3c31.4,1,61.9,0.9,92.3,2.8
						c43.3,2.8,86.4,7.8,129.2,15.1"/>
					<path class="st15" d="M-18.4,193.4c114.4,6,150.7,2.3,247.4,1.8c47.2-0.1,90.6-2,141.2-3.2c31.1-0.8,61.4-1.4,92.4,0.2
						c68.3,3.5,129.3,16.4,129.3,16.4"/>
					<path class="st15" d="M-18.4,199.3c118.8,7.7,149.8,7.6,247.9,7.4c49.2,0.1,92.3-4.1,141.3-6.1c30.8-1.2,60.8-3.6,92.5-2.3
						c66.7,2.5,129.3,17.8,129.3,17.8"/>
					<path class="st15" d="M-18.4,205.5c123.3,9.5,148.8,12.8,248.3,13.1c51.3,0.3,94-5.3,141.5-9c30.5-2.4,60.3-5.7,92.7-4.9
						c65.2,1.7,129.4,19.2,129.4,19.2"/>
					<path class="st15" d="M-18.4,211.7c127.7,11.2,147.9,18,248.8,18.7c53.4,0.5,95.7-6.5,141.7-11.8c30.2-3.5,59.7-7.9,92.8-7.5
						c63.6,0.8,129.5,20.6,129.5,20.6"/>
					<path class="st15" d="M-18.4,216.6c132.1,12.9,146.9,23.2,249.1,24.3c55.5,0.7,97.4-7.7,141.8-14.7
						c29.9-4.7,59.1-10.6,92.9-10.1c62,0.9,129.6,22,129.6,22"/>
					<path class="st15" d="M-18.4,220.8c136.5,14.6,146,28.4,249.5,29.9c57.5,0.9,99.1-9,142-17.6c29.6-5.9,58.6-12.2,93.1-12.7
						c60.4-0.8,129.7,23.3,129.7,23.3"/>
					<path class="st15" d="M-18.4,225.1c140.9,16.4,145,33.7,250,35.5c59.6,1.1,100.8-10.3,142.2-20.5c29.3-7.2,58-14.3,93.2-15.2
						c58.8-1.5,129.8,24.7,129.8,24.7"/>
					<path class="st15" d="M-18.4,229.3c145.4,18.2,144.1,38.9,250.4,41.2s150.3-37.8,235.7-41.2c57.2-2.3,129.9,26.1,129.9,26.1"/>
					<path class="st15" d="M-18.7,239.2c140.5,14.5,148.7,33.2,250.9,37.5c42.1,1.8,71.8-3.4,98.9-10.2c20.3-5.1,37.9-12.4,57.8-17
						c24-5.5,47.6-10.6,77.8-11.3c5.9-0.1,12,0,18.2,0.4c52,3.3,109.9,23.9,111.5,23.7"/>
					<path class="st15" d="M-18.9,249.1c135.6,10.9,153.4,27.7,251.4,33.7c44.1,2.7,72.3-2.5,98.5-9.1c20.1-5.1,36.5-13.7,57.2-17.4
						c24.1-4.3,46.8-9,77.6-9.2c5.9,0,11.9,0.1,18.1,0.6c50.7,3.5,108.2,22,111.4,21.5"/>
					<path class="st15" d="M-19.2,259c130.8,7.3,157.9,22.4,252,30c46.1,3.7,72.7-1.6,98.1-8.1c20-5.1,35.1-15,56.6-17.9
						c24.1-3.2,45.9-7.3,77.4-7.1c5.8,0,11.8,0.3,18.1,0.8c49.4,3.8,106.5,20,111.3,19.3"/>
					<path class="st15" d="M-19.4,268.8c125.9,3.7,162.6,17.3,252.5,26.2c48.1,4.8,73.2-0.7,97.7-7c19.8-5.1,33.7-16.3,56-18.3
						c24.1-2.2,45.1-5.7,77.2-5.1c5.7,0.1,11.7,0.4,18,1c48,3.9,104.8,18,111.2,17.1"/>
					<path class="st15" d="M-19.7,278.6c121,0.1,167.2,12.4,253,22.5c50.1,5.9,73.6,0.2,97.3-5.9c19.6-5.1,32.3-17.7,55.5-18.8
						c24.2-1.1,44.2-4.1,77-3c5.7,0.2,11.7,0.6,17.9,1.1c46.7,4.2,103.1,16.1,111.1,14.9"/>
					<path class="st15" d="M-19.9,288.6c116.1-3.5,171.8,7.6,253.6,18.8c52.1,7.1,74.1,1.1,97-4.8c19.5-5.1,31-18.2,54.9-19.2
						c24.2-1.1,43.4-2.6,76.8-0.9c5.6,0.3,11.6,0.7,17.8,1.3c45.3,4.3,101.3,14.1,111,12.7"/>
					<path class="st15" d="M-20.2,298.5c111.3-7.1,176.4,3,254.1,15c54.1,8.4,74.5,2,96.5-3.8c19.3-5.1,29.6-20.5,54.3-19.7
						c24.2,0.8,42.5-1,76.6,1.2c5.6,0.4,11.5,0.8,17.8,1.5c44,4.5,99.6,12.2,110.9,10.5"/>
					<path class="st15" d="M-20.4,309.3c106.4-10.7,180.9-1.6,254.7,11.2c56.1,9.8,75,3,96.1-2.7c19.1-5.1,28.2-22,53.7-20.1
						c24.2,1.8,41.6,0.5,76.4,3.3c5.5,0.4,11.4,1,17.7,1.7c42.7,4.7,97.9,10.2,110.8,8.4"/>
					<path class="st15" d="M-20.7,320c101.5-14.3,185.5-6.1,255.2,7.5c58,11.3,75.4,3.8,95.7-1.6c19-5.1,26.8-23.5,53.2-20.6
						c24.3,2.7,40.8,2.1,76.2,5.4c5.4,0.5,11.3,1.1,17.6,1.9c41.4,4.8,96.2,8.3,110.7,6.2"/>
					<path class="st15" d="M-20.9,330.7c96.6-17.9,190-10.4,255.7,3.8c59.9,12.9,75.9,4.7,95.3-0.5c18.8-5.1,25.4-25.1,52.6-21.1
						c24.3,3.6,39.9,3.6,76,7.5c5.4,0.6,11.2,1.2,17.6,2c40.1,4.9,94.5,6.3,110.6,3.9"/>
					<path class="st15" d="M-21.2,341.4c91.8-21.5,194.5-14.7,256.2,0s76.3,5.7,94.9,0.6s24.1-26.7,52-21.5
						c27.9,5.1,43.1,5.2,93.3,11.8c38.7,5.1,92.8,4.3,110.5,1.8"/>
					<path class="st15" d="M-21.2,345.2c36.8-7.4,76.9-8.2,113.9-8.7c31.6-0.5,61.6-0.2,89.3,2.7c19.9,2.2,37.8,5.8,53.4,9.2
						c59.2,12.8,74.5,3.9,94.9-0.8c2-0.5,4-1.2,5.8-2c14.9-6.6,22.9-21.3,46.7-17.3c25.7,4.3,40.7,4.3,79.3,7.9
						c4.4,0.4,9,0.9,13.9,1.4c41,4.2,93.8,6.3,109.9,4"/>
					<path class="st15" d="M-21.2,349c36.3-6.1,77.3-3.5,113.7-3.9c31.6-0.3,61.3-1.6,89.6,1.1c20.1,2,37.8,6.1,53.6,9.2
						c56.5,11.1,72.7,2.1,94.9-2.2c2-0.4,4-1,5.9-1.8c15.6-5.8,24.4-18.8,47.3-15.4c26.2,3.9,41.5,3.4,79.3,5.9
						c4.4,0.3,9,0.7,13.8,1c43.4,3.2,94.9,8.3,109.4,6.2"/>
					<path class="st15" d="M-21.2,352.7c35.8-4.8,77.7,1.2,113.6,0.9c31.6-0.2,61-2.9,89.8-0.6c20.3,1.7,37.9,6.4,53.8,9.2
						c53.9,9.4,70.8,0.3,94.9-3.6c2-0.4,4-0.9,5.9-1.5c16.2-5.1,25.9-16.3,47.8-13.4c26.7,3.5,42.2,2.5,79.2,3.8
						c4.4,0.2,9,0.4,13.8,0.6c45.7,2.2,95.9,10.3,108.8,8.4"/>
					<path class="st15" d="M-21.2,356.4c35.3-3.5,78.1,5.8,113.5,5.8c31.7,0,60.6-4.2,90.1-2.2c20.5,1.5,37.9,6.7,54,9.2
						c51.2,7.8,69-1.6,94.9-5c2-0.3,4-0.8,5.9-1.3c16.9-4.3,27.5-13.9,48.3-11.5c27.2,3.1,43,2.5,79.1,1.8c4.5-0.1,9.1,0.1,13.8,0.3
						c48,1.1,97,12.3,108.3,10.7"/>
					<path class="st15" d="M-21.2,360.1c34.8-2.2,78.5,10.5,113.4,10.6c31.7,0.2,60.3-5.6,90.3-3.8c20.7,1.3,38,7.1,54.2,9.2
						c48.5,6.3,67.1-3.5,94.9-6.4c2.1-0.2,4-0.7,6-1.1c17.6-3.5,29-11.5,48.8-9.5c27.7,2.7,43.7,0.6,79.1-0.3
						c4.5-0.1,9.1,0.1,13.8-0.1c50.3-2.1,98,14.3,107.7,12.9"/>
					<path class="st15" d="M-21.2,364.9c34.3-0.9,78.9,15.2,113.3,15.4c31.7,0.3,59.9-6.9,90.5-5.4c20.9,1.1,38,7.4,54.4,9.1
						c45.7,4.8,65.2-5.5,94.9-7.8c2.1-0.2,4.1-0.5,6-0.8c18.3-2.7,30.5-9.1,49.4-7.6c28.2,2.3,44.5-0.4,79-2.3
						c4.5-0.3,9.1-0.4,13.8-0.5c52.8-1.3,99.1,16.3,107.1,15.1"/>
					<path class="st15" d="M-21.2,370.3c33.8,0.4,79.3,19.8,113.1,20.3c31.7,0.5,59.6-8.3,90.8-7.1c21,0.9,38,7.8,54.6,9.1
						c43,3.5,63.4-7.6,94.9-9.2c2.1-0.1,4.1-0.4,6.1-0.6c18.9-1.8,32-6.8,49.9-5.7c28.7,1.8,45.3-1.5,79-4.4
						c4.6-0.4,9.2-0.7,13.8-0.9c55.1-2.6,100.1,18.3,106.6,17.3"/>
					<path class="st15" d="M-21.2,375.7c33.3,1.7,79.7,24.5,113,25.1c31.7,0.7,59.3-9.6,91-8.7c21.2,0.7,38.1,8.2,54.8,9.1
						c40.3,2.2,61.5-9.7,94.8-10.6c2.1-0.1,4.1-0.2,6.1-0.3c19.6-0.9,33.6-4.4,50.4-3.7c29.3,1.3,46-2.5,78.9-6.4
						c4.6-0.5,9.2-1,13.8-1.3c57.4-3.9,101.2,20.2,106,19.5"/>
					<path class="st15" d="M-21.2,380.3c32.8,3,80.1,29.2,112.9,30c31.8,0.8,58.9-10.9,91.3-10.3c21.4,0.4,38.1,8.7,55,9.1
						c37.5,1,59.6-10.9,94.8-12c2-0.1,4.1-0.1,6.2-0.1c20.3,0.3,35.1-2.1,50.9-1.8c29.8,0.7,46.7-3.6,78.8-8.5
						c4.6-0.7,9.2-1.2,13.8-1.6c59.8-5.4,102.3,22.2,105.5,21.7"/>
					<path class="st15" d="M-21.2,384.7c32.3,4.4,80.5,33.8,112.8,34.8c31.8,1,58.6-12.2,91.5-12c21.6,0.2,38.1,8.8,55.2,9.1
						c34.8,0.6,57.8-14.1,94.8-13.4c2,0,4.1,0,6.2,0.1c21,0.9,36.6,0.4,51.4,0.2c30.3-0.5,47.5-4.8,78.7-10.5
						c4.7-0.9,9.3-1.5,13.8-2c62.1-6.9,103.3,24.2,104.9,24"/>
					<path class="st15" d="M-21.2,389c31.8,5.7,80.9,38.5,112.7,39.6c31.8,1.1,58.2-13.6,91.8-13.6c21.8,0,38.2,9.7,55.4,9.1
						c33.8-1.3,58.4-18,101-14.4c69.8,5.8,86.5-0.8,130.7-10.5c72.4-15.8,118.1,23.8,118.1,23.8"/>
					<path class="st15" d="M-20.9,395.8c31.2,6.7,78.7,37.7,110.9,39.4c31.2,1.6,57.6-11.6,90.5-11.5c21.3,0.1,37.6,8.9,54.7,8.2
						c34-1.4,59.6-17.5,101.7-15.1c67.6,3.9,87-3.1,131.5-11.8c73.8-14.3,120,24.4,120,24.4"/>
					<path class="st15" d="M-20.7,402.6c30.5,7.7,76.6,36.9,109.2,39.1c30.5,2.1,57-9.5,89.2-9.3c20.7,0.1,37,8.1,54,7.4
						c34.1-1.5,60.8-17.1,102.4-15.8c65.4,2.1,87.5-5.3,132.4-13c75.1-12.7,121.9,25,121.9,25"/>
					<path class="st15" d="M-20.4,409.4c29.8,8.7,74.5,36.1,107.5,38.9c29.9,2.5,56.4-7.5,88-7.2c20.2,0.2,36.5,7.2,53.3,6.5
						c34.3-1.5,62-17.4,103.1-16.4c63.2,1.4,88-7.6,133.3-14.3c76.4-11.4,123.8,25.6,123.8,25.6"/>
					<path class="st15" d="M-20.2,416.1c29.2,9.7,72.3,35.3,105.7,38.6c29.3,2.9,55.8-5.5,86.7-5.1c19.7,0.3,35.9,6.4,52.6,5.7
						c34.4-1.6,63.2-16.2,103.8-17.1c60.9-1.4,88.6-9.8,134.2-15.6c77.8-9.9,125.7,26.3,125.7,26.3"/>
					<path class="st15" d="M-19.9,422.3c28.5,10.7,70.2,34.5,104,38.4c28.6,3.3,55.1-3.5,85.4-3c19.1,0.3,35.3,5.6,51.8,4.8
						c34.5-1.6,64.4-15.6,104.5-17.8c58.7-3.2,89.1-12,135-16.9c79.1-8.4,127.6,26.8,127.6,26.8"/>
					<path class="st15" d="M-19.7,428.5c27.9,11.7,68.1,33.6,102.3,38.1c28,3.7,54.5-1.4,84.2-0.8c18.6,0.4,34.8,4.7,51.1,3.9
						c34.7-1.7,65.6-15.1,105.2-18.5c56.5-4.8,89.6-14.2,135.9-18.2c80.5-6.8,129.5,27.5,129.5,27.5"/>
					<path class="st15" d="M-19.4,434.7c27.2,12.7,65.9,32.7,100.5,37.9c27.4,4.1,53.9,0.6,82.9,1.3c18.1,0.4,34.2,3.9,50.4,3.1
						c34.9-1.8,66.8-14.5,105.9-19.2c54.3-6.4,90.1-16.4,136.8-19.4c81.8-5.2,131.4,28.1,131.4,28.1"/>
					<path class="st15" d="M-19.2,440.9c26.6,13.7,63.8,31.8,98.8,37.6c26.8,4.4,53.2,2.6,81.6,3.5c17.6,0.5,33.6,3.1,49.7,2.2
						c35-1.8,68-13.9,106.6-19.8c52-8,90.6-18.6,137.7-20.7c83.1-3.6,133.3,28.8,133.3,28.8"/>
					<path class="st15" d="M-18.9,447C7,461.7,42.8,478,78.2,484.4c26.1,4.8,52.6,4.6,80.4,5.6c17,0.6,33.1,2.2,49,1.4
						c35.2-1.9,69.2-13.3,107.3-20.5c49.8-9.5,91.1-20.7,138.5-22c84.5-2,135.2,29.3,135.2,29.3"/>
					<path class="st15" d="M-18.7,453.2c25.3,15.7,59.6,30,95.4,37.1c25.5,5.1,52,6.7,79.1,7.7c16.5,0.6,32.5,1.4,48.2,0.5
						c35.3-2,70.4-12.6,108-21.2c47.6-11,91.7-23,139.4-23.3c85.9-0.4,137.1,30,137.1,30"/>
					<path class="st15" d="M-18.4,459.2c51.8,35.1,139.9,51,219,46.4c79.1-4.5,161.7-47.6,248.9-46.4c87.2,1.2,139,30.6,139,30.6"/>
				</g>
			</g>
			<rect x="-4.1" y="132.8" class="st16" width="565.7" height="339"/>
		</g>
	</g>
</g>
</svg>
